#N canvas 24 41 1220 612 10;
#X declare -lib mrpeach;
#X obj 12 54 udpsend;
#X obj 340 57 / 127;
#X obj 12 33 packOSC;
#X obj 14 -14 import mrpeach;
#X obj 340 77 prepend /s1;
#X obj 413 57 / 127;
#X obj 413 77 prepend /s2;
#X obj 340 99 s data;
#X obj 12 13 r data;
#X obj 413 99 s data;
#X obj 486 57 / 127;
#X obj 559 57 / 127;
#X obj 486 99 s data;
#X obj 559 99 s data;
#X obj 486 77 prepend /s3;
#X obj 559 77 prepend /s4;
#X obj 633 57 / 127;
#X obj 706 57 / 127;
#X obj 633 99 s data;
#X obj 706 99 s data;
#X obj 779 57 / 127;
#X obj 852 57 / 127;
#X obj 779 99 s data;
#X obj 852 99 s data;
#X obj 633 77 prepend /s5;
#X obj 706 77 prepend /s6;
#X obj 779 77 prepend /s7;
#X obj 852 77 prepend /s8;
#X text 282 36 SLIDERS;
#X obj 339 163 / 127;
#X obj 412 163 / 127;
#X obj 339 205 s data;
#X obj 412 205 s data;
#X obj 485 163 / 127;
#X obj 558 163 / 127;
#X obj 485 205 s data;
#X obj 558 205 s data;
#X obj 632 163 / 127;
#X obj 705 163 / 127;
#X obj 632 205 s data;
#X obj 705 205 s data;
#X obj 778 163 / 127;
#X obj 851 163 / 127;
#X obj 778 205 s data;
#X obj 851 205 s data;
#X obj 339 183 prepend /k1;
#X obj 412 183 prepend /k2;
#X obj 485 183 prepend /k3;
#X obj 558 183 prepend /k4;
#X obj 632 183 prepend /k5;
#X obj 705 183 prepend /k6;
#X obj 778 183 prepend /k7;
#X obj 851 183 prepend /k8;
#X text 281 142 KNOBS;
#X obj 339 305 s data;
#X obj 412 305 s data;
#X obj 485 305 s data;
#X obj 558 305 s data;
#X obj 632 305 s data;
#X obj 705 305 s data;
#X obj 778 305 s data;
#X obj 851 305 s data;
#X text 281 242 BUTTONS;
#X obj 339 283 prepend /b1;
#X obj 412 283 prepend /b2;
#X obj 485 283 prepend /b3;
#X obj 558 283 prepend /b4;
#X obj 632 283 prepend /b5;
#X obj 705 283 prepend /b6;
#X obj 778 283 prepend /b7;
#X obj 851 283 prepend /b8;
#X obj 338 263 b;
#X obj 412 263 b;
#X obj 485 263 b;
#X obj 558 263 b;
#X obj 632 263 b;
#X obj 705 263 b;
#X obj 778 263 b;
#X obj 851 263 b;
#X obj 316 105 bng 15 250 50 0 empty empty empty 17 7 0 10 -262144
-1 -1;
#X obj 296 409 s data;
#X obj 383 409 s data;
#X obj 464 410 s data;
#X obj 557 410 s data;
#X obj 645 409 s data;
#X obj 731 408 s data;
#X obj 817 408 s data;
#X obj 897 408 s data;
#X obj 295 367 b;
#X obj 383 367 b;
#X obj 464 368 b;
#X obj 557 368 b;
#X obj 645 367 b;
#X obj 731 366 b;
#X obj 817 366 b;
#X obj 897 366 b;
#X obj 438 564 s data;
#X obj 525 564 s data;
#X obj 606 565 s data;
#X obj 699 565 s data;
#X obj 787 564 s data;
#X obj 873 563 s data;
#X obj 439 671 s data;
#X obj 519 671 s data;
#X obj 609 671 s data;
#X obj 437 522 b;
#X obj 525 522 b;
#X obj 606 523 b;
#X obj 699 523 b;
#X obj 787 522 b;
#X obj 873 521 b;
#X obj 439 629 b;
#X obj 519 629 b;
#X obj 609 629 b;
#X obj 705 670 s data;
#X obj 792 670 s data;
#X obj 873 671 s data;
#X obj 704 628 b;
#X obj 792 628 b;
#X obj 873 629 b;
#X text 232 484 NOTES;
#X obj 438 542 prepend /n1;
#X obj 525 542 prepend /n2;
#X obj 606 543 prepend /n3;
#X obj 699 543 prepend /n4;
#X obj 787 542 prepend /n5;
#X obj 873 541 prepend /n6;
#X obj 439 649 prepend /n7;
#X obj 519 649 prepend /n8;
#X obj 609 649 prepend /n9;
#X obj 705 648 prepend /n10;
#X obj 792 648 prepend /n11;
#X obj 873 649 prepend /n12;
#X text 263 -14 IP address and OSC port;
#X obj 409 575 bng 15 250 50 0 empty empty empty 17 7 0 10 -262144
-1 -1;
#X obj 656 455 notein;
#X obj 438 501 sel 60;
#X obj 525 501 sel 61;
#X obj 606 502 sel 62;
#X obj 699 502 sel 63;
#X obj 787 501 sel 64;
#X obj 873 500 sel 65;
#X obj 439 608 sel 66;
#X obj 519 608 sel 67;
#X obj 609 608 sel 68;
#X obj 705 607 sel 69;
#X obj 792 607 sel 70;
#X obj 873 608 sel 71;
#X obj 187 259 ctlin;
#X floatatom 194 323 5 0 0 0 - - -;
#X obj 340 36 ctlin 0;
#X obj 414 36 ctlin 1;
#X obj 486 33 ctlin 2;
#X obj 559 36 ctlin 3;
#X obj 633 36 ctlin 4;
#X obj 706 35 ctlin 5;
#X obj 779 36 ctlin 6;
#X obj 852 36 ctlin 7;
#X obj 339 142 ctlin 16;
#X obj 412 143 ctlin 17;
#X obj 485 142 ctlin 18;
#X obj 558 143 ctlin 19;
#X obj 632 142 ctlin 20;
#X obj 704 142 ctlin 21;
#X obj 778 142 ctlin 22;
#X obj 850 142 ctlin 23;
#X obj 339 242 ctlin 32;
#X obj 412 242 ctlin 33;
#X obj 485 242 ctlin 34;
#X obj 558 242 ctlin 35;
#X obj 632 242 ctlin 36;
#X obj 705 242 ctlin 37;
#X obj 778 242 ctlin 38;
#X obj 851 242 ctlin 39;
#X obj 296 346 ctlin 48;
#X obj 383 346 ctlin 49;
#X obj 464 347 ctlin 50;
#X obj 558 348 ctlin 51;
#X obj 645 346 ctlin 52;
#X obj 731 345 ctlin 53;
#X obj 817 345 ctlin 54;
#X obj 897 345 ctlin 55;
#X obj 296 387 prepend /b9;
#X obj 383 387 prepend /b10;
#X obj 464 388 prepend /b11;
#X obj 557 388 prepend /b12;
#X obj 645 387 prepend /b13;
#X obj 731 386 prepend /b14;
#X obj 817 386 prepend /b15;
#X obj 897 386 prepend /b16;
#X obj 309 312 bng 15 250 50 0 empty empty empty 17 7 0 10 -262144
-1 -1;
#X obj 924 306 bng 15 250 50 0 empty empty empty 17 7 0 10 -262144
-1 -1;
#X obj 946 187 bng 15 250 50 0 empty empty empty 17 7 0 10 -262144
-1 -1;
#X obj 997 85 vsl 15 128 0 127 0 0 empty empty empty 0 -9 0 10 -262144
-1 -1 2300 1;
#X msg 108 -14 connect 127.0.0.1 12001;
#X connect 1 0 4 0;
#X connect 2 0 0 0;
#X connect 4 0 7 0;
#X connect 4 0 79 0;
#X connect 5 0 6 0;
#X connect 6 0 9 0;
#X connect 8 0 2 0;
#X connect 10 0 14 0;
#X connect 11 0 15 0;
#X connect 14 0 12 0;
#X connect 15 0 13 0;
#X connect 16 0 24 0;
#X connect 17 0 25 0;
#X connect 20 0 26 0;
#X connect 21 0 27 0;
#X connect 24 0 18 0;
#X connect 25 0 19 0;
#X connect 26 0 22 0;
#X connect 27 0 23 0;
#X connect 29 0 45 0;
#X connect 30 0 46 0;
#X connect 33 0 47 0;
#X connect 34 0 48 0;
#X connect 37 0 49 0;
#X connect 38 0 50 0;
#X connect 41 0 51 0;
#X connect 42 0 52 0;
#X connect 45 0 31 0;
#X connect 46 0 32 0;
#X connect 47 0 35 0;
#X connect 48 0 36 0;
#X connect 49 0 39 0;
#X connect 50 0 40 0;
#X connect 51 0 43 0;
#X connect 52 0 44 0;
#X connect 63 0 54 0;
#X connect 63 0 190 0;
#X connect 64 0 55 0;
#X connect 65 0 56 0;
#X connect 66 0 57 0;
#X connect 67 0 58 0;
#X connect 68 0 59 0;
#X connect 69 0 60 0;
#X connect 70 0 61 0;
#X connect 70 0 191 0;
#X connect 71 0 63 0;
#X connect 72 0 64 0;
#X connect 73 0 65 0;
#X connect 74 0 66 0;
#X connect 75 0 67 0;
#X connect 76 0 68 0;
#X connect 77 0 69 0;
#X connect 78 0 70 0;
#X connect 88 0 182 0;
#X connect 89 0 183 0;
#X connect 90 0 184 0;
#X connect 91 0 185 0;
#X connect 92 0 186 0;
#X connect 93 0 187 0;
#X connect 94 0 188 0;
#X connect 95 0 189 0;
#X connect 105 0 121 0;
#X connect 106 0 122 0;
#X connect 107 0 123 0;
#X connect 108 0 124 0;
#X connect 109 0 125 0;
#X connect 110 0 126 0;
#X connect 111 0 127 0;
#X connect 112 0 128 0;
#X connect 113 0 129 0;
#X connect 117 0 130 0;
#X connect 118 0 131 0;
#X connect 119 0 132 0;
#X connect 121 0 96 0;
#X connect 121 0 134 0;
#X connect 122 0 97 0;
#X connect 123 0 98 0;
#X connect 124 0 99 0;
#X connect 125 0 100 0;
#X connect 126 0 101 0;
#X connect 127 0 102 0;
#X connect 128 0 103 0;
#X connect 129 0 104 0;
#X connect 130 0 114 0;
#X connect 131 0 115 0;
#X connect 132 0 116 0;
#X connect 135 0 136 0;
#X connect 135 0 137 0;
#X connect 135 0 138 0;
#X connect 135 0 139 0;
#X connect 135 0 140 0;
#X connect 135 0 141 0;
#X connect 135 0 142 0;
#X connect 135 0 143 0;
#X connect 135 0 144 0;
#X connect 135 0 145 0;
#X connect 135 0 146 0;
#X connect 135 0 147 0;
#X connect 136 0 105 0;
#X connect 137 0 106 0;
#X connect 138 0 107 0;
#X connect 139 0 108 0;
#X connect 140 0 109 0;
#X connect 141 0 110 0;
#X connect 142 0 111 0;
#X connect 143 0 112 0;
#X connect 144 0 113 0;
#X connect 145 0 117 0;
#X connect 146 0 118 0;
#X connect 147 0 119 0;
#X connect 148 1 149 0;
#X connect 150 0 1 0;
#X connect 151 0 5 0;
#X connect 152 0 10 0;
#X connect 153 0 11 0;
#X connect 154 0 16 0;
#X connect 155 0 17 0;
#X connect 156 0 20 0;
#X connect 157 0 21 0;
#X connect 157 0 193 0;
#X connect 158 0 29 0;
#X connect 159 0 30 0;
#X connect 160 0 33 0;
#X connect 161 0 34 0;
#X connect 162 0 37 0;
#X connect 163 0 38 0;
#X connect 164 0 41 0;
#X connect 165 0 42 0;
#X connect 166 0 71 0;
#X connect 167 0 72 0;
#X connect 168 0 73 0;
#X connect 169 0 74 0;
#X connect 170 0 75 0;
#X connect 171 0 76 0;
#X connect 172 0 77 0;
#X connect 173 0 78 0;
#X connect 174 0 88 0;
#X connect 175 0 89 0;
#X connect 176 0 90 0;
#X connect 177 0 91 0;
#X connect 178 0 92 0;
#X connect 179 0 93 0;
#X connect 180 0 94 0;
#X connect 181 0 95 0;
#X connect 182 0 80 0;
#X connect 183 0 81 0;
#X connect 184 0 82 0;
#X connect 185 0 83 0;
#X connect 186 0 84 0;
#X connect 187 0 85 0;
#X connect 188 0 86 0;
#X connect 189 0 87 0;
#X connect 192 0 78 0;
#X connect 194 0 0 0;
