#N canvas 233 23 1148 551 10;
#X declare -lib mrpeach;
#X obj 22 -183 unpackOSC;
#X floatatom 113 -147 5 0 0 0 - - -;
#X obj 113 -127 s s1;
#X floatatom 147 -147 5 0 0 0 - - -;
#X obj 147 -127 s s2;
#X floatatom 183 -147 5 0 0 0 - - -;
#X floatatom 217 -147 5 0 0 0 - - -;
#X obj 183 -127 s s3;
#X obj 217 -127 s s4;
#X floatatom 253 -146 5 0 0 0 - - -;
#X floatatom 287 -146 5 0 0 0 - - -;
#X floatatom 323 -146 5 0 0 0 - - -;
#X floatatom 357 -146 5 0 0 0 - - -;
#X obj 253 -126 s s5;
#X obj 287 -126 s s6;
#X obj 323 -126 s s7;
#X obj 357 -126 s s8;
#X floatatom 413 -148 5 0 0 0 - - -;
#X floatatom 447 -148 5 0 0 0 - - -;
#X floatatom 483 -148 5 0 0 0 - - -;
#X floatatom 517 -148 5 0 0 0 - - -;
#X floatatom 553 -147 5 0 0 0 - - -;
#X floatatom 587 -147 5 0 0 0 - - -;
#X floatatom 623 -147 5 0 0 0 - - -;
#X floatatom 657 -147 5 0 0 0 - - -;
#X obj 413 -128 s k1;
#X obj 447 -128 s k2;
#X obj 483 -128 s k3;
#X obj 517 -128 s k4;
#X obj 553 -127 s k5;
#X obj 587 -127 s k6;
#X obj 623 -127 s k7;
#X obj 657 -127 s k8;
#X text 118 -223 <-- Change the IP Address to your laptop's IP address
;
#X obj -243 -107 s b2;
#X obj -211 -107 s b3;
#X obj -180 -107 s b4;
#X obj -147 -107 s b5;
#X obj -115 -107 s b6;
#X obj -82 -108 s b7;
#X obj -49 -108 s b8;
#X text 62 -169 SLIDERS;
#X text 374 -167 KNOBS;
#X text -286 -156 BUTTONS;
#X obj -275 -106 s b1;
#X obj 113 -168 routeOSC /s1 /s2 /s3 /s4 /s5 /s6 /s7 /s8;
#X obj -238 -163 routeOSC /b1 /b2 /b3 /b4 /b5 /b6 /b7 /b8;
#X obj -260 -34 s b9;
#X obj -226 -35 s b10;
#X obj -194 -35 s b11;
#X obj -163 -35 s b12;
#X obj 413 -169 routeOSC /k1 /k2 /k3 /k4 /k5 /k6 /k7 /k8;
#X obj 398 -283 loadbang;
#X msg -165 -234 1;
#X obj -46 -267 delay 100;
#X obj -288 -85 s but1;
#X obj -243 -85 s but2;
#X obj -198 -85 s but3;
#X obj -153 -85 s but4;
#X obj -108 -85 s but5;
#X obj -67 -83 s but6;
#X obj -22 -83 s but7;
#X obj 23 -83 s but8;
#X obj 347 -88 s vol;
#X obj 280 -89 s crushvol;
#X obj 219 -89 s verbvol;
#X obj 543 -68 s opitch;
#X obj 403 -69 s ospeed;
#X obj 543 -92 maxlib/scale 0 1 1 250;
#X obj 403 -93 maxlib/scale 0 1 1 200;
#X msg 505 -20 0 \$1;
#X msg 558 -20 1 \$1;
#X msg 611 -20 2 \$1;
#X obj 505 5 s crush_params;
#X msg 579 57 0 \$1;
#X msg 617 57 1 \$1;
#X msg 657 57 2 \$1;
#X obj 579 84 s verb_params;
#X obj 691 -264 loadbang;
#X obj 691 -244 delay 2000;
#X msg 691 -224 100;
#X obj 691 -204 s opitch;
#X obj 747 -204 s ospeed;
#X obj 600 -224 import mrpeach;
#X obj -265 -130 bng 15 250 50 0 empty empty empty 17 7 0 10 -262144
-1 -1;
#X obj -241 -131 bng 15 250 50 0 empty empty empty 17 7 0 10 -262144
-1 -1;
#X obj -212 -132 bng 15 250 50 0 empty empty empty 17 7 0 10 -262144
-1 -1;
#X obj -183 -132 bng 15 250 50 0 empty empty empty 17 7 0 10 -262144
-1 -1;
#X obj -150 -131 bng 15 250 50 0 empty empty empty 17 7 0 10 -262144
-1 -1;
#X obj -117 -131 bng 15 250 50 0 empty empty empty 17 7 0 10 -262144
-1 -1;
#X obj -84 -130 bng 15 250 50 0 empty empty empty 17 7 0 10 -262144
-1 -1;
#X obj -51 -130 bng 15 250 50 0 empty empty empty 17 7 0 10 -262144
-1 -1;
#X obj 23 -207 udpreceive 3001;
#X obj -272 -60 routeOSC /b9 /b10 /b11 /b12;
#X obj 395 -310 bng 15 250 50 0 empty empty empty 17 7 0 10 -262144
-1 -1;
#X connect 0 0 45 0;
#X connect 0 0 46 0;
#X connect 0 0 51 0;
#X connect 0 0 93 0;
#X connect 1 0 2 0;
#X connect 3 0 4 0;
#X connect 5 0 7 0;
#X connect 6 0 8 0;
#X connect 9 0 13 0;
#X connect 10 0 14 0;
#X connect 10 0 65 0;
#X connect 11 0 15 0;
#X connect 11 0 64 0;
#X connect 12 0 16 0;
#X connect 12 0 63 0;
#X connect 17 0 25 0;
#X connect 17 0 69 0;
#X connect 18 0 26 0;
#X connect 18 0 68 0;
#X connect 19 0 27 0;
#X connect 19 0 70 0;
#X connect 20 0 28 0;
#X connect 20 0 71 0;
#X connect 21 0 29 0;
#X connect 21 0 72 0;
#X connect 22 0 30 0;
#X connect 22 0 74 0;
#X connect 23 0 31 0;
#X connect 23 0 75 0;
#X connect 24 0 32 0;
#X connect 24 0 76 0;
#X connect 45 0 1 0;
#X connect 45 1 3 0;
#X connect 45 2 5 0;
#X connect 45 3 6 0;
#X connect 45 4 9 0;
#X connect 45 5 10 0;
#X connect 45 6 11 0;
#X connect 45 7 12 0;
#X connect 46 0 55 0;
#X connect 46 0 84 0;
#X connect 46 1 56 0;
#X connect 46 1 85 0;
#X connect 46 2 57 0;
#X connect 46 2 86 0;
#X connect 46 3 58 0;
#X connect 46 3 87 0;
#X connect 46 4 59 0;
#X connect 46 4 88 0;
#X connect 46 5 60 0;
#X connect 46 5 89 0;
#X connect 46 6 61 0;
#X connect 46 6 90 0;
#X connect 46 7 62 0;
#X connect 46 7 91 0;
#X connect 51 0 17 0;
#X connect 51 1 18 0;
#X connect 51 2 19 0;
#X connect 51 3 20 0;
#X connect 51 4 21 0;
#X connect 51 5 22 0;
#X connect 51 6 23 0;
#X connect 51 7 24 0;
#X connect 52 0 25 0;
#X connect 52 0 17 0;
#X connect 52 0 18 0;
#X connect 52 0 19 0;
#X connect 52 0 20 0;
#X connect 52 0 21 0;
#X connect 52 0 22 0;
#X connect 52 0 23 0;
#X connect 52 0 24 0;
#X connect 52 0 1 0;
#X connect 52 0 3 0;
#X connect 52 0 5 0;
#X connect 52 0 6 0;
#X connect 52 0 9 0;
#X connect 52 0 10 0;
#X connect 52 0 11 0;
#X connect 52 0 12 0;
#X connect 52 0 54 0;
#X connect 53 0 44 0;
#X connect 53 0 34 0;
#X connect 53 0 35 0;
#X connect 53 0 36 0;
#X connect 54 0 53 0;
#X connect 68 0 66 0;
#X connect 69 0 67 0;
#X connect 70 0 73 0;
#X connect 71 0 73 0;
#X connect 72 0 73 0;
#X connect 74 0 77 0;
#X connect 75 0 77 0;
#X connect 76 0 77 0;
#X connect 78 0 79 0;
#X connect 79 0 80 0;
#X connect 80 0 81 0;
#X connect 80 0 82 0;
#X connect 92 0 0 0;
#X connect 93 0 47 0;
#X connect 93 1 48 0;
#X connect 93 2 49 0;
#X connect 93 3 50 0;
#X connect 94 0 52 0;
