#N canvas 0 22 1280 631 10;
#X declare -lib mrpeach;
#X floatatom -34 -84 5 0 0 0 - - -;
#X floatatom 92 -83 5 0 0 0 - - -;
#X floatatom 216 -83 5 0 0 0 - - -;
#X floatatom 340 -83 5 0 0 0 - - -;
#X floatatom 466 -84 5 0 0 0 - - -;
#X floatatom 592 -84 5 0 0 0 - - -;
#X floatatom 718 -84 5 0 0 0 - - -;
#X floatatom 843 -83 5 0 0 0 - - -;
#X obj -33 -15 s but1;
#X obj -34 -40 sel 0;
#X obj 92 -40 sel 0;
#X obj 92 -19 s but2;
#X obj 217 -41 sel 0;
#X obj 253 -15 s but3;
#X obj 340 -39 sel 0;
#X obj 341 -18 s but4;
#X obj 466 -39 sel 0;
#X obj 592 -39 sel 0;
#X obj 467 -18 s but5;
#X obj 593 -18 s but6;
#X obj 718 -39 sel 0;
#X obj 843 -39 sel 0;
#X obj 719 -18 s but7;
#X obj 844 -18 s but8;
#X obj -59 -338 loadbang;
#X text 47 -255 BUTTONS;
#X obj -34 -63 change;
#X obj 92 -63 change;
#X obj 217 -64 change;
#X obj 340 -63 change;
#X obj 466 -63 change;
#X obj 592 -63 change;
#X obj 718 -63 change;
#X obj 843 -63 change;
#X floatatom 969 -84 5 0 0 0 - - -;
#X floatatom 1094 -83 5 0 0 0 - - -;
#X obj 969 -39 sel 0;
#X obj 1094 -39 sel 0;
#X obj 969 -63 change;
#X obj 1094 -63 change;
#X obj 970 -18 s but9;
#X obj 1095 -18 s but10;
#N canvas 575 121 271 208 startup 0;
#X obj 31 -1363 loadbang;
#X msg 31 -1317 \; pd dsp 1 \;;
#X obj 100 -1340 s lb;
#X obj 31 -1340 delay 2000;
#X connect 0 0 2 0;
#X connect 0 0 3 0;
#X connect 3 0 1 0;
#X restore 129 -283 pd startup;
#X floatatom 1222 -83 5 0 0 0 - - -;
#X obj 1222 -39 sel 0;
#X obj 1222 -63 change;
#X obj 1223 -18 s but11;
#X msg 32 108 setup_wiringPi;
#X obj -18 194 unpack f f f f f f f f;
#X floatatom -19 223 5 0 0 0 - - -;
#X floatatom -19 272 5 0 0 0 - - -;
#X obj -19 245 / 1023;
#X floatatom 30 223 5 0 0 0 - - -;
#X floatatom 30 272 5 0 0 0 - - -;
#X obj 30 245 / 1023;
#X floatatom 78 222 5 0 0 0 - - -;
#X floatatom 78 271 5 0 0 0 - - -;
#X obj 79 245 / 1023;
#X floatatom 130 223 5 0 0 0 - - -;
#X floatatom 130 272 5 0 0 0 - - -;
#X obj 130 245 / 1023;
#X floatatom 179 223 5 0 0 0 - - -;
#X floatatom 179 272 5 0 0 0 - - -;
#X obj 179 245 / 1023;
#X floatatom 227 222 5 0 0 0 - - -;
#X floatatom 227 271 5 0 0 0 - - -;
#X obj 227 244 / 1023;
#X floatatom 279 224 5 0 0 0 - - -;
#X floatatom 279 273 5 0 0 0 - - -;
#X obj 279 246 / 1023;
#X floatatom 327 223 5 0 0 0 - - -;
#X floatatom 327 272 5 0 0 0 - - -;
#X obj 327 245 / 1023;
#X obj -17 166 wiringPi_mcp3008 0 8;
#X obj 813 138 unpack f f f f f f f f;
#X floatatom 423 222 5 0 0 0 - - -;
#X floatatom 423 271 5 0 0 0 - - -;
#X obj 423 244 / 1023;
#X floatatom 559 253 5 0 0 0 - - -;
#X floatatom 559 302 5 0 0 0 - - -;
#X obj 559 275 / 1023;
#X floatatom 677 274 5 0 0 0 - - -;
#X floatatom 677 323 5 0 0 0 - - -;
#X obj 677 296 / 1023;
#X floatatom 792 295 5 0 0 0 - - -;
#X floatatom 792 344 5 0 0 0 - - -;
#X obj 792 317 / 1023;
#X floatatom 906 316 5 0 0 0 - - -;
#X floatatom 906 365 5 0 0 0 - - -;
#X obj 906 338 / 1023;
#X floatatom 994 225 5 0 0 0 - - -;
#X floatatom 994 274 5 0 0 0 - - -;
#X obj 994 247 / 1023;
#X floatatom 1143 225 5 0 0 0 - - -;
#X floatatom 1143 274 5 0 0 0 - - -;
#X obj 1143 247 / 1023;
#X floatatom 1228 242 5 0 0 0 - - -;
#X floatatom 1228 291 5 0 0 0 - - -;
#X obj 1228 264 / 1023;
#X obj 814 110 wiringPi_mcp3008 1 8;
#X obj -34 -106 wiringPi_gpio 15 1 1;
#X obj 92 -106 wiringPi_gpio 16 1 1;
#X obj 216 -106 wiringPi_gpio 26 1 1;
#X obj 340 -106 wiringPi_gpio 27 1 1;
#X obj 467 -108 wiringPi_gpio 8 1 1;
#X obj 588 -104 wiringPi_gpio 9 1 1;
#X obj 720 -107 wiringPi_gpio 7 1 1;
#X obj 843 -106 wiringPi_gpio 25 1 1;
#X obj 969 -106 wiringPi_gpio 24 1 1;
#X obj 1094 -106 wiringPi_gpio 23 1 1;
#X obj 1222 -106 wiringPi_gpio 22 1 1;
#X floatatom 1361 -79 5 0 0 0 - - -;
#X obj 1361 -35 sel 0;
#X obj 1361 -59 change;
#X obj 1362 -14 s but12;
#X obj 1361 -102 wiringPi_gpio 21 1 1;
#X obj -38 47 s data;
#X obj 84 43 s data;
#X obj 176 34 s data;
#X obj 332 51 s data;
#X obj 462 48 s data;
#X obj 586 48 s data;
#X obj 716 43 s data;
#X obj 843 45 s data;
#X obj 960 46 s data;
#X obj -38 25 prepend /b1;
#X obj 84 21 prepend /b2;
#X obj 176 12 prepend /b3;
#X obj 332 29 prepend /b4;
#X obj 462 26 prepend /b5;
#X obj 586 26 prepend /b6;
#X obj 716 21 prepend /b7;
#X obj 842 23 prepend /b8;
#X obj 960 24 prepend /b9;
#X obj -39 5 b;
#X obj 84 1 b;
#X obj 176 -8 b;
#X obj 332 9 b;
#X obj 462 6 b;
#X obj 586 6 b;
#X obj 716 1 b;
#X obj 842 3 b;
#X obj 960 4 b;
#X obj 1089 46 s data;
#X obj 1217 43 s data;
#X obj 1358 47 s data;
#X obj 1089 4 b;
#X obj 1217 1 b;
#X obj 1358 5 b;
#X obj 1089 24 prepend /b10;
#X obj 1217 21 prepend /b11;
#X obj 1358 25 prepend /b12;
#X obj 230 -245 udpsend;
#X obj 230 -266 packOSC;
#X obj 33 -353 import mrpeach;
#X obj 230 -286 r data;
#X obj -199 318 s data;
#X obj -126 318 s data;
#X obj -53 318 s data;
#X obj 20 318 s data;
#X obj 94 318 s data;
#X obj 167 318 s data;
#X obj 240 318 s data;
#X obj 313 318 s data;
#X obj -199 296 prepend /k1;
#X obj -126 296 prepend /k2;
#X obj -53 296 prepend /k3;
#X obj 20 296 prepend /k4;
#X obj 94 296 prepend /k5;
#X obj 167 296 prepend /k6;
#X obj 240 296 prepend /k7;
#X obj 313 296 prepend /k8;
#X obj 427 340 prepend /s1;
#X obj 427 362 s data;
#X msg 345 -319 connect 192.168.105.105 3001;
#X obj 13 -261 tgl 15 0 empty empty empty 17 7 0 10 -262144 -1 -1 1
1;
#X obj 13 -177 delay 5;
#X obj 56 -140 delay 5;
#X obj 35 -232 metro 100;
#X obj -31 -301 delay 1000;
#X obj 388 297 maxlib/scale 990 1023 0 1;
#X obj 388 319 moses 0;
#X floatatom 440 319 5 0 0 0 - - -;
#X obj 544 385 s data;
#X obj 505 320 maxlib/scale 990 1023 0 1;
#X obj 505 342 moses 0;
#X floatatom 557 342 5 0 0 0 - - -;
#X obj 664 408 s data;
#X obj 625 343 maxlib/scale 990 1023 0 1;
#X obj 625 365 moses 0;
#X floatatom 677 365 5 0 0 0 - - -;
#X obj 781 430 s data;
#X obj 742 365 maxlib/scale 990 1023 0 1;
#X obj 742 387 moses 0;
#X floatatom 794 387 5 0 0 0 - - -;
#X obj 898 452 s data;
#X obj 859 387 maxlib/scale 990 1023 0 1;
#X obj 859 409 moses 0;
#X floatatom 911 409 5 0 0 0 - - -;
#X obj 1030 365 s data;
#X obj 991 300 maxlib/scale 990 1023 0 1;
#X obj 991 322 moses 0;
#X floatatom 1043 322 5 0 0 0 - - -;
#X obj 1152 386 s data;
#X obj 1113 321 maxlib/scale 990 1023 0 1;
#X obj 1113 343 moses 0;
#X floatatom 1165 343 5 0 0 0 - - -;
#X obj 1269 406 s data;
#X obj 1230 341 maxlib/scale 990 1023 0 1;
#X obj 1230 363 moses 0;
#X floatatom 1282 363 5 0 0 0 - - -;
#X obj 544 363 prepend /s2;
#X obj 664 386 prepend /s3;
#X obj 781 408 prepend /s4;
#X obj 898 430 prepend /s5;
#X obj 1030 343 prepend /s6;
#X obj 1152 364 prepend /s7;
#X obj 1269 384 prepend /s8;
#X msg 349 -290 connect 10.0.1.8 3001;
#X obj 218 71 random 6;
#X obj 220 94 moses 5;
#X obj 222 119 moses 4;
#X obj 224 170 moses 2;
#X obj 225 144 moses 3;
#X obj 216 194 moses 1;
#X obj 277 97 bng 15 250 50 0 empty empty empty 17 7 0 10 -262144 -1
-1;
#X obj 275 121 bng 15 250 50 0 empty empty empty 17 7 0 10 -262144
-1 -1;
#X obj 276 147 bng 15 250 50 0 empty empty empty 17 7 0 10 -262144
-1 -1;
#X obj 276 171 bng 15 250 50 0 empty empty empty 17 7 0 10 -262144
-1 -1;
#X obj 273 194 bng 15 250 50 0 empty empty empty 17 7 0 10 -262144
-1 -1;
#X obj 191 189 bng 15 250 50 0 empty empty empty 17 7 0 10 -262144
-1 -1;
#X obj 88 -312 delay 1500;
#X msg 337 -347 connect 10.40.18.0 3001;
#X connect 0 0 26 0;
#X connect 1 0 27 0;
#X connect 2 0 28 0;
#X connect 3 0 29 0;
#X connect 4 0 30 0;
#X connect 5 0 31 0;
#X connect 6 0 32 0;
#X connect 7 0 33 0;
#X connect 9 0 8 0;
#X connect 9 0 134 0;
#X connect 10 0 11 0;
#X connect 10 0 135 0;
#X connect 12 0 13 0;
#X connect 12 0 219 0;
#X connect 14 0 15 0;
#X connect 14 0 137 0;
#X connect 16 0 18 0;
#X connect 16 0 138 0;
#X connect 17 0 19 0;
#X connect 17 0 139 0;
#X connect 20 0 22 0;
#X connect 20 0 140 0;
#X connect 21 0 23 0;
#X connect 21 0 141 0;
#X connect 24 0 179 0;
#X connect 24 0 231 0;
#X connect 26 0 9 0;
#X connect 27 0 10 0;
#X connect 28 0 12 0;
#X connect 29 0 14 0;
#X connect 30 0 16 0;
#X connect 31 0 17 0;
#X connect 32 0 20 0;
#X connect 33 0 21 0;
#X connect 34 0 38 0;
#X connect 35 0 39 0;
#X connect 36 0 40 0;
#X connect 36 0 142 0;
#X connect 37 0 41 0;
#X connect 37 0 146 0;
#X connect 38 0 36 0;
#X connect 39 0 37 0;
#X connect 43 0 45 0;
#X connect 44 0 46 0;
#X connect 44 0 147 0;
#X connect 45 0 44 0;
#X connect 47 0 73 0;
#X connect 47 0 99 0;
#X connect 48 0 49 0;
#X connect 48 1 52 0;
#X connect 48 2 55 0;
#X connect 48 3 58 0;
#X connect 48 4 61 0;
#X connect 48 5 64 0;
#X connect 48 6 67 0;
#X connect 48 7 70 0;
#X connect 49 0 51 0;
#X connect 51 0 50 0;
#X connect 51 0 164 0;
#X connect 52 0 54 0;
#X connect 54 0 53 0;
#X connect 54 0 165 0;
#X connect 55 0 57 0;
#X connect 57 0 56 0;
#X connect 57 0 166 0;
#X connect 58 0 60 0;
#X connect 60 0 59 0;
#X connect 60 0 167 0;
#X connect 61 0 63 0;
#X connect 63 0 62 0;
#X connect 63 0 168 0;
#X connect 64 0 66 0;
#X connect 66 0 65 0;
#X connect 66 0 169 0;
#X connect 67 0 69 0;
#X connect 69 0 68 0;
#X connect 69 0 170 0;
#X connect 70 0 72 0;
#X connect 72 0 71 0;
#X connect 72 0 171 0;
#X connect 73 0 48 0;
#X connect 74 0 75 0;
#X connect 74 1 78 0;
#X connect 74 2 81 0;
#X connect 74 3 84 0;
#X connect 74 4 87 0;
#X connect 74 5 90 0;
#X connect 74 6 93 0;
#X connect 74 7 96 0;
#X connect 75 0 77 0;
#X connect 75 0 180 0;
#X connect 77 0 76 0;
#X connect 78 0 80 0;
#X connect 78 0 184 0;
#X connect 80 0 79 0;
#X connect 81 0 83 0;
#X connect 81 0 188 0;
#X connect 83 0 82 0;
#X connect 84 0 86 0;
#X connect 84 0 192 0;
#X connect 86 0 85 0;
#X connect 87 0 89 0;
#X connect 87 0 196 0;
#X connect 89 0 88 0;
#X connect 90 0 92 0;
#X connect 90 0 200 0;
#X connect 92 0 91 0;
#X connect 93 0 95 0;
#X connect 93 0 204 0;
#X connect 95 0 94 0;
#X connect 96 0 98 0;
#X connect 96 0 208 0;
#X connect 98 0 97 0;
#X connect 99 0 74 0;
#X connect 100 0 0 0;
#X connect 101 0 1 0;
#X connect 102 0 2 0;
#X connect 103 0 3 0;
#X connect 104 0 4 0;
#X connect 105 0 5 0;
#X connect 106 0 6 0;
#X connect 107 0 7 0;
#X connect 108 0 34 0;
#X connect 109 0 35 0;
#X connect 110 0 43 0;
#X connect 111 0 113 0;
#X connect 112 0 114 0;
#X connect 112 0 148 0;
#X connect 113 0 112 0;
#X connect 115 0 111 0;
#X connect 125 0 116 0;
#X connect 126 0 117 0;
#X connect 127 0 118 0;
#X connect 128 0 119 0;
#X connect 129 0 120 0;
#X connect 130 0 121 0;
#X connect 131 0 122 0;
#X connect 132 0 123 0;
#X connect 133 0 124 0;
#X connect 134 0 125 0;
#X connect 135 0 126 0;
#X connect 136 0 127 0;
#X connect 137 0 128 0;
#X connect 138 0 129 0;
#X connect 139 0 130 0;
#X connect 140 0 131 0;
#X connect 141 0 132 0;
#X connect 142 0 133 0;
#X connect 146 0 149 0;
#X connect 147 0 150 0;
#X connect 148 0 151 0;
#X connect 149 0 143 0;
#X connect 150 0 144 0;
#X connect 151 0 145 0;
#X connect 153 0 152 0;
#X connect 155 0 153 0;
#X connect 164 0 156 0;
#X connect 165 0 157 0;
#X connect 166 0 158 0;
#X connect 167 0 159 0;
#X connect 168 0 160 0;
#X connect 169 0 161 0;
#X connect 170 0 162 0;
#X connect 171 0 163 0;
#X connect 172 0 173 0;
#X connect 174 0 152 0;
#X connect 175 0 178 0;
#X connect 176 0 73 0;
#X connect 177 0 99 0;
#X connect 178 0 100 0;
#X connect 178 0 102 0;
#X connect 178 0 103 0;
#X connect 178 0 107 0;
#X connect 178 0 108 0;
#X connect 178 0 110 0;
#X connect 178 0 115 0;
#X connect 178 0 101 0;
#X connect 178 0 105 0;
#X connect 178 0 109 0;
#X connect 178 0 106 0;
#X connect 178 0 176 0;
#X connect 178 0 177 0;
#X connect 179 0 175 0;
#X connect 179 0 47 0;
#X connect 180 0 181 0;
#X connect 181 1 182 0;
#X connect 181 1 172 0;
#X connect 184 0 185 0;
#X connect 185 1 186 0;
#X connect 185 1 211 0;
#X connect 188 0 189 0;
#X connect 189 1 190 0;
#X connect 189 1 212 0;
#X connect 192 0 193 0;
#X connect 193 1 194 0;
#X connect 193 1 213 0;
#X connect 196 0 197 0;
#X connect 197 1 198 0;
#X connect 197 1 214 0;
#X connect 200 0 201 0;
#X connect 201 1 202 0;
#X connect 201 1 215 0;
#X connect 204 0 205 0;
#X connect 205 1 206 0;
#X connect 205 1 216 0;
#X connect 208 0 209 0;
#X connect 209 1 210 0;
#X connect 209 1 217 0;
#X connect 211 0 183 0;
#X connect 212 0 187 0;
#X connect 213 0 191 0;
#X connect 214 0 195 0;
#X connect 215 0 199 0;
#X connect 216 0 203 0;
#X connect 217 0 207 0;
#X connect 218 0 152 0;
#X connect 219 0 220 0;
#X connect 220 0 221 0;
#X connect 220 1 141 0;
#X connect 220 1 225 0;
#X connect 221 0 223 0;
#X connect 221 1 140 0;
#X connect 221 1 226 0;
#X connect 222 0 224 0;
#X connect 222 1 138 0;
#X connect 222 1 228 0;
#X connect 223 0 222 0;
#X connect 223 1 139 0;
#X connect 223 1 227 0;
#X connect 224 0 136 0;
#X connect 224 0 230 0;
#X connect 224 1 137 0;
#X connect 224 1 229 0;
#X connect 231 0 232 0;
#X connect 232 0 152 0;
