#N canvas 232 23 1065 677 10;
#X declare -lib mrpeach;
#N canvas 87 76 548 407 trueRandom100 0;
#X obj -470 -434 outlet;
#X obj -439 -736 time;
#X obj -441 -693 +;
#X obj -431 -663 +;
#X obj -447 -617 +;
#X obj -439 -798 loadbang;
#X obj -439 -767 t b b;
#X obj -448 -585 pack s f;
#X msg -486 -610 seed;
#X msg -467 -532 \$1 \$2;
#X obj -511 -507 bng 15 250 50 0 empty empty empty 17 7 0 10 -262144
-1 -1;
#X obj -467 -484 random 99;
#X obj -469 -459 + 1;
#X obj -509 -434 print;
#X connect 1 0 2 0;
#X connect 1 1 3 0;
#X connect 1 2 2 1;
#X connect 1 3 3 1;
#X connect 2 0 4 0;
#X connect 3 0 4 1;
#X connect 4 0 7 1;
#X connect 5 0 6 0;
#X connect 6 0 8 0;
#X connect 6 1 1 0;
#X connect 7 0 9 0;
#X connect 8 0 7 0;
#X connect 9 0 10 0;
#X connect 9 0 11 0;
#X connect 10 0 11 0;
#X connect 11 0 12 0;
#X connect 12 0 0 0;
#X connect 12 0 13 0;
#X restore 227 230 pd trueRandom100;
#X obj -313 10 import mrpeach;
#X obj -285 58 loadbang;
#X msg -285 143 \; pd dsp 1 \;;
#X obj -316 86 s lb;
#X obj -285 115 delay 2000;
#X obj -200 516 dac~;
#X obj -415 184 smp-pvoc1;
#X msg -416 158 0;
#X obj -416 138 r start;
#X obj -72 177 r verb_params;
#X msg -364 161 1;
#X obj -364 138 r stop;
#N canvas 541 77 731 187 jumpy 1;
#X obj 120 -989 s filejumper;
#X obj 11 -1150 r but1;
#X msg 11 -1122 0;
#X obj 58 -1150 r but2;
#X obj 105 -1150 r but3;
#X obj 149 -1150 r but4;
#X obj 195 -1150 r but5;
#X obj 244 -1150 r but6;
#X obj 293 -1150 r but7;
#X obj 341 -1150 r but8;
#X msg 58 -1122 0.125;
#X msg 105 -1122 0.25;
#X msg 149 -1122 0.375;
#X msg 195 -1122 0.5;
#X msg 244 -1122 0.625;
#X msg 293 -1122 0.75;
#X msg 341 -1122 0.875;
#X floatatom 104 -1063 5 0 0 0 - - -;
#N canvas 87 76 548 407 trueRandom100 0;
#X obj -470 -434 outlet;
#X obj -439 -736 time;
#X obj -441 -693 +;
#X obj -431 -663 +;
#X obj -447 -617 +;
#X obj -439 -798 loadbang;
#X obj -439 -767 t b b;
#X obj -448 -585 pack s f;
#X msg -486 -610 seed;
#X msg -467 -532 \$1 \$2;
#X obj -511 -507 bng 15 250 50 0 empty empty empty 17 7 0 10 -262144
-1 -1;
#X obj -467 -484 random 99;
#X obj -469 -459 + 1;
#X obj -509 -434 print;
#X obj -493 -807 inlet;
#X connect 1 0 2 0;
#X connect 1 1 3 0;
#X connect 1 2 2 1;
#X connect 1 3 3 1;
#X connect 2 0 4 0;
#X connect 3 0 4 1;
#X connect 4 0 7 1;
#X connect 5 0 6 0;
#X connect 6 0 8 0;
#X connect 6 1 1 0;
#X connect 7 0 9 0;
#X connect 8 0 7 0;
#X connect 9 0 10 0;
#X connect 9 0 11 0;
#X connect 10 0 11 0;
#X connect 11 0 12 0;
#X connect 12 0 0 0;
#X connect 12 0 13 0;
#X connect 14 0 6 0;
#X restore 154 -1063 pd trueRandom100;
#X floatatom 183 -1010 5 0 0 0 - - -;
#X obj 120 -1015 +;
#X obj 151 -1034 * 0.001;
#X obj 410 -1129 bng 15 250 50 0 empty empty empty 17 7 0 10 -262144
-1 -1;
#X obj 37 37;
#X connect 1 0 2 0;
#X connect 2 0 17 0;
#X connect 3 0 10 0;
#X connect 4 0 11 0;
#X connect 5 0 12 0;
#X connect 6 0 13 0;
#X connect 7 0 14 0;
#X connect 8 0 15 0;
#X connect 9 0 16 0;
#X connect 10 0 17 0;
#X connect 11 0 17 0;
#X connect 12 0 17 0;
#X connect 13 0 17 0;
#X connect 14 0 17 0;
#X connect 15 0 17 0;
#X connect 16 0 17 0;
#X connect 17 0 18 0;
#X connect 17 0 20 0;
#X connect 18 0 21 0;
#X connect 20 0 0 0;
#X connect 20 0 19 0;
#X connect 21 0 20 1;
#X connect 22 0 13 0;
#X restore -195 14 pd jumpy;
#X obj 56 227 pack 0 50;
#X obj 56 249 line~;
#X obj -129 273 *~;
#X obj -167 355 +~;
#X obj 56 205 r verbvol;
#X obj -129 200 mono-pureverb4;
#N canvas 516 76 699 572 grains 1;
#X obj 42 417 tabread~ insoundL;
#X obj 174 418 tabread~ insoundR;
#X obj 212 217 phasor~;
#X floatatom 267 74 5 0 0 0 - - -;
#X obj 213 326 expr~ tanh($v1*$v2);
#X obj 213 304 cos~;
#X obj 213 285 *~ 0.5;
#X obj 213 264 -~ 0.5;
#X obj 64 310 *~;
#X obj 65 334 +~;
#X obj 175 466 *~;
#X floatatom 145 286 5 0 0 0 - - -;
#X obj 298 192 *;
#X obj 298 233 line~;
#X obj 298 256 samphold~;
#X obj 362 66 line;
#X obj 362 88 t f b;
#X obj 389 120 random 127;
#X obj 389 141 / 127;
#X obj 362 166 +;
#X obj 423 85 hsl 128 15 0 127 0 0 empty empty empty -2 -8 0 10 -262144
-1 -1 0 1;
#X obj 298 212 clip 0 1;
#X msg 267 114 1000;
#X obj 267 143 /;
#X obj 267 92 t b f;
#X obj 81 197 * 44.1;
#X msg 362 43 0 \, 1 5000;
#X obj 342 303 sig~ 2;
#X obj 42 466 *~;
#X obj 64 356 clip~ 0 1;
#X obj 417 419 samphold~;
#X obj 418 321 noise~;
#X obj 417 441 *~ -1;
#X obj 418 390 *~;
#X obj 416 469 +~ 1;
#X obj 174 571 *~;
#X obj 42 571 *~;
#X obj 417 346 lop~;
#X obj 115 334 r len;
#X obj 343 192 r len;
#X obj 314 156 r len;
#X obj 78 247 * 1;
#X obj 78 223 f;
#X obj 133 232 t b f;
#X floatatom 133 212 5 0 0 0 - - -;
#X obj 454 63 r grainscatter;
#X obj 362 24 r grainread;
#X obj 43 624 outlet~;
#X obj 173 622 outlet~;
#X obj 152 188 r grainmultiply;
#X obj 342 282 r grainfade;
#X obj 390 521 *~;
#X obj 474 320 * 20000;
#X obj 489 358 * -1;
#X obj 489 385 + 1;
#X obj 433 522 *~;
#X obj 215 481 *~;
#X obj 258 482 *~;
#X obj 214 445 sig~ 1;
#X msg 574 86 seed \$1;
#N canvas 0 22 879 504 seeder 0;
#X obj 363 99 adc~;
#X obj 318 213 +~;
#X obj 319 100 noise~;
#X obj 319 241 env~;
#X obj 318 142 *~;
#X obj 362 141 *~ 200;
#X obj 319 171 *~ 0.01;
#X obj 293 265 f;
#X obj 345 41 inlet;
#X obj 314 78 t b b b b;
#X obj 496 192 switch~;
#X msg 453 125 1;
#X obj 295 316 outlet;
#X msg 427 158 0;
#X connect 0 0 5 0;
#X connect 0 1 5 0;
#X connect 1 0 3 0;
#X connect 2 0 4 1;
#X connect 2 0 4 0;
#X connect 3 0 7 1;
#X connect 4 0 6 0;
#X connect 5 0 1 1;
#X connect 6 0 1 0;
#X connect 7 0 12 0;
#X connect 8 0 9 0;
#X connect 9 1 13 0;
#X connect 9 2 7 0;
#X connect 9 3 11 0;
#X connect 11 0 10 0;
#X connect 13 0 10 0;
#X restore 574 66 pd seeder;
#X obj 574 41 inlet;
#X obj 212 113 sig~;
#X obj 23 48 noise~;
#X obj 23 72 *~;
#X obj 23 123 samphold~;
#X obj 212 153 +~;
#X obj 24 147 delwrite~ \$0-grainblockdel;
#X obj 26 170 delread~ \$0-grainblockdel;
#X floatatom 78 51 5 0 0 0 - - -;
#N canvas 0 22 876 611 delayer 0;
#X obj 199 450 *~;
#X msg 235 400 \$1 2;
#X obj 199 132 line~ 120;
#X obj 199 248 +~;
#X obj 299 77 noise~;
#X obj 199 111 r feedbackpos;
#X obj 235 378 r feedbackamount;
#X obj 161 60 inlet~;
#X obj 199 495 outlet~;
#X obj 469 460 *~;
#X msg 505 400 \$1 2;
#X obj 469 132 line~ 120;
#X obj 469 248 +~;
#X obj 469 111 r feedbackpos;
#X obj 505 378 r feedbackamount;
#X obj 589 21 r feedbackjitter;
#X obj 431 60 inlet~;
#X obj 469 505 outlet~;
#X obj 470 354 vd~ \$0-graindelR 200;
#X obj 505 423 line~;
#X obj 235 423 line~;
#X obj 299 100 *~;
#X obj 300 178 samphold~;
#X obj 571 104 noise~;
#X obj 571 127 *~;
#X obj 572 169 samphold~;
#X obj 160 308 delwrite~ \$0-graindelL 500;
#X obj 201 354 vd~ \$0-graindelL 200;
#X obj 430 309 delwrite~ \$0-graindelR 500;
#X obj 199 277 clip~ 0.02 500;
#X obj 469 277 clip~ 0.02 500;
#N canvas 0 22 450 300 jitterphasor 0;
#X obj 99 164 phasor~ 7;
#X obj 99 66 random 127;
#X obj 99 115 + 0.5;
#X obj 99 92 / 12.7;
#X obj 99 42 metro 10000;
#X obj 99 20 loadbang;
#X obj 99 189 outlet~;
#X connect 0 0 6 0;
#X connect 1 0 3 0;
#X connect 2 0 0 0;
#X connect 3 0 2 0;
#X connect 4 0 1 0;
#X connect 5 0 4 0;
#X restore 316 154 pd jitterphasor;
#N canvas 0 22 450 300 jitterphasor 0;
#X obj 99 164 phasor~ 7;
#X obj 99 66 random 127;
#X obj 99 115 + 0.5;
#X obj 99 92 / 12.7;
#X obj 99 42 metro 10000;
#X obj 99 20 loadbang;
#X obj 99 189 outlet~;
#X connect 0 0 6 0;
#X connect 1 0 3 0;
#X connect 2 0 0 0;
#X connect 3 0 2 0;
#X connect 4 0 1 0;
#X connect 5 0 4 0;
#X restore 599 146 pd jitterphasor;
#X obj 300 201 lop~ 5;
#X obj 572 192 lop~ 5;
#X obj 589 47 sig~;
#X obj 589 68 lop~ 5;
#X obj 572 211 *~;
#X obj 301 221 *~;
#X connect 0 0 8 0;
#X connect 0 0 26 0;
#X connect 1 0 20 0;
#X connect 2 0 3 0;
#X connect 3 0 29 0;
#X connect 4 0 21 0;
#X connect 4 0 21 1;
#X connect 5 0 2 0;
#X connect 6 0 1 0;
#X connect 7 0 26 0;
#X connect 9 0 17 0;
#X connect 9 0 28 0;
#X connect 10 0 19 0;
#X connect 11 0 12 0;
#X connect 12 0 30 0;
#X connect 13 0 11 0;
#X connect 14 0 10 0;
#X connect 15 0 35 0;
#X connect 16 0 28 0;
#X connect 18 0 9 0;
#X connect 19 0 9 1;
#X connect 20 0 0 1;
#X connect 21 0 22 0;
#X connect 22 0 33 0;
#X connect 23 0 24 0;
#X connect 23 0 24 1;
#X connect 24 0 25 0;
#X connect 25 0 34 0;
#X connect 27 0 0 0;
#X connect 29 0 27 0;
#X connect 30 0 18 0;
#X connect 31 0 22 1;
#X connect 32 0 25 1;
#X connect 33 0 38 0;
#X connect 34 0 37 0;
#X connect 35 0 36 0;
#X connect 36 0 37 1;
#X connect 36 0 38 1;
#X connect 37 0 12 1;
#X connect 38 0 3 1;
#X restore 70 598 pd delayer;
#X obj 474 278 r grainspread;
#X obj 39 19 r grainspeedspread;
#X obj 267 49 r grainspeed;
#X obj 119 76 pack 0 50;
#X obj 120 98 line~;
#X obj 87 267 pack 0 50;
#X obj 88 289 line~;
#X connect 0 0 28 0;
#X connect 1 0 10 0;
#X connect 2 0 7 0;
#X connect 2 0 8 0;
#X connect 2 0 14 1;
#X connect 2 0 30 1;
#X connect 2 0 65 1;
#X connect 3 0 24 0;
#X connect 3 0 62 0;
#X connect 4 0 10 1;
#X connect 4 0 28 1;
#X connect 5 0 4 0;
#X connect 6 0 5 0;
#X connect 7 0 6 0;
#X connect 8 0 9 0;
#X connect 9 0 29 0;
#X connect 10 0 35 0;
#X connect 11 0 8 1;
#X connect 12 0 21 0;
#X connect 13 0 14 0;
#X connect 14 0 9 1;
#X connect 15 0 16 0;
#X connect 16 0 19 0;
#X connect 16 1 17 0;
#X connect 17 0 18 0;
#X connect 18 0 19 1;
#X connect 19 0 12 0;
#X connect 20 0 17 1;
#X connect 21 0 13 0;
#X connect 22 0 23 0;
#X connect 23 0 25 0;
#X connect 24 0 22 0;
#X connect 24 1 23 1;
#X connect 25 0 42 0;
#X connect 26 0 15 0;
#X connect 27 0 4 1;
#X connect 28 0 36 0;
#X connect 29 0 0 0;
#X connect 29 0 1 0;
#X connect 30 0 32 0;
#X connect 30 0 51 0;
#X connect 31 0 37 0;
#X connect 32 0 34 0;
#X connect 33 0 30 0;
#X connect 34 0 55 0;
#X connect 35 0 48 0;
#X connect 35 0 70 1;
#X connect 36 0 47 0;
#X connect 36 0 70 0;
#X connect 37 0 33 0;
#X connect 37 0 33 1;
#X connect 38 0 29 2;
#X connect 39 0 21 2;
#X connect 40 0 12 1;
#X connect 41 0 76 0;
#X connect 42 0 41 0;
#X connect 43 0 42 0;
#X connect 43 1 41 1;
#X connect 44 0 43 0;
#X connect 45 0 17 1;
#X connect 46 0 15 0;
#X connect 49 0 43 0;
#X connect 50 0 27 0;
#X connect 51 0 36 1;
#X connect 52 0 37 1;
#X connect 53 0 54 0;
#X connect 54 0 56 1;
#X connect 54 0 57 1;
#X connect 55 0 35 1;
#X connect 56 0 36 1;
#X connect 57 0 35 1;
#X connect 58 0 56 0;
#X connect 58 0 57 0;
#X connect 59 0 17 0;
#X connect 60 0 59 0;
#X connect 61 0 60 0;
#X connect 62 0 66 0;
#X connect 63 0 64 0;
#X connect 64 0 65 0;
#X connect 65 0 67 0;
#X connect 66 0 2 0;
#X connect 68 0 66 1;
#X connect 69 0 64 1;
#X connect 70 0 47 0;
#X connect 70 1 48 0;
#X connect 71 0 52 0;
#X connect 71 0 53 0;
#X connect 71 0 51 1;
#X connect 71 0 55 1;
#X connect 72 0 74 0;
#X connect 73 0 3 0;
#X connect 74 0 75 0;
#X connect 75 0 64 1;
#X connect 76 0 77 0;
#X connect 77 0 8 1;
#X restore 225 260 pd grains;
#X text 224 187 color : r - g - b noise : level button for switching
between videos and samples;
#X obj 295 353 dac~;
#X obj 332 245 *;
#X obj 276 320 *~;
#X obj 342 314 *~;
#X obj 332 223 r granularVolume;
#N canvas 267 57 874 589 granGUI 1;
#X obj 105 106 cnv 15 399 148 empty empty empty 20 12 0 14 -233017
-66577 0;
#X obj 126 136 hsl 397 8 0 1 0 0 empty empty scrub -2 -8 0 10 -1109
-1 -1 0 1;
#X obj 108 359 s grainread;
#X obj 281 311 s grainspeed;
#X obj 200 358 s grainscatter;
#X obj 370 312 s grainmultiply;
#X obj 354 379 s grainspread;
#X obj 185 193 hsl 128 9 0 127 0 0 empty empty scatter -2 -8 0 10 -42246
-1 -1 0 1;
#X floatatom 370 289 5 0 0 0 - - -;
#X obj 123 311 s grainfade;
#X text 159 291 1 soft - 20 hard;
#X text 413 293 0-1;
#X obj -21 229 s grainspeedspread;
#X obj 129 253 hsl 200 8 0 15 0 0 empty empty grain_pitch_spread -2
-8 0 10 -1109 -1 -1 0 1;
#X obj 56 269 r dur;
#X obj 22 273 f;
#X msg 108 334 0 \, 1 \$1;
#X obj 652 86 bng 15 250 50 0 empty empty play 17 7 0 10 -1109 -1 -1
;
#X obj 22 300 * 1;
#X obj 186 163 hsl 128 8 40 0.01 1 0 empty empty filespeed -2 -8 0
10 -1109 -1 -1 5648 1;
#X text 305 296 1-2200;
#X obj 337 193 hsl 128 9 0 1 0 0 empty empty grain_pan_spread -2 -8
0 10 -42246 -1 -1 3810 1;
#X msg 341 87 1;
#X obj 319 160 bng 15 250 50 0 empty empty normal 17 7 0 10 -1109 -1
-1;
#X obj 129 225 hsl 128 9 1 20 0 0 empty empty fade_soft_hard -2 -8
0 10 -90881 -1 -1 0 1;
#X obj 337 222 hsl 128 9 1 500 0 0 empty empty grainspeed -2 -8 0 10
-42246 -1 -1 993 1;
#X text 213 341 0-127;
#X obj 337 249 hsl 128 9 0 12 0 0 empty empty grainmultiply -2 -8 0
10 -42246 -1 -1 1058 1;
#X obj 616 46 loadbang;
#X msg 616 127 0.3;
#X msg 616 154 40;
#X obj 4 339 del 100;
#X obj -23 249 t b b;
#X obj 4 363 spigot;
#X obj 495 416 tgl 15 0 empty empty loop 17 7 0 10 -1109 -1 -1 1 1
;
#X msg 616 179 1;
#X obj 469 249 bng 8 250 50 0 empty empty normal 10 2 0 8 -42246 -1
-1;
#X obj 570 253 s feedbackpos;
#X obj 659 254 s feedbackjitter;
#X obj 567 480 s feedbackamount;
#X floatatom 572 445 5 0 0 0 - - -;
#X floatatom 607 226 5 0 0 0 - - -;
#X floatatom 654 207 5 0 0 0 - - -;
#X obj 475 156 vsl 8 34 0 500 0 0 empty empty empty 0 -9 0 10 -42246
-1 -1 0 1;
#X obj 493 156 vsl 8 34 0 200 0 0 empty empty empty 0 -9 0 10 -42246
-1 -1 0 1;
#X obj 510 156 vsl 8 34 0 0.99 0 0 empty empty empty 0 -9 0 10 -42246
-1 -1 0 1;
#X obj 473 193 cnv 5 50 5 empty empty empty 20 12 0 14 -99865 -66577
0;
#X obj 472 148 cnv 5 50 5 empty empty del:_pos_jitt_fb -16 3 1 9 -262144
-66577 0;
#X msg 554 223 \$1 300;
#X obj 123 262 cnv 5 400 5 empty empty empty -16 3 1 7 -66577 -66577
0;
#X obj 123 204 cnv 5 400 5 empty empty empty -16 3 1 7 -128992 -66577
0;
#X msg 108 283 \$1 20;
#X obj 100 39 cnv 15 90 45 empty empty empty 20 12 0 14 -99865 -66577
0;
#X obj 116 35 cnv 15 80 40 empty empty empty 20 12 0 14 -233017 -66577
0;
#X obj 124 251 soundfiler;
#X msg 47 178 read -resize -maxsize 1e+07 \$1 insoundL insoundR;
#X obj 52 22 openpanel;
#X obj 41 -36 bng 15 250 50 0 empty empty LOAD 17 7 0 10 -1109 -1 -1
;
#X obj 124 280 t f f;
#X obj 162 310 / 44.1;
#X obj 162 340 s dur;
#X obj 124 341 s len;
#X obj 318 229 table insoundL;
#X obj 318 249 table insoundR;
#X floatatom 222 305 5 0 0 0 - - -;
#X obj 64 110 s2l;
#X msg 84 87 symbol /;
#X obj 57 65 t s b;
#X obj 65 133 drip;
#X symbolatom 65 156 12 0 0 0 - - -;
#X msg -1 78;
#X obj -2 103 print;
#X text -30 149 comment;
#X obj 21 12 inport;
#X connect 1 0 51 0;
#X connect 7 0 4 0;
#X connect 8 0 5 0;
#X connect 13 0 12 0;
#X connect 14 0 15 1;
#X connect 15 0 18 0;
#X connect 16 0 2 0;
#X connect 17 0 32 0;
#X connect 18 0 16 0;
#X connect 18 0 31 1;
#X connect 19 0 18 1;
#X connect 21 0 6 0;
#X connect 22 0 19 0;
#X connect 23 0 22 0;
#X connect 24 0 9 0;
#X connect 25 0 3 0;
#X connect 27 0 5 0;
#X connect 28 0 29 0;
#X connect 28 0 30 0;
#X connect 28 0 35 0;
#X connect 28 0 22 0;
#X connect 28 0 34 0;
#X connect 28 0 17 0;
#X connect 29 0 21 0;
#X connect 30 0 25 0;
#X connect 31 0 33 0;
#X connect 32 0 31 0;
#X connect 32 1 15 0;
#X connect 33 0 17 0;
#X connect 34 0 33 1;
#X connect 35 0 27 0;
#X connect 36 0 35 0;
#X connect 40 0 39 0;
#X connect 41 0 37 0;
#X connect 42 0 38 0;
#X connect 43 0 48 0;
#X connect 44 0 38 0;
#X connect 45 0 39 0;
#X connect 48 0 37 0;
#X connect 51 0 2 0;
#X connect 54 0 58 0;
#X connect 54 0 64 0;
#X connect 55 0 54 0;
#X connect 56 0 67 0;
#X connect 56 0 70 0;
#X connect 57 0 56 0;
#X connect 58 0 61 0;
#X connect 58 1 59 0;
#X connect 59 0 60 0;
#X connect 65 0 68 0;
#X connect 66 0 65 1;
#X connect 67 0 65 0;
#X connect 67 1 66 0;
#X connect 68 0 69 0;
#X connect 69 0 55 0;
#X connect 70 0 71 0;
#X restore 394 364 pd granGUI;
#N canvas 13 23 904 683 MIDI 0;
#X obj 553 339 loadbang;
#X obj 553 359 delay 2000;
#X msg 553 379 100;
#X obj 553 399 s opitch;
#X obj 609 399 s ospeed;
#X text -179 340 SLIDERS;
#X obj -115 533 / 127;
#X obj -42 533 / 127;
#X obj 31 533 / 127;
#X obj 101 600 / 127;
#X text -173 512 KNOBS;
#X text -173 668 BUTTONS;
#X obj -116 725 b;
#X obj -42 725 b;
#X obj 31 725 b;
#X obj 104 725 b;
#X obj 251 725 b;
#X obj 324 725 b;
#X obj 397 725 b;
#X floatatom -109 552 5 0 0 0 - - -;
#X obj -116 328 ctlin 0;
#X obj -39 331 ctlin 1;
#X obj 63 330 ctlin 2;
#X obj 136 330 ctlin 3;
#X obj 211 330 ctlin 4;
#X obj 285 329 ctlin 5;
#X obj 356 324 ctlin 6;
#X obj 429 317 ctlin 7;
#X obj -115 512 ctlin 16;
#X obj -42 512 ctlin 17;
#X obj 31 512 ctlin 18;
#X obj 190 512 ctlin 19;
#X obj 335 512 ctlin 20;
#X obj 408 511 ctlin 21;
#X obj 564 507 ctlin 22;
#X obj 639 493 ctlin 23;
#X obj -115 668 ctlin 32;
#X obj -42 668 ctlin 33;
#X obj 31 668 ctlin 34;
#X obj 104 668 ctlin 35;
#X obj 178 668 ctlin 36;
#X obj 251 668 ctlin 37;
#X obj 324 668 ctlin 38;
#X obj 397 668 ctlin 39;
#X obj -41 419 s s2;
#X obj 55 418 s s4;
#X obj 133 422 s s6;
#X obj 569 606 s s7;
#X obj 643 606 s s8;
#X obj 702 613 s vol;
#X obj 132 466 s crushvol;
#X obj -52 443 s grainread;
#X obj 33 450 s grainscatter;
#X obj -144 441 s grainspread;
#X obj 565 621 s granularVolume;
#X obj 622 644 s sampleVolume;
#X obj -42 632 s opitch;
#X obj -118 603 s ospeed;
#X obj -42 608 maxlib/scale 0 1 1 250;
#X obj -118 579 maxlib/scale 0 1 0.01 1;
#X obj -92 727 bng 15 250 50 0 empty empty empty 17 7 0 10 -262144
-1 -1;
#X obj 57 726 bng 15 250 50 0 empty empty empty 17 7 0 10 -262144 -1
-1;
#X obj -15 726 bng 15 250 50 0 empty empty empty 17 7 0 10 -262144
-1 -1;
#X obj 128 725 bng 15 250 50 0 empty empty empty 17 7 0 10 -262144
-1 -1;
#X obj 202 725 bng 15 250 50 0 empty empty empty 17 7 0 10 -262144
-1 -1;
#X obj 276 726 bng 15 250 50 0 empty empty empty 17 7 0 10 -262144
-1 -1;
#X obj 425 726 bng 15 250 50 0 empty empty empty 17 7 0 10 -262144
-1 -1;
#X obj 351 727 bng 15 250 50 0 empty empty empty 17 7 0 10 -262144
-1 -1;
#X obj 178 725 b;
#X floatatom -30 555 5 0 0 0 - - -;
#X floatatom 41 556 5 0 0 0 - - -;
#X floatatom 121 628 5 0 0 0 - - -;
#X floatatom 373 593 5 0 0 0 - - -;
#X obj -115 751 s but1;
#X obj -41 753 s but2;
#X obj 31 754 s but3;
#X obj 105 752 s but4;
#X obj 177 752 s but5;
#X obj 251 752 s but6;
#X obj 323 752 s but7;
#X obj 396 751 s but8;
#X obj 100 644 s delayLength;
#X obj 30 576 s channelDelay;
#X obj 397 698 spigot;
#X obj 323 695 spigot;
#X obj 250 696 spigot;
#X obj 178 697 spigot;
#X obj 102 697 spigot;
#X obj 28 694 spigot;
#X obj -45 695 spigot;
#X obj -117 696 spigot;
#X floatatom 652 579 5 0 0 0 - - -;
#X obj 641 536 / 145;
#X obj 568 536 / 145;
#X obj 59 374 + 0.1;
#X floatatom 577 578 5 0 0 0 - - -;
#X floatatom 148 396 5 0 0 0 - - -;
#X floatatom 72 395 5 0 0 0 - - -;
#X floatatom -28 398 5 0 0 0 - - -;
#X obj 60 353 / 15;
#X obj -40 378 + 0.02;
#X obj -39 357 / 245;
#X obj 135 376 + 0.1;
#X obj 136 355 / 145;
#X obj 567 557 + 0;
#X obj 640 557 + 0;
#X obj 430 338 / 127;
#X obj 133 494 s verbvol;
#X msg 211 442 0 \$1;
#X msg 280 443 1 \$1;
#X msg 353 439 2 \$1;
#X obj 207 467 s verb_params;
#X floatatom 232 406 5 0 0 0 - - -;
#X floatatom 472 446 5 0 0 0 - - -;
#X obj 356 373 - 1;
#X obj 433 414 + 0.5;
#X obj 422 370 * 0.5;
#X msg 430 445 3 \$1;
#X obj 285 374 * 0.75;
#X obj 285 396 + 0.25;
#X obj 355 394 * -0.75;
#X obj 357 416 + 0.25;
#X obj 211 358 / 127;
#X obj 346 566 + 0.75;
#X obj 335 533 / 250;
#X obj 336 615 s feedbackVolume1;
#X floatatom 473 585 5 0 0 0 - - -;
#X obj 420 568 + 0.75;
#X obj 409 535 / 250;
#X obj 445 615 s feedbackVolume2;
#X obj 193 609 s s1;
#X obj 229 596 s s3;
#X obj 200 637 s grainspeedspread;
#X obj 228 618 s grainspeed;
#X obj 194 568 + 0.1;
#X obj 195 547 / 145;
#X floatatom 243 574 5 0 0 0 - - -;
#X floatatom 224 590 5 0 0 0 - - -;
#X obj 232 554 + 1;
#X obj 233 533 / 1;
#X obj -113 378 + 0.02;
#X obj -112 357 / 245;
#X obj 284 352 / 127;
#X obj 356 349 / 127;
#X floatatom 384 439 5 0 0 0 - - -;
#X floatatom 293 423 5 0 0 0 - - -;
#X floatatom -98 411 5 0 0 0 - - -;
#X connect 0 0 1 0;
#X connect 1 0 2 0;
#X connect 2 0 3 0;
#X connect 2 0 4 0;
#X connect 6 0 59 0;
#X connect 6 0 19 0;
#X connect 7 0 58 0;
#X connect 7 0 69 0;
#X connect 8 0 82 0;
#X connect 8 0 70 0;
#X connect 9 0 81 0;
#X connect 9 0 71 0;
#X connect 12 0 73 0;
#X connect 13 0 74 0;
#X connect 14 0 75 0;
#X connect 15 0 76 0;
#X connect 16 0 78 0;
#X connect 17 0 79 0;
#X connect 18 0 80 0;
#X connect 20 0 141 0;
#X connect 21 0 101 0;
#X connect 22 0 99 0;
#X connect 23 0 103 0;
#X connect 24 0 122 0;
#X connect 25 0 142 0;
#X connect 26 0 143 0;
#X connect 27 0 106 0;
#X connect 28 0 6 0;
#X connect 29 0 7 0;
#X connect 30 0 8 0;
#X connect 30 0 9 0;
#X connect 31 0 139 0;
#X connect 32 0 124 0;
#X connect 33 0 128 0;
#X connect 34 0 93 0;
#X connect 35 0 92 0;
#X connect 36 0 90 0;
#X connect 36 0 90 1;
#X connect 37 0 89 0;
#X connect 37 0 89 1;
#X connect 38 0 88 0;
#X connect 38 0 88 1;
#X connect 39 0 87 0;
#X connect 39 0 87 1;
#X connect 40 0 86 0;
#X connect 40 0 86 1;
#X connect 41 0 85 0;
#X connect 41 0 85 1;
#X connect 42 0 84 0;
#X connect 42 0 84 1;
#X connect 43 0 83 1;
#X connect 43 0 83 0;
#X connect 58 0 56 0;
#X connect 59 0 57 0;
#X connect 68 0 77 0;
#X connect 83 0 66 0;
#X connect 83 0 18 0;
#X connect 84 0 17 0;
#X connect 84 0 67 0;
#X connect 85 0 16 0;
#X connect 85 0 65 0;
#X connect 86 0 68 0;
#X connect 86 0 64 0;
#X connect 87 0 15 0;
#X connect 87 0 63 0;
#X connect 88 0 14 0;
#X connect 88 0 61 0;
#X connect 89 0 13 0;
#X connect 89 0 62 0;
#X connect 90 0 12 0;
#X connect 90 0 60 0;
#X connect 92 0 105 0;
#X connect 93 0 104 0;
#X connect 94 0 97 0;
#X connect 94 0 45 0;
#X connect 94 0 52 0;
#X connect 99 0 94 0;
#X connect 100 0 98 0;
#X connect 100 0 44 0;
#X connect 100 0 51 0;
#X connect 101 0 100 0;
#X connect 102 0 96 0;
#X connect 102 0 46 0;
#X connect 102 0 50 0;
#X connect 102 0 107 0;
#X connect 103 0 102 0;
#X connect 104 0 95 0;
#X connect 104 0 47 0;
#X connect 104 0 54 0;
#X connect 105 0 48 0;
#X connect 105 0 49 0;
#X connect 105 0 55 0;
#X connect 105 0 91 0;
#X connect 106 0 116 0;
#X connect 108 0 111 0;
#X connect 109 0 111 0;
#X connect 110 0 111 0;
#X connect 114 0 120 0;
#X connect 115 0 117 0;
#X connect 115 0 113 0;
#X connect 116 0 115 0;
#X connect 117 0 111 0;
#X connect 118 0 119 0;
#X connect 119 0 109 0;
#X connect 119 0 145 0;
#X connect 120 0 121 0;
#X connect 121 0 110 0;
#X connect 121 0 144 0;
#X connect 122 0 108 0;
#X connect 122 0 112 0;
#X connect 123 0 125 0;
#X connect 123 0 72 0;
#X connect 124 0 123 0;
#X connect 127 0 129 0;
#X connect 127 0 126 0;
#X connect 128 0 127 0;
#X connect 134 0 137 0;
#X connect 134 0 130 0;
#X connect 134 0 132 0;
#X connect 135 0 134 0;
#X connect 138 0 136 0;
#X connect 138 0 131 0;
#X connect 138 0 133 0;
#X connect 139 0 138 0;
#X connect 140 0 53 0;
#X connect 140 0 146 0;
#X connect 141 0 140 0;
#X connect 142 0 118 0;
#X connect 143 0 114 0;
#X restore -313 32 pd MIDI IN;
#X obj 333 268 pack 0 50;
#X obj 334 290 line~;
#X floatatom 120 228 5 0 0 0 - - -;
#X obj 276 375 pvu~;
#X obj 277 407 vu 15 120 empty empty -1 -8 0 10 -66577 -1 1 0;
#X obj 342 374 pvu~;
#X obj 343 406 vu 15 120 empty empty -1 -8 0 10 -66577 -1 1 0;
#X obj -181 140 pvu~;
#X obj -180 172 vu 15 120 empty empty -1 -8 0 10 -66577 -1 1 0;
#X obj -145 519 pvu~;
#X obj -74 401 vu 15 120 empty empty -1 -8 0 10 -66577 -1 1 0;
#X obj -152 386 limiter~;
#X obj -172 423 *~;
#X text -794 230 To Do : Constrain Values for Sliders / knobs Simplify
the Display Port over MIDI in to OSC receive Make sure feedback is
working properly Change sample playback to loop;
#X obj -142 104 s start;
#X obj -173 108 bng 15 250 50 0 empty empty empty 17 7 0 10 -262144
-1 -1;
#X text -195 30 this determines where in the sound file we jump to
when we press buttons;
#X msg -196 74 symbol dune_03.aif;
#N canvas 0 418 450 300 martinesFeedback 0;
#X obj 42 38 inlet~ sourceAudio;
#X obj 214 330 *~;
#X obj 76 324 *~;
#X obj 83 266 delwrite~ der 10000;
#X obj 79 243 delread~ izq;
#X obj 210 266 delread~ centro;
#X floatatom 208 243 5 0 0 0 - - -;
#X obj 190 136 r delayLength;
#X obj -61 322 *~;
#X obj -54 264 delwrite~ der 10000;
#X obj -58 241 delread~ izq;
#X obj -189 324 *~;
#X obj -182 266 delwrite~ der 10000;
#X obj -186 243 delread~ izq;
#X obj -61 37 r channelDelay;
#X obj -186 181 * 2;
#X obj -59 179 * 3;
#X obj 76 179 * 4;
#X obj -187 201 +;
#X obj -60 199 +;
#X obj 76 200 +;
#X floatatom -188 222 5 0 0 0 - - -;
#X floatatom -60 220 5 0 0 0 - - -;
#X floatatom 78 223 5 0 0 0 - - -;
#X obj 165 198 bng 15 250 50 0 empty empty empty 17 7 0 10 -262144
-1 -1;
#X obj -59 146 * 100;
#X obj -62 118 + 1;
#X obj 55 99 pack 0 50;
#X obj 56 121 line~;
#X obj 56 75 r feedbackVolume1;
#X obj 208 175 pack 0 50;
#X obj 209 197 line~;
#X obj 207 222 *~ 5000;
#X obj -64 66 pack 0 50;
#X obj -63 88 line;
#X obj -189 383 outlet~ channel1;
#X obj -59 383 outlet~ channel2;
#X obj 79 381 outlet~ channel3;
#X obj 214 381 outlet~ channel4;
#X obj -286 383 delwrite~ izq 10000;
#X obj 194 73 delwrite~ izq 10000;
#X connect 0 0 40 0;
#X connect 1 0 38 0;
#X connect 2 0 37 0;
#X connect 4 0 2 0;
#X connect 4 0 3 0;
#X connect 5 0 1 0;
#X connect 6 0 5 0;
#X connect 6 0 24 0;
#X connect 7 0 30 0;
#X connect 8 0 36 0;
#X connect 10 0 8 0;
#X connect 10 0 9 0;
#X connect 11 0 35 0;
#X connect 13 0 11 0;
#X connect 13 0 12 0;
#X connect 14 0 33 0;
#X connect 15 0 18 0;
#X connect 16 0 19 0;
#X connect 17 0 20 0;
#X connect 18 0 21 0;
#X connect 19 0 22 0;
#X connect 20 0 23 0;
#X connect 21 0 13 0;
#X connect 22 0 10 0;
#X connect 23 0 4 0;
#X connect 24 0 25 0;
#X connect 25 0 15 0;
#X connect 25 0 16 0;
#X connect 25 0 17 0;
#X connect 26 0 25 0;
#X connect 27 0 28 0;
#X connect 28 0 11 1;
#X connect 28 0 8 1;
#X connect 28 0 2 1;
#X connect 28 0 1 1;
#X connect 29 0 27 0;
#X connect 30 0 31 0;
#X connect 31 0 32 0;
#X connect 32 0 6 0;
#X connect 32 0 20 1;
#X connect 32 0 19 1;
#X connect 32 0 18 1;
#X connect 33 0 34 0;
#X connect 34 0 26 0;
#X restore -383 305 pd martinesFeedback;
#X obj -396 341 pvu~;
#X obj -395 373 vu 15 120 empty empty -1 -8 0 10 -66577 -1 1 0;
#X obj -346 341 pvu~;
#X obj -345 373 vu 15 120 empty empty -1 -8 0 10 -66577 -1 1 0;
#X obj -296 341 pvu~;
#X obj -295 373 vu 15 120 empty empty -1 -8 0 10 -66577 -1 1 0;
#X obj -246 341 pvu~;
#X obj -245 373 vu 15 120 empty empty -1 -8 0 10 -66577 -1 1 0;
#N canvas 341 540 450 300 samplerMasterVolume 0;
#X obj 258 67 outlet sampleVolume;
#X obj 242 -69 *;
#X obj 242 -47 / 3.5;
#X obj 247 -92 r sampleVolume;
#X floatatom 270 -17 5 0 0 0 - - -;
#X obj 255 3 pack 0 50;
#X obj 256 25 line;
#X connect 1 0 2 0;
#X connect 2 0 4 0;
#X connect 2 0 5 0;
#X connect 3 0 1 0;
#X connect 3 0 1 1;
#X connect 5 0 6 0;
#X connect 6 0 0 0;
#X restore -89 377 pd samplerMasterVolume;
#X obj -172 451 *~ 1;
#X obj 54 411 pvu~;
#X obj 55 443 vu 15 120 empty empty -1 -8 0 10 -66577 -1 1 0;
#X obj 104 411 pvu~;
#X obj 105 443 vu 15 120 empty empty -1 -8 0 10 -66577 -1 1 0;
#X obj 154 411 pvu~;
#X obj 155 443 vu 15 120 empty empty -1 -8 0 10 -66577 -1 1 0;
#X obj 204 411 pvu~;
#X obj 205 443 vu 15 120 empty empty -1 -8 0 10 -66577 -1 1 0;
#N canvas 0 418 450 300 martinesFeedbackStereo 0;
#X obj 42 38 inlet~ sourceAudio;
#X obj 214 330 *~;
#X obj 76 324 *~;
#X obj 83 266 delwrite~ der 10000;
#X obj 79 243 delread~ izq;
#X obj 210 266 delread~ centro;
#X floatatom 208 243 5 0 0 0 - - -;
#X obj 190 136 r delayLength;
#X obj -61 322 *~;
#X obj -54 264 delwrite~ der 10000;
#X obj -58 241 delread~ izq;
#X obj -189 324 *~;
#X obj -182 266 delwrite~ der 10000;
#X obj -186 243 delread~ izq;
#X obj -61 37 r channelDelay;
#X obj -186 181 * 2;
#X obj -59 179 * 3;
#X obj 76 179 * 4;
#X obj -187 201 +;
#X obj -60 199 +;
#X obj 76 200 +;
#X floatatom -188 222 5 0 0 0 - - -;
#X floatatom -60 220 5 0 0 0 - - -;
#X floatatom 78 223 5 0 0 0 - - -;
#X obj 165 198 bng 15 250 50 0 empty empty empty 17 7 0 10 -262144
-1 -1;
#X obj -59 146 * 100;
#X obj -62 118 + 1;
#X obj 55 99 pack 0 50;
#X obj 56 121 line~;
#X obj 56 75 r feedbackVolume1;
#X obj 208 175 pack 0 50;
#X obj 209 197 line~;
#X obj 207 222 *~ 5000;
#X obj -64 66 pack 0 50;
#X obj -63 88 line;
#X obj -189 383 outlet~ channel1;
#X obj -59 383 outlet~ channel2;
#X obj 79 381 outlet~ channel3;
#X obj 214 381 outlet~ channel4;
#X obj -286 383 delwrite~ izq 10000;
#X obj 194 73 delwrite~ izq 10000;
#X connect 0 0 40 0;
#X connect 1 0 38 0;
#X connect 2 0 37 0;
#X connect 4 0 2 0;
#X connect 4 0 3 0;
#X connect 5 0 1 0;
#X connect 6 0 5 0;
#X connect 6 0 24 0;
#X connect 7 0 30 0;
#X connect 8 0 36 0;
#X connect 10 0 8 0;
#X connect 10 0 9 0;
#X connect 11 0 35 0;
#X connect 13 0 11 0;
#X connect 13 0 12 0;
#X connect 14 0 33 0;
#X connect 15 0 18 0;
#X connect 16 0 19 0;
#X connect 17 0 20 0;
#X connect 18 0 21 0;
#X connect 19 0 22 0;
#X connect 20 0 23 0;
#X connect 21 0 13 0;
#X connect 22 0 10 0;
#X connect 23 0 4 0;
#X connect 24 0 25 0;
#X connect 25 0 15 0;
#X connect 25 0 16 0;
#X connect 25 0 17 0;
#X connect 26 0 25 0;
#X connect 27 0 28 0;
#X connect 28 0 11 1;
#X connect 28 0 8 1;
#X connect 28 0 2 1;
#X connect 28 0 1 1;
#X connect 29 0 27 0;
#X connect 30 0 31 0;
#X connect 31 0 32 0;
#X connect 32 0 6 0;
#X connect 32 0 20 1;
#X connect 32 0 19 1;
#X connect 32 0 18 1;
#X connect 33 0 34 0;
#X connect 34 0 26 0;
#X restore 67 375 pd martinesFeedbackStereo;
#X obj 9 280 pvu~;
#X obj 160 162 vu 15 120 empty empty -1 -8 0 10 -66577 -1 1 0;
#X obj 125 583 dac~;
#X connect 0 0 20 0;
#X connect 2 0 4 0;
#X connect 2 0 5 0;
#X connect 2 0 46 0;
#X connect 5 0 3 0;
#X connect 7 0 17 0;
#X connect 7 0 19 0;
#X connect 7 0 36 0;
#X connect 8 0 7 0;
#X connect 9 0 8 0;
#X connect 10 0 19 1;
#X connect 11 0 7 0;
#X connect 12 0 11 0;
#X connect 14 0 15 0;
#X connect 15 0 16 1;
#X connect 16 0 17 1;
#X connect 16 0 67 0;
#X connect 17 0 40 0;
#X connect 17 0 41 0;
#X connect 18 0 14 0;
#X connect 18 0 31 0;
#X connect 19 0 16 0;
#X connect 20 0 24 0;
#X connect 20 1 25 0;
#X connect 23 0 29 0;
#X connect 24 0 22 0;
#X connect 24 0 32 0;
#X connect 25 0 22 1;
#X connect 25 0 34 0;
#X connect 26 0 23 0;
#X connect 26 0 23 1;
#X connect 29 0 30 0;
#X connect 30 0 24 1;
#X connect 30 0 25 1;
#X connect 32 0 33 0;
#X connect 34 0 35 0;
#X connect 36 0 37 0;
#X connect 38 0 39 0;
#X connect 40 0 41 1;
#X connect 41 0 57 0;
#X connect 44 0 43 0;
#X connect 46 0 7 1;
#X connect 46 0 43 0;
#X connect 47 0 48 0;
#X connect 47 0 6 0;
#X connect 47 1 50 0;
#X connect 47 1 6 1;
#X connect 47 2 52 0;
#X connect 47 2 6 0;
#X connect 47 3 54 0;
#X connect 47 3 6 1;
#X connect 48 0 49 0;
#X connect 50 0 51 0;
#X connect 52 0 53 0;
#X connect 54 0 55 0;
#X connect 56 0 57 1;
#X connect 57 0 6 0;
#X connect 57 0 6 1;
#X connect 57 0 38 0;
#X connect 58 0 59 0;
#X connect 60 0 61 0;
#X connect 62 0 63 0;
#X connect 64 0 65 0;
#X connect 66 0 58 0;
#X connect 66 0 69 0;
#X connect 66 1 60 0;
#X connect 66 1 69 1;
#X connect 66 2 62 0;
#X connect 66 3 64 0;
#X connect 67 0 68 0;
