#N canvas 542 23 677 551 10;
#X declare -lib mrpeach;
#X obj -448 125 import mrpeach;
#X obj -665 124 smp-pvoc1;
#X msg -666 98 0;
#X obj -666 78 r start;
#X msg -614 101 1;
#X obj -614 78 r stop;
#N canvas 541 77 738 420 jumpy 0;
#X obj 120 -989 s filejumper;
#X obj 11 -1150 r but1;
#X msg 11 -1122 0;
#X obj 58 -1150 r but2;
#X obj 105 -1150 r but3;
#X obj 149 -1150 r but4;
#X obj 195 -1150 r but5;
#X obj 244 -1150 r but6;
#X obj 293 -1150 r but7;
#X obj 341 -1150 r but8;
#X msg 58 -1122 0.125;
#X msg 105 -1122 0.25;
#X msg 149 -1122 0.375;
#X msg 195 -1122 0.5;
#X msg 244 -1122 0.625;
#X msg 293 -1122 0.75;
#X msg 341 -1122 0.875;
#X floatatom 104 -1063 5 0 0 0 - - -;
#N canvas 87 76 548 407 trueRandom100 0;
#X obj -470 -434 outlet;
#X obj -439 -736 time;
#X obj -441 -693 +;
#X obj -431 -663 +;
#X obj -447 -617 +;
#X obj -439 -798 loadbang;
#X obj -439 -767 t b b;
#X obj -448 -585 pack s f;
#X msg -486 -610 seed;
#X msg -467 -532 \$1 \$2;
#X obj -511 -507 bng 15 250 50 0 empty empty empty 17 7 0 10 -262144
-1 -1;
#X obj -467 -484 random 99;
#X obj -469 -459 + 1;
#X obj -509 -434 print;
#X obj -493 -807 inlet;
#X connect 1 0 2 0;
#X connect 1 1 3 0;
#X connect 1 2 2 1;
#X connect 1 3 3 1;
#X connect 2 0 4 0;
#X connect 3 0 4 1;
#X connect 4 0 7 1;
#X connect 5 0 6 0;
#X connect 6 0 8 0;
#X connect 6 1 1 0;
#X connect 7 0 9 0;
#X connect 8 0 7 0;
#X connect 9 0 10 0;
#X connect 9 0 11 0;
#X connect 10 0 11 0;
#X connect 11 0 12 0;
#X connect 12 0 0 0;
#X connect 12 0 13 0;
#X connect 14 0 6 0;
#X restore 154 -1063 pd trueRandom100;
#X floatatom 183 -1010 5 0 0 0 - - -;
#X obj 120 -1015 +;
#X obj 151 -1034 * 0.001;
#X obj 413 -1125 r but1;
#X msg 413 -1097 0;
#X obj 460 -1125 r but2;
#X obj 507 -1125 r but3;
#X obj 551 -1125 r but4;
#X obj 597 -1125 r but5;
#X obj 646 -1125 r but6;
#X obj 695 -1125 r but7;
#X obj 743 -1125 r but8;
#X msg 460 -1097 0.125;
#X msg 507 -1097 0.25;
#X msg 551 -1097 0.375;
#X msg 597 -1097 0.5;
#X msg 646 -1097 0.625;
#X msg 695 -1097 0.75;
#X msg 743 -1097 0.875;
#X text 443 -1146 If the NANO is the controller we end up using;
#X obj 413 -1075 r but1;
#X msg 413 -1047 0;
#X obj 460 -1075 r but2;
#X obj 507 -1075 r but3;
#X obj 551 -1075 r but4;
#X obj 597 -1075 r but5;
#X obj 646 -1075 r but6;
#X obj 695 -1075 r but7;
#X obj 743 -1075 r but8;
#X msg 460 -1047 0.125;
#X msg 507 -1047 0.25;
#X msg 551 -1047 0.375;
#X msg 597 -1047 0.5;
#X msg 646 -1047 0.625;
#X msg 695 -1047 0.75;
#X msg 743 -1047 0.875;
#X obj 413 -1026 r but1;
#X msg 413 -998 0;
#X obj 460 -1026 r but2;
#X obj 507 -1026 r but3;
#X obj 551 -1026 r but4;
#X obj 597 -1026 r but5;
#X obj 646 -1026 r but6;
#X obj 695 -1026 r but7;
#X obj 743 -1026 r but8;
#X msg 460 -998 0.125;
#X msg 507 -998 0.25;
#X msg 551 -998 0.375;
#X msg 597 -998 0.5;
#X msg 646 -998 0.625;
#X msg 695 -998 0.75;
#X msg 743 -998 0.875;
#X obj 309 -1043 bng 15 250 50 0 empty empty empty 17 7 0 10 -262144
-1 -1;
#X obj 308 -1090 loadbang;
#X obj 309 -1066 metro 60000;
#X connect 1 0 2 0;
#X connect 2 0 17 0;
#X connect 3 0 10 0;
#X connect 4 0 11 0;
#X connect 5 0 12 0;
#X connect 6 0 13 0;
#X connect 7 0 14 0;
#X connect 8 0 15 0;
#X connect 9 0 16 0;
#X connect 10 0 17 0;
#X connect 11 0 17 0;
#X connect 12 0 17 0;
#X connect 13 0 17 0;
#X connect 14 0 17 0;
#X connect 15 0 17 0;
#X connect 16 0 17 0;
#X connect 17 0 18 0;
#X connect 17 0 20 0;
#X connect 18 0 21 0;
#X connect 20 0 0 0;
#X connect 20 0 19 0;
#X connect 21 0 20 1;
#X connect 22 0 23 0;
#X connect 24 0 31 0;
#X connect 25 0 32 0;
#X connect 26 0 33 0;
#X connect 27 0 34 0;
#X connect 28 0 35 0;
#X connect 29 0 36 0;
#X connect 30 0 37 0;
#X connect 39 0 40 0;
#X connect 41 0 48 0;
#X connect 42 0 49 0;
#X connect 43 0 50 0;
#X connect 44 0 51 0;
#X connect 45 0 52 0;
#X connect 46 0 53 0;
#X connect 47 0 54 0;
#X connect 55 0 56 0;
#X connect 57 0 64 0;
#X connect 58 0 65 0;
#X connect 59 0 66 0;
#X connect 60 0 67 0;
#X connect 61 0 68 0;
#X connect 62 0 69 0;
#X connect 63 0 70 0;
#X connect 71 0 11 0;
#X connect 72 0 73 0;
#X connect 73 0 71 0;
#X restore -330 129 pd jumpy;
#X obj -711 84 pvu~;
#X obj -710 116 vu 15 120 empty empty -1 -8 0 10 -66577 -1 1 0;
#X obj -660 392 pvu~;
#X obj -659 424 vu 15 120 empty empty -1 -8 0 10 -66577 -1 1 0;
#X obj -608 393 pvu~;
#X obj -607 425 vu 15 120 empty empty -1 -8 0 10 -66577 -1 1 0;
#N canvas 341 540 450 300 samplerMasterVolume 0;
#X obj 258 67 outlet sampleVolume;
#X obj 247 -92 r sampleVolume;
#X obj 255 3 pack 0 50;
#X obj 256 25 line;
#X connect 1 0 2 0;
#X connect 2 0 3 0;
#X connect 3 0 0 0;
#X restore -660 249 pd samplerMasterVolume;
#X obj -652 292 *~ 1;
#X obj -558 631 dac~;
#X floatatom -631 271 5 0 0 0 - - -;
#N canvas 283 23 1183 551 CONTROL 0;
#X obj -66 -260 unpackOSC;
#X floatatom -460 104 5 0 0 0 - - -;
#X text -481 34 KNOBS;
#X text -162 -229 BUTTONS;
#X obj -188 262 routeOSC /s1 /s2 /s3 /s4 /s5 /s6 /s7 /s8;
#X obj -74 29 routeOSC /k1 /k2 /k3 /k4 /k5 /k6 /k7 /k8;
#X obj 376 -271 loadbang;
#X obj 375 -184 delay 2000;
#X msg 375 -164 100;
#X obj 375 -144 s opitch;
#X obj 431 -144 s ospeed;
#X obj -143 -100 bng 15 250 50 0 empty empty empty 17 7 0 10 -262144
-1 -1;
#X obj -119 -101 bng 15 250 50 0 empty empty empty 17 7 0 10 -262144
-1 -1;
#X obj -90 -102 bng 15 250 50 0 empty empty empty 17 7 0 10 -262144
-1 -1;
#X obj -61 -102 bng 15 250 50 0 empty empty empty 17 7 0 10 -262144
-1 -1;
#X obj -28 -101 bng 15 250 50 0 empty empty empty 17 7 0 10 -262144
-1 -1;
#X obj 5 -101 bng 15 250 50 0 empty empty empty 17 7 0 10 -262144 -1
-1;
#X obj 38 -100 bng 15 250 50 0 empty empty empty 17 7 0 10 -262144
-1 -1;
#X obj 71 -100 bng 15 250 50 0 empty empty empty 17 7 0 10 -262144
-1 -1;
#X obj -64 -282 udpreceive 3001;
#X obj 476 152 s vol;
#X obj 291 153 s granularVolume;
#X obj 477 174 s sampleVolume;
#X obj -602 166 s opitch;
#X obj -785 153 s ospeed;
#X obj -784 108 maxlib/scale 0 1 0.01 1;
#X obj -111 -239 routeOSC /b1 /b2 /b3 /b4 /b5 /b6 /b7 /b8 /b9 /10 /b11
/b12;
#X obj 111 -100 bng 15 250 50 0 empty empty empty 17 7 0 10 -262144
-1 -1;
#X obj 143 -102 bng 15 250 50 0 empty empty empty 17 7 0 10 -262144
-1 -1;
#X obj 177 -99 bng 15 250 50 0 empty empty empty 17 7 0 10 -262144
-1 -1;
#X obj 210 -99 bng 15 250 50 0 empty empty empty 17 7 0 10 -262144
-1 -1;
#X obj -164 -76 s but1;
#X obj -121 -77 s but2;
#X obj -89 -77 s but3;
#X obj -58 -77 s but4;
#X obj -25 -77 s but5;
#X obj 7 -77 s but6;
#X obj 40 -78 s but7;
#X obj 73 -78 s but8;
#X obj 110 -76 s but9;
#X obj 144 -77 s but10;
#X obj 176 -77 s but11;
#X obj 207 -77 s but12;
#X floatatom 487 369 5 0 0 0 - - -;
#X floatatom -637 124 5 0 0 0 - - -;
#X floatatom -819 107 5 0 0 0 - - -;
#X floatatom 257 131 5 0 0 0 - - -;
#X floatatom 436 128 5 0 0 0 - - -;
#X obj -766 294 ctlin 0;
#X obj -591 295 ctlin 1;
#X obj -409 293 ctlin 2;
#X obj -216 296 ctlin 3;
#X obj -42 294 ctlin 4;
#X obj 134 294 ctlin 5;
#X obj 323 295 ctlin 6;
#X obj 523 294 ctlin 7;
#X obj -768 315 maxlib/scale 0 127 0 1;
#X floatatom -808 314 5 0 0 0 - - -;
#X obj -591 316 maxlib/scale 0 127 0 1;
#X floatatom -626 316 5 0 0 0 - - -;
#X obj -409 315 maxlib/scale 0 127 0 1;
#X floatatom -446 315 5 0 0 0 - - -;
#X obj -217 316 maxlib/scale 0 127 0 1;
#X floatatom -251 314 5 0 0 0 - - -;
#X obj -42 316 maxlib/scale 0 127 0 1;
#X floatatom -78 316 5 0 0 0 - - -;
#X obj 135 317 maxlib/scale 0 127 0 1;
#X floatatom 99 316 5 0 0 0 - - -;
#X obj 324 315 maxlib/scale 0 127 0 1;
#X floatatom 288 315 5 0 0 0 - - -;
#X obj 524 315 maxlib/scale 0 127 0 1;
#X floatatom 487 317 5 0 0 0 - - -;
#X obj -716 58 ctlin 16;
#X obj -562 60 ctlin 17;
#X obj -393 59 ctlin 18;
#X obj -249 56 ctlin 19;
#X obj -65 55 ctlin 20;
#X obj 104 46 ctlin 21;
#X obj 291 56 ctlin 22;
#X obj 458 49 ctlin 23;
#X obj -777 86 maxlib/scale 0 127 0 1;
#X floatatom -813 85 5 0 0 0 - - -;
#X obj -601 82 maxlib/scale 0 127 0 1;
#X floatatom -636 84 5 0 0 0 - - -;
#X floatatom -457 83 5 0 0 0 - - -;
#X obj -241 82 maxlib/scale 0 127 0 1;
#X floatatom -276 84 5 0 0 0 - - -;
#X obj -64 77 maxlib/scale 0 127 0 1;
#X floatatom -99 79 5 0 0 0 - - -;
#X obj 112 74 maxlib/scale 0 127 0 1;
#X floatatom 77 76 5 0 0 0 - - -;
#X obj 290 78 maxlib/scale 0 127 0 1;
#X floatatom 255 80 5 0 0 0 - - -;
#X obj 469 74 maxlib/scale 0 127 0 1;
#X floatatom 434 76 5 0 0 0 - - -;
#X obj -326 -153 b;
#X obj -252 -153 b;
#X obj -179 -153 b;
#X obj -106 -153 b;
#X obj 41 -153 b;
#X obj 114 -153 b;
#X obj 187 -153 b;
#X obj -325 -210 ctlin 32;
#X obj -252 -210 ctlin 33;
#X obj -179 -210 ctlin 34;
#X obj -106 -210 ctlin 35;
#X obj -32 -210 ctlin 36;
#X obj 41 -210 ctlin 37;
#X obj 114 -210 ctlin 38;
#X obj 187 -210 ctlin 39;
#X obj -302 -151 bng 15 250 50 0 empty empty empty 17 7 0 10 -262144
-1 -1;
#X obj -153 -152 bng 15 250 50 0 empty empty empty 17 7 0 10 -262144
-1 -1;
#X obj -225 -152 bng 15 250 50 0 empty empty empty 17 7 0 10 -262144
-1 -1;
#X obj -82 -153 bng 15 250 50 0 empty empty empty 17 7 0 10 -262144
-1 -1;
#X obj -8 -153 bng 15 250 50 0 empty empty empty 17 7 0 10 -262144
-1 -1;
#X obj 66 -152 bng 15 250 50 0 empty empty empty 17 7 0 10 -262144
-1 -1;
#X obj 215 -152 bng 15 250 50 0 empty empty empty 17 7 0 10 -262144
-1 -1;
#X obj 141 -151 bng 15 250 50 0 empty empty empty 17 7 0 10 -262144
-1 -1;
#X obj -32 -153 b;
#X obj 187 -180 spigot;
#X obj 113 -183 spigot;
#X obj 40 -182 spigot;
#X obj -32 -181 spigot;
#X obj -108 -181 spigot;
#X obj -182 -184 spigot;
#X obj -255 -183 spigot;
#X obj -327 -182 spigot;
#X msg -728 149 0.01;
#X obj -727 130 loadbang;
#X obj -421 126 s delayVolume;
#X obj -422 81 maxlib/scale 0 127 0 1;
#X obj 525 403 s width;
#X obj -600 103 *;
#X floatatom -636 101 5 0 0 0 - - -;
#X floatatom -807 352 5 0 0 0 - - -;
#X floatatom 76 122 5 0 0 0 - - -;
#X obj 121 160 s wet;
#X msg 166 145 1;
#X obj 174 189 s dry;
#X floatatom 212 187 5 0 0 0 - - -;
#X floatatom -628 351 5 0 0 0 - - -;
#X floatatom -450 350 5 0 0 0 - - -;
#X floatatom -252 337 5 0 0 0 - - -;
#X floatatom 98 338 5 0 0 0 - - -;
#X floatatom 290 360 5 0 0 0 - - -;
#X obj 118 373 s damping;
#X obj 332 392 s roomsize;
#X obj 135 341 maxlib/scale 0 1 0 1.5;
#X floatatom -79 336 5 0 0 0 - - -;
#X obj -64 373 s chorusFade;
#X obj -42 339 maxlib/scale 0 1 0 1;
#X obj 174 167 -;
#X obj 524 343 *;
#X obj 484 103 *;
#X obj 302 105 *;
#X obj -219 376 s \$0-envelope-r;
#X obj -218 337 maxlib/scale 0 1 0 1;
#X text -214 358 Grain Envelope;
#X obj -234 398 s \$0-envelope-exp-r;
#X obj -255 274 knob 32 32 0 127 0 0 empty empty empty 0 -8 0 8 -262144
-1 -1 0 1;
#X obj -449 275 knob 32 32 0 127 0 0 empty empty empty 0 -8 0 8 -262144
-1 -1 0 1;
#X obj -626 277 knob 32 32 0 127 0 0 empty empty empty 0 -8 0 8 -262144
-1 -1 0 1;
#X obj -807 276 knob 32 32 0 127 0 0 empty empty empty 0 -8 0 8 -262144
-1 -1 0 1;
#X obj -416 350 maxlib/scale 0 1 0 1;
#X obj -594 351 maxlib/scale 0 1 0 1;
#X obj -773 352 maxlib/scale 0 1 0 1;
#X obj -429 393 s \$0-feedback-return-r;
#X text -416 371 Grain Return;
#X text -663 250 Shoudl random/Jitter be a param?;
#X text -591 372 Grain Time (feedback time);
#X obj -602 394 s \$0-feedback-time-r;
#X text -762 369 Grain Filter;
#X obj -773 389 s \$0-vcf-r;
#X obj 558 342 *;
#X obj 324 338 *;
#X obj 326 361 maxlib/scale 0 1 0 0.9;
#X obj 525 370 maxlib/scale 0 1 0 5;
#X obj -600 126 maxlib/scale 0 1 20 350;
#X obj 291 131 maxlib/scale 0 1 0.6 1;
#X obj 474 130 maxlib/scale 0 1 0.6 1;
#X obj 114 123 maxlib/scale 0 1 0 0.25;
#X obj 110 101 *;
#X floatatom -103 108 5 0 0 0 - - -;
#X obj -67 129 s feedbackVolume1;
#X obj -264 151 s delayLength;
#X floatatom -301 128 5 0 0 0 - - -;
#X obj -424 104 maxlib/scale 0 1 0.3 0.5;
#X obj 506 -147 udpsend;
#X obj 506 -168 packOSC;
#X obj 506 -188 r data;
#X msg 482 -216 connect 127.0.0.1 3001;
#X obj -285 482 s data;
#X obj -212 482 s data;
#X obj -139 482 s data;
#X obj -66 482 s data;
#X obj 8 482 s data;
#X obj 81 482 s data;
#X obj 154 482 s data;
#X obj 227 482 s data;
#X obj -285 460 prepend /s1;
#X obj -212 460 prepend /s2;
#X obj -139 460 prepend /s3;
#X obj -66 460 prepend /s4;
#X obj 8 460 prepend /s5;
#X obj 81 460 prepend /s6;
#X obj 154 460 prepend /s7;
#X obj 227 460 prepend /s8;
#X obj -285 237 s data;
#X obj -212 237 s data;
#X obj -139 237 s data;
#X obj -66 237 s data;
#X obj 8 237 s data;
#X obj 81 237 s data;
#X obj 154 237 s data;
#X obj 227 237 s data;
#X obj -285 215 prepend /k1;
#X obj -212 215 prepend /k2;
#X obj -139 215 prepend /k3;
#X obj -66 215 prepend /k4;
#X obj 8 215 prepend /k5;
#X obj 81 215 prepend /k6;
#X obj 154 215 prepend /k7;
#X obj 227 215 prepend /k8;
#X msg -319 -125 1;
#X msg -247 -124 2;
#X msg -192 -125 3;
#X msg -120 -125 4;
#X msg -41 -131 5;
#X msg 33 -131 6;
#X msg 114 -129 7;
#X msg 183 -127 8;
#X obj -223 -5 s data;
#X obj -149 -4 s data;
#X obj -76 -3 s data;
#X obj -3 -3 s data;
#X obj 71 -3 s data;
#X obj 144 -3 s data;
#X obj 217 -3 s data;
#X obj 290 -3 s data;
#X obj -223 -27 prepend /b1;
#X obj -151 -24 prepend /b2;
#X obj -76 -25 prepend /b3;
#X obj -3 -25 prepend /b4;
#X obj 71 -25 prepend /b5;
#X obj 144 -25 prepend /b6;
#X obj 217 -25 prepend /b7;
#X obj 290 -25 prepend /b8;
#X obj -68 109 maxlib/scale 0 1 0.3 0.95;
#X obj -264 128 maxlib/scale 0 1 0.01 800;
#X connect 0 0 4 0;
#X connect 0 0 5 0;
#X connect 0 0 26 0;
#X connect 4 3 156 0;
#X connect 4 4 149 0;
#X connect 4 5 147 0;
#X connect 4 6 174 0;
#X connect 4 6 174 1;
#X connect 4 7 152 0;
#X connect 4 7 152 1;
#X connect 5 0 25 0;
#X connect 5 1 177 0;
#X connect 5 2 186 0;
#X connect 5 3 248 0;
#X connect 5 4 247 0;
#X connect 5 5 181 0;
#X connect 5 5 181 1;
#X connect 5 6 178 0;
#X connect 5 7 179 0;
#X connect 6 0 7 0;
#X connect 6 0 190 0;
#X connect 7 0 8 0;
#X connect 8 0 9 0;
#X connect 8 0 10 0;
#X connect 11 0 31 0;
#X connect 12 0 32 0;
#X connect 13 0 33 0;
#X connect 14 0 34 0;
#X connect 15 0 35 0;
#X connect 16 0 36 0;
#X connect 17 0 37 0;
#X connect 18 0 38 0;
#X connect 19 0 0 0;
#X connect 25 0 24 0;
#X connect 25 0 45 0;
#X connect 26 0 11 0;
#X connect 26 1 12 0;
#X connect 26 2 13 0;
#X connect 26 3 14 0;
#X connect 26 4 15 0;
#X connect 26 5 16 0;
#X connect 26 6 17 0;
#X connect 26 7 18 0;
#X connect 26 8 27 0;
#X connect 26 9 28 0;
#X connect 26 10 29 0;
#X connect 26 11 30 0;
#X connect 27 0 39 0;
#X connect 28 0 40 0;
#X connect 29 0 41 0;
#X connect 30 0 42 0;
#X connect 48 0 56 0;
#X connect 49 0 58 0;
#X connect 50 0 60 0;
#X connect 51 0 62 0;
#X connect 52 0 64 0;
#X connect 53 0 66 0;
#X connect 54 0 68 0;
#X connect 55 0 70 0;
#X connect 56 0 57 0;
#X connect 56 0 165 0;
#X connect 56 0 199 0;
#X connect 58 0 59 0;
#X connect 58 0 164 0;
#X connect 58 0 200 0;
#X connect 60 0 61 0;
#X connect 60 0 163 0;
#X connect 60 0 201 0;
#X connect 62 0 63 0;
#X connect 62 0 156 0;
#X connect 62 0 202 0;
#X connect 64 0 65 0;
#X connect 64 0 150 0;
#X connect 64 0 203 0;
#X connect 66 0 67 0;
#X connect 66 0 147 0;
#X connect 66 0 204 0;
#X connect 68 0 69 0;
#X connect 68 0 174 1;
#X connect 68 0 174 0;
#X connect 68 0 205 0;
#X connect 70 0 71 0;
#X connect 70 0 152 0;
#X connect 70 0 152 1;
#X connect 70 0 206 0;
#X connect 72 0 80 0;
#X connect 73 0 82 0;
#X connect 74 0 130 0;
#X connect 75 0 85 0;
#X connect 76 0 87 0;
#X connect 77 0 89 0;
#X connect 78 0 91 0;
#X connect 79 0 93 0;
#X connect 80 0 81 0;
#X connect 80 0 25 0;
#X connect 80 0 215 0;
#X connect 82 0 83 0;
#X connect 82 0 132 0;
#X connect 82 0 132 1;
#X connect 82 0 216 0;
#X connect 85 0 86 0;
#X connect 85 0 218 0;
#X connect 85 0 248 0;
#X connect 87 0 88 0;
#X connect 87 0 219 0;
#X connect 87 0 247 0;
#X connect 89 0 90 0;
#X connect 89 0 181 0;
#X connect 89 0 181 1;
#X connect 89 0 220 0;
#X connect 91 0 92 0;
#X connect 91 0 154 0;
#X connect 91 0 154 1;
#X connect 91 0 221 0;
#X connect 93 0 94 0;
#X connect 93 0 153 0;
#X connect 93 0 153 1;
#X connect 93 0 222 0;
#X connect 95 0 31 0;
#X connect 95 0 223 0;
#X connect 96 0 32 0;
#X connect 96 0 224 0;
#X connect 97 0 33 0;
#X connect 97 0 225 0;
#X connect 98 0 34 0;
#X connect 98 0 226 0;
#X connect 99 0 36 0;
#X connect 99 0 228 0;
#X connect 100 0 37 0;
#X connect 100 0 229 0;
#X connect 101 0 38 0;
#X connect 101 0 230 0;
#X connect 102 0 126 0;
#X connect 102 0 126 1;
#X connect 103 0 125 0;
#X connect 103 0 125 1;
#X connect 104 0 124 0;
#X connect 104 0 124 1;
#X connect 105 0 123 0;
#X connect 105 0 123 1;
#X connect 106 0 122 0;
#X connect 106 0 122 1;
#X connect 107 0 121 0;
#X connect 107 0 121 1;
#X connect 108 0 120 0;
#X connect 108 0 120 1;
#X connect 109 0 119 1;
#X connect 109 0 119 0;
#X connect 118 0 35 0;
#X connect 118 0 227 0;
#X connect 119 0 116 0;
#X connect 119 0 101 0;
#X connect 120 0 100 0;
#X connect 120 0 117 0;
#X connect 121 0 99 0;
#X connect 121 0 115 0;
#X connect 122 0 118 0;
#X connect 122 0 114 0;
#X connect 123 0 98 0;
#X connect 123 0 113 0;
#X connect 124 0 97 0;
#X connect 124 0 111 0;
#X connect 125 0 96 0;
#X connect 125 0 112 0;
#X connect 126 0 95 0;
#X connect 126 0 110 0;
#X connect 127 0 24 0;
#X connect 128 0 127 0;
#X connect 130 0 84 0;
#X connect 130 0 186 0;
#X connect 130 0 217 0;
#X connect 132 0 133 0;
#X connect 132 0 177 0;
#X connect 137 0 151 0;
#X connect 147 0 143 0;
#X connect 147 0 145 0;
#X connect 150 0 148 0;
#X connect 150 0 149 0;
#X connect 151 0 138 0;
#X connect 151 0 139 0;
#X connect 152 0 173 0;
#X connect 152 0 173 1;
#X connect 153 0 179 0;
#X connect 154 0 178 0;
#X connect 156 0 142 0;
#X connect 156 0 155 0;
#X connect 156 0 158 0;
#X connect 159 0 62 0;
#X connect 160 0 60 0;
#X connect 161 0 58 0;
#X connect 162 0 56 0;
#X connect 163 0 141 0;
#X connect 163 0 166 0;
#X connect 164 0 140 0;
#X connect 164 0 170 0;
#X connect 165 0 134 0;
#X connect 165 0 172 0;
#X connect 173 0 176 0;
#X connect 174 0 175 0;
#X connect 175 0 144 0;
#X connect 175 0 146 0;
#X connect 176 0 43 0;
#X connect 176 0 131 0;
#X connect 177 0 44 0;
#X connect 177 0 23 0;
#X connect 178 0 21 0;
#X connect 178 0 46 0;
#X connect 179 0 20 0;
#X connect 179 0 22 0;
#X connect 179 0 47 0;
#X connect 180 0 135 0;
#X connect 180 0 136 0;
#X connect 180 0 137 0;
#X connect 180 0 151 1;
#X connect 181 0 180 0;
#X connect 186 0 1 0;
#X connect 186 0 129 0;
#X connect 188 0 187 0;
#X connect 189 0 188 0;
#X connect 190 0 187 0;
#X connect 199 0 191 0;
#X connect 200 0 192 0;
#X connect 201 0 193 0;
#X connect 202 0 194 0;
#X connect 203 0 195 0;
#X connect 204 0 196 0;
#X connect 205 0 197 0;
#X connect 206 0 198 0;
#X connect 215 0 207 0;
#X connect 216 0 208 0;
#X connect 217 0 209 0;
#X connect 218 0 210 0;
#X connect 219 0 211 0;
#X connect 220 0 212 0;
#X connect 221 0 213 0;
#X connect 222 0 214 0;
#X connect 223 0 239 0;
#X connect 224 0 240 0;
#X connect 225 0 241 0;
#X connect 226 0 242 0;
#X connect 227 0 243 0;
#X connect 228 0 244 0;
#X connect 229 0 245 0;
#X connect 230 0 246 0;
#X connect 239 0 231 0;
#X connect 240 0 232 0;
#X connect 241 0 233 0;
#X connect 242 0 234 0;
#X connect 243 0 235 0;
#X connect 244 0 236 0;
#X connect 245 0 237 0;
#X connect 246 0 238 0;
#X connect 247 0 183 0;
#X connect 247 0 182 0;
#X connect 248 0 184 0;
#X connect 248 0 185 0;
#X restore -442 147 pd CONTROL IN;
#N canvas 0 95 450 300 INIT_SAMPLE_MACHINE 0;
#X obj -275 68 loadbang;
#X msg -275 153 \; pd dsp 1 \;;
#X obj -306 96 s lb;
#X obj -275 125 delay 2000;
#X msg -186 84 symbol dune_03.aif;
#X obj -132 114 s start;
#X obj -163 118 bng 15 250 50 0 empty empty empty 17 7 0 10 -262144
-1 -1;
#X obj -175 217 outlet;
#X connect 0 0 2 0;
#X connect 0 0 3 0;
#X connect 0 0 4 0;
#X connect 3 0 1 0;
#X connect 4 0 5 0;
#X connect 4 0 7 0;
#X connect 6 0 5 0;
#X restore -577 100 pd INIT_SAMPLE_MACHINE;
#X obj -505 237 pvu~;
#X obj -504 269 vu 15 120 empty empty -1 -8 0 10 -66577 -1 1 0;
#N canvas 2 22 523 551 MFB 1;
#X obj 48 62 inlet~ sourceAudio;
#X obj 162 328 *~;
#X obj 72 334 *~;
#X floatatom 223 154 5 0 0 0 - - -;
#X obj 223 29 r delayLength;
#X obj 339 99 r feedbackVolume1;
#X obj 59 221 pack 0 50;
#X obj 162 250 +~;
#X obj 246 241 *~ 0.5;
#X obj 105 251 knob 32 32 0 1 0 0 empty empty empty 0 -8 0 8 -262144
-1 -1 1550 1;
#X obj 224 174 delread~ del 1000;
#X obj 223 132 * 10000;
#X obj 241 295 delwrite~ del 1000;
#X obj 76 359 outlet~ channel1;
#X obj 184 358 outlet~ channel2;
#X floatatom 332 248 5 0 0 0 - - -;
#X floatatom 19 227 5 0 0 0 - - -;
#X obj 62 192 r delayVolume;
#X obj 176 279 limiter~;
#X obj 159 301 *~;
#X obj 356 337 pvu~;
#X obj 357 369 vu 15 120 empty empty -1 -8 0 10 -66577 -1 1 0;
#X obj 267 398 pvu~;
#X obj 268 430 vu 15 120 empty empty -1 -8 0 10 -66577 -1 1 0;
#X obj 340 122 pack 0 50;
#X obj 340 144 line;
#X obj 223 88 pack 0 50;
#X obj 223 110 line;
#X connect 0 0 7 0;
#X connect 1 0 14 0;
#X connect 2 0 13 0;
#X connect 3 0 10 0;
#X connect 4 0 26 0;
#X connect 5 0 24 0;
#X connect 6 0 9 0;
#X connect 7 0 12 0;
#X connect 7 0 18 0;
#X connect 7 0 19 0;
#X connect 7 0 20 0;
#X connect 8 0 7 1;
#X connect 9 0 1 1;
#X connect 9 0 2 1;
#X connect 10 0 8 0;
#X connect 11 0 3 0;
#X connect 17 0 6 0;
#X connect 17 0 16 0;
#X connect 18 0 19 1;
#X connect 19 0 1 0;
#X connect 19 0 2 0;
#X connect 19 0 22 0;
#X connect 20 0 21 0;
#X connect 22 0 23 0;
#X connect 24 0 25 0;
#X connect 25 0 15 0;
#X connect 25 0 8 1;
#X connect 26 0 27 0;
#X connect 27 0 11 0;
#X restore -653 348 pd MFB;
#N canvas 777 65 450 300 FREEVERB 1;
#X obj -479 57 pack 0 50;
#X obj -479 79 line~;
#X obj -298 62 *~;
#X obj -479 14 r verbvol;
#X floatatom -409 41 5 0 0 0 - - -;
#X obj -289 98 limiter~;
#X obj -304 120 *~;
#X obj -332 36 freeverb~;
#X msg -445 -47 roomsize \$1;
#X msg -368 -48 wet \$1;
#X msg -306 -47 dry \$1;
#X msg -518 -46 damping \$1;
#X obj -515 -112 r damping;
#X obj -446 -113 r roomsize;
#X obj -373 -112 r wet;
#X obj -306 -112 r dry;
#X msg -591 -49 width \$1;
#X obj -592 -112 r width;
#X obj -218 -26 inlet~ right;
#X obj -296 -26 inlet~ left;
#X obj -392 164 outlet~ left;
#X obj -300 167 outlet~ right;
#X obj -365 63 *~;
#X obj -356 99 limiter~;
#X obj -371 121 *~;
#X obj -202 95 pvu~;
#X obj -201 118 vu 15 120 empty empty -1 -8 0 10 -66577 -1 1 0;
#X obj -139 63 pvu~;
#X obj -138 86 vu 15 120 empty empty -1 -8 0 10 -66577 -1 1 0;
#X floatatom -560 -69 5 0 0 0 - - -;
#X obj -591 -92 pack 0 50;
#X obj -591 -70 line;
#X floatatom -486 -68 5 0 0 0 - - -;
#X obj -517 -91 pack 0 50;
#X obj -517 -69 line;
#X floatatom -414 -67 5 0 0 0 - - -;
#X obj -445 -90 pack 0 50;
#X obj -445 -68 line;
#X floatatom -344 -67 5 0 0 0 - - -;
#X obj -375 -90 pack 0 50;
#X obj -375 -68 line;
#X floatatom -275 -69 5 0 0 0 - - -;
#X obj -306 -92 pack 0 50;
#X obj -306 -70 line;
#X obj -282 198 pvu~;
#X obj -281 221 vu 15 120 empty empty -1 -8 0 10 -66577 -1 1 0;
#X obj -319 2 *~ 0.75;
#X obj -268 3 *~ 0.75;
#X msg -529 38 0.7;
#X obj -550 0 loadbang;
#X connect 0 0 1 0;
#X connect 1 0 2 1;
#X connect 1 0 22 1;
#X connect 2 0 5 0;
#X connect 2 0 6 0;
#X connect 2 0 44 0;
#X connect 3 0 0 0;
#X connect 3 0 4 0;
#X connect 5 0 6 1;
#X connect 6 0 21 0;
#X connect 7 0 22 0;
#X connect 7 1 2 0;
#X connect 7 1 25 0;
#X connect 8 0 7 0;
#X connect 9 0 7 0;
#X connect 10 0 7 0;
#X connect 11 0 7 0;
#X connect 12 0 33 0;
#X connect 13 0 36 0;
#X connect 14 0 39 0;
#X connect 15 0 42 0;
#X connect 16 0 7 0;
#X connect 17 0 30 0;
#X connect 18 0 27 0;
#X connect 18 0 47 0;
#X connect 19 0 46 0;
#X connect 22 0 23 0;
#X connect 22 0 24 0;
#X connect 23 0 24 1;
#X connect 24 0 20 0;
#X connect 25 0 26 0;
#X connect 27 0 28 0;
#X connect 30 0 31 0;
#X connect 31 0 29 0;
#X connect 31 0 16 0;
#X connect 33 0 34 0;
#X connect 34 0 32 0;
#X connect 34 0 11 0;
#X connect 36 0 37 0;
#X connect 37 0 35 0;
#X connect 37 0 8 0;
#X connect 39 0 40 0;
#X connect 40 0 38 0;
#X connect 40 0 9 0;
#X connect 42 0 43 0;
#X connect 43 0 41 0;
#X connect 43 0 10 0;
#X connect 44 0 45 0;
#X connect 46 0 7 0;
#X connect 47 0 7 1;
#X connect 48 0 0 0;
#X connect 49 0 48 0;
#X restore -572 574 pd FREEVERB;
#N canvas 725 104 450 300 CHORUSFADE 1;
#X obj -361 101 chorus3~ 10000 100;
#X obj -461 169 *~;
#X obj -439 84 r chorusFade;
#X obj -303 179 *~;
#X obj -430 172 *~;
#X obj -345 180 *~;
#X msg -362 152 1;
#X obj -391 153 -;
#X obj -450 46 inlet~;
#X obj -288 45 inlet~;
#X obj -389 303 outlet~;
#X obj -320 301 outlet~;
#X obj -302 246 limiter~;
#X obj -363 246 limiter~;
#X obj -388 279 *~;
#X obj -320 279 *~;
#X obj -375 214 +~;
#X obj -327 215 +~;
#X obj -196 202 pvu~;
#X obj -195 225 vu 15 120 empty empty -1 -8 0 10 -66577 -1 1 0;
#X obj -498 214 pack 0 50;
#X obj -498 236 line;
#X connect 0 0 5 0;
#X connect 0 1 3 0;
#X connect 0 1 18 0;
#X connect 1 0 16 0;
#X connect 2 0 20 0;
#X connect 3 0 17 1;
#X connect 4 0 17 0;
#X connect 5 0 16 1;
#X connect 6 0 7 0;
#X connect 7 0 3 1;
#X connect 7 0 5 1;
#X connect 8 0 1 0;
#X connect 8 0 0 0;
#X connect 9 0 4 0;
#X connect 9 0 0 1;
#X connect 12 0 15 1;
#X connect 13 0 14 1;
#X connect 14 0 10 0;
#X connect 15 0 11 0;
#X connect 16 0 13 0;
#X connect 16 0 14 0;
#X connect 17 0 12 0;
#X connect 17 0 15 0;
#X connect 18 0 19 0;
#X connect 20 0 21 0;
#X connect 21 0 1 1;
#X connect 21 0 4 1;
#X connect 21 0 6 0;
#X connect 21 0 7 1;
#X restore -580 599 pd CHORUSFADE;
#X obj -477 595 pvu~;
#X obj -476 618 vu 15 120 empty empty -1 -8 0 10 -66577 -1 1 0;
#X obj -594 634 pvu~;
#X obj -593 657 vu 15 120 empty empty -1 -8 0 10 -66577 -1 1 0;
#X obj -326 630 pvu~;
#X obj -325 653 vu 15 120 empty empty -1 -8 0 10 -66577 -1 1 0;
#X obj -638 590 pvu~;
#X obj -637 613 vu 15 120 empty empty -1 -8 0 10 -66577 -1 1 0;
#N canvas 617 154 450 300 GRAIN 1;
#X obj 45 101 inlet~;
#X obj 106 102 inlet~;
#X obj -14 201 outlet~;
#X obj 37 203 outlet~;
#N canvas 565 22 693 551 grain_engine 1;
#X obj 111 128 cnv 15 510 150 empty empty value 100 13 2 17 -249659
-83269 0;
#X obj 181 153 hsl 100 12 0 1 0 0 \$0-pitch \$0-pitch-r pitch -45 7
0 13 -13330 -262144 -4160 3100 1;
#X obj 290 153 hsl 100 12 0 1 0 0 \$0-pitch-rnd \$0-pitch-rnd-r random/jitter
-4 -12 2 17 -13330 -262144 -86853 3200 1;
#X obj 181 168 hsl 100 12 0 1 0 0 \$0-duration \$0-duration-r duration
-70 7 0 13 -13330 -262144 -4160 5000 1;
#X obj 290 168 hsl 100 12 0 1 0 0 \$0-duration-rnd \$0-duration-rnd-r
empty -2 -6 0 10 -13330 -262144 -1 5200 1;
#X obj 181 183 hsl 100 12 0 1 0 0 \$0-delay \$0-delay-r delay -45 7
0 13 -13330 -262144 -4160 3500 1;
#X obj 290 183 hsl 100 12 0 1 0 0 \$0-delay-rnd \$0-delay-rnd-r empty
-2 -6 0 10 -13330 -262144 -1 4400 1;
#X obj 181 199 hsl 100 12 0 1 0 0 \$0-metro \$0-metro-r metro -45 7
0 13 -13330 -262144 -4160 4300 1;
#X obj 290 199 hsl 100 12 0 1 0 0 \$0-metro-rnd \$0-metro-rnd-r empty
-2 -6 0 10 -13330 -262144 -1 6300 1;
#X obj 510 153 hsl 100 12 0 1 0 0 \$0-envelope \$0-envelope-r empty
-2 -6 0 10 -13330 -262144 -1 9900 1;
#X text 539 178 envelope;
#X obj 510 169 hsl 100 12 0 1 0 0 \$0-envelope-exp \$0-envelope-exp-r
empty -2 -6 0 10 -13330 -262144 -1 9900 1;
#X obj 456 212 hradio 15 1 0 10 \$0-load \$0-load-r preset -45 7 0
12 -175484 -262144 -1 0;
#X obj 516 193 bng 15 250 50 0 \$0-store rwiuytiuwytriu store 18 8
0 10 -262144 -1 -1;
#X obj 567 193 bng 15 250 50 0 \$0-save troiuyiurtyiutwr save 18 8
0 10 -262144 -1 -1;
#X obj 478 131 cnv 15 140 17 empty empty grannie_basher 0 8 0 16 -258108
-262144 0;
#X obj 181 214 hsl 100 12 0 1 0 0 \$0-vcf \$0-vcf-r filter -52 7 0
13 -13330 -262144 -4160 8965 1;
#X obj 181 244 hsl 100 12 0 1 0 0 \$0-feedback \$0-feedback-r feedback
-68 7 0 13 -13330 -262144 -4160 4400 1;
#X obj 398 244 hsl 100 12 0 1 0 0 \$0-feedback-time \$0-feedback-time-r
empty -2 -6 0 10 -13330 -262144 -1 6860 1;
#X obj 290 244 hsl 100 12 0 1 0 0 \$0-feedback-rnd \$0-feedback-rnd-r
empty -2 -6 0 10 -13330 -262144 -1 1000 1;
#X text 395 228 feedback time;
#X obj 290 213 hsl 100 12 0 1 0 0 \$0-vcf-rnd \$0-vcf-rnd-r empty -2
-6 0 10 -13330 -262144 -1 4700 1;
#X obj 506 244 hsl 100 12 0 1 0 0 \$0-feedback-return \$0-feedback-return-r
empty -2 -6 0 10 -13330 -262144 -1 7639 1;
#X text 503 228 feedback return;
#X obj 181 229 hsl 100 12 0 1 0 0 \$0-autopan \$0-autopan-r autopan
-60 7 0 13 -13330 -262144 -4160 2700 1;
#X obj 290 229 hsl 100 12 0 1 0 0 \$0-autopan-rnd \$0-autopan-rnd-r
empty -2 -6 0 10 -13330 -262144 -1 1700 1;
#X obj 181 259 hsl 100 12 0 1 0 0 \$0-feedback-lfo \$0-feedback-lfo-r
fb-lfo -52 7 0 13 -13330 -262144 -4160 3100 1;
#X obj 290 259 hsl 100 12 0 1 0 0 \$0-feedback-lfo-rnd \$0-feedback-lfo-rnd-r
empty -2 -6 0 10 -13330 -262144 -1 6000 1;
#X obj 398 259 hsl 100 12 0 1 0 0 \$0-feedback-lfo-depth \$0-feedback-lfo-depth-r
empty -2 -6 0 10 -13330 -262144 -1 3800 1;
#N canvas 0 22 450 300 (subpatch) 0;
#X array \$0-env 100 float 0;
#X coords 0 1 99 0 100 40 1;
#X restore 403 153 graph;
#X text 500 258 <--depth;
#X obj 72 297 inlet~;
#X obj 83 597 outlet~;
#X obj 136 596 outlet~;
#X obj 134 344 delwrite~ \$0-L-delayline 10000;
#X obj 257 301 inlet~;
#X obj 323 343 delwrite~ \$0-R-delayline 10000;
#N canvas 74 22 734 551 code 1;
#N canvas 0 22 454 304 untils 0;
#X obj 261 160 f;
#X obj 288 162 + 1;
#X obj 261 138 until;
#X msg 299 132 0;
#X obj 261 107 t f b;
#X obj 261 78 inlet;
#X obj 261 190 outlet;
#X connect 0 0 1 0;
#X connect 0 0 6 0;
#X connect 1 0 0 1;
#X connect 2 0 0 0;
#X connect 3 0 0 1;
#X connect 4 0 2 0;
#X connect 4 1 3 0;
#X connect 5 0 4 0;
#X restore 29 137 pd untils;
#X msg 31 112 100;
#X obj 57 195 moses 50;
#X obj 60 222 / 50;
#X obj 29 166 t f f;
#X obj 60 445 pack 0 0;
#X obj 102 217 - 100;
#X obj 103 238 abs;
#X obj 103 259 / 50;
#X obj 139 217 - 100;
#X obj 140 238 abs;
#X obj 63 108 t b f;
#X obj 104 291 expr (0.5 * $f1) + 0.5;
#X obj 103 335 cos;
#X obj 103 316 * 6.28318;
#X obj 103 356 * 0.5;
#X obj 103 376 + 0.5;
#X obj 59 468 s \$0-env;
#X obj 64 42 r \$0-envelope;
#X obj 64 64 * 90;
#X obj 61 86 + 5;
#X obj 157 371 t b f;
#X obj 102 404 pow 1;
#X obj 183 393 + 1;
#X obj 157 348 r \$0-envelope-exp;
#X obj 183 414 pow 4;
#X obj 631 111 r \$0-load;
#N canvas 0 22 454 304 untils 0;
#X obj 261 160 f;
#X obj 288 162 + 1;
#X obj 261 138 until;
#X msg 299 132 0;
#X obj 261 107 t f b;
#X obj 261 78 inlet;
#X obj 261 190 outlet;
#X connect 0 0 1 0;
#X connect 0 0 6 0;
#X connect 1 0 0 1;
#X connect 2 0 0 0;
#X connect 3 0 0 1;
#X connect 4 0 2 0;
#X connect 4 1 3 0;
#X connect 5 0 4 0;
#X restore 631 185 pd untils;
#X obj 631 134 t b f;
#X obj 670 251 tabread \$0-allpreset;
#X obj 631 210 t f f;
#X obj 632 276 pack 0 0;
#X obj 540 571 s \$0-pitch-r;
#X obj 541 593 s \$0-pitch-rnd-r;
#X obj 554 614 s \$0-duration-r;
#X obj 555 635 s \$0-duration-rnd-r;
#X obj 664 569 s \$0-delay-r;
#X obj 664 591 s \$0-delay-rnd-r;
#X obj 678 612 s \$0-metro-r;
#X obj 679 633 s \$0-metro-rnd-r;
#X obj 769 568 s \$0-envelope-r;
#X obj 770 591 s \$0-envelope-exp-r;
#X obj 658 230 +;
#N canvas 0 22 454 304 untils 0;
#X obj 261 160 f;
#X obj 288 162 + 1;
#X obj 261 138 until;
#X msg 299 132 0;
#X obj 261 107 t f b;
#X obj 261 78 inlet;
#X obj 261 190 outlet;
#X connect 0 0 1 0;
#X connect 0 0 6 0;
#X connect 1 0 0 1;
#X connect 2 0 0 0;
#X connect 3 0 0 1;
#X connect 4 0 2 0;
#X connect 4 1 3 0;
#X connect 5 0 4 0;
#X restore 804 156 pd untils;
#X obj 804 181 t f f;
#X obj 803 115 r \$0-store;
#X obj 850 205 tabread \$0-preset;
#X obj 805 229 pack 0 0;
#X obj 804 249 s \$0-storehouse;
#X text 791 9 LOAD/SavE PreseTS;
#X obj 627 45 table \$0-preset 22;
#X obj 777 69 table \$0-storehouse 22;
#X msg 630 163 22;
#X obj 659 164 * 22;
#X msg 803 135 22;
#X obj 632 296 route 0 1 2 3 4 5 6 7 8 9 10 11 12 13 14 15 16 17 18
19 20 21;
#N canvas 0 22 808 670 get-sliders 0;
#X obj 28 119 r \$0-pitch;
#X msg 28 140 0 \$1;
#X obj 28 162 s \$0-preset;
#X obj 97 119 r \$0-pitch-rnd;
#X obj 102 161 s \$0-preset;
#X msg 102 139 1 \$1;
#X obj 29 226 s \$0-preset;
#X obj 121 227 s \$0-preset;
#X obj 29 183 r \$0-duration;
#X obj 116 185 r \$0-duration-rnd;
#X msg 28 203 2 \$1;
#X msg 121 205 3 \$1;
#X obj 28 291 s \$0-preset;
#X obj 102 290 s \$0-preset;
#X obj 29 355 s \$0-preset;
#X obj 121 356 s \$0-preset;
#X obj 28 248 r \$0-delay;
#X obj 96 248 r \$0-delay-rnd;
#X msg 27 269 4 \$1;
#X msg 101 267 5 \$1;
#X obj 29 312 r \$0-metro;
#X obj 116 314 r \$0-metro-rnd;
#X msg 27 331 6 \$1;
#X msg 122 334 7 \$1;
#X obj 27 421 s \$0-preset;
#X obj 119 422 s \$0-preset;
#X obj 27 378 r \$0-envelope;
#X msg 28 399 8 \$1;
#X obj 114 379 r \$0-envelope-exp;
#X msg 120 399 9 \$1;
#X obj 302 128 r \$0-vcf;
#X obj 305 154 r \$0-vcf-rnd;
#X obj 304 181 r \$0-autopan;
#X obj 306 210 r \$0-autopan-rnd;
#X obj 323 240 r \$0-feedback-lfo;
#X obj 332 264 r \$0-feedback-lfo-rnd;
#X obj 343 287 r \$0-feedback-lfo-depth;
#X obj 414 132 r \$0-feedback;
#X obj 422 155 r \$0-feedback-rnd;
#X obj 434 180 r \$0-feedback-time;
#X obj 445 205 r \$0-feedback-return;
#X msg 284 335 10 \$1;
#X msg 328 332 11 \$1;
#X msg 371 333 12 \$1;
#X msg 411 336 13 \$1;
#X msg 456 338 14 \$1;
#X msg 500 340 15 \$1;
#X msg 283 366 16 \$1;
#X msg 327 361 17 \$1;
#X msg 370 367 18 \$1;
#X msg 416 368 19 \$1;
#X msg 462 369 20 \$1;
#X msg 503 369 21 \$1;
#X obj 531 272 r \$0-mix;
#X obj 367 454 s \$0-preset;
#X connect 0 0 1 0;
#X connect 1 0 2 0;
#X connect 3 0 5 0;
#X connect 5 0 4 0;
#X connect 8 0 10 0;
#X connect 9 0 11 0;
#X connect 10 0 6 0;
#X connect 11 0 7 0;
#X connect 16 0 18 0;
#X connect 17 0 19 0;
#X connect 18 0 12 0;
#X connect 19 0 13 0;
#X connect 20 0 22 0;
#X connect 21 0 23 0;
#X connect 22 0 14 0;
#X connect 23 0 15 0;
#X connect 26 0 27 0;
#X connect 27 0 24 0;
#X connect 28 0 29 0;
#X connect 29 0 25 0;
#X connect 30 0 41 0;
#X connect 31 0 42 0;
#X connect 32 0 43 0;
#X connect 33 0 44 0;
#X connect 34 0 49 0;
#X connect 35 0 50 0;
#X connect 36 0 51 0;
#X connect 37 0 45 0;
#X connect 38 0 46 0;
#X connect 39 0 47 0;
#X connect 40 0 48 0;
#X connect 41 0 54 0;
#X connect 42 0 54 0;
#X connect 43 0 54 0;
#X connect 44 0 54 0;
#X connect 45 0 54 0;
#X connect 46 0 54 0;
#X connect 47 0 54 0;
#X connect 48 0 54 0;
#X connect 49 0 54 0;
#X connect 50 0 54 0;
#X connect 51 0 54 0;
#X connect 52 0 54 0;
#X connect 53 0 52 0;
#X restore 1020 329 pd get-sliders;
#X obj 636 454 s \$0-vcf-r;
#X obj 639 479 s \$0-vcf-rnd-r;
#X obj 638 506 s \$0-autopan-r;
#X obj 641 531 s \$0-autopan-rnd-r;
#X obj 748 457 s \$0-feedback-r;
#X obj 756 480 s \$0-feedback-rnd-r;
#X obj 768 505 s \$0-feedback-time-r;
#X obj 779 530 s \$0-feedback-return-r;
#X obj 902 458 s \$0-feedback-lfo-r;
#X obj 911 482 s \$0-feedback-lfo-rnd-r;
#X obj 922 505 s \$0-feedback-lfo-depth-r;
#X obj 1047 559 s \$0-mix-r;
#N canvas 0 22 454 304 untils 0;
#X obj 261 160 f;
#X obj 288 162 + 1;
#X obj 261 138 until;
#X msg 299 132 0;
#X obj 261 107 t f b;
#X obj 261 78 inlet;
#X obj 261 190 outlet;
#X connect 0 0 1 0;
#X connect 0 0 6 0;
#X connect 1 0 0 1;
#X connect 2 0 0 0;
#X connect 3 0 0 1;
#X connect 4 0 2 0;
#X connect 4 1 3 0;
#X connect 5 0 4 0;
#X restore 1064 111 pd untils;
#X obj 1064 136 t f f;
#X obj 1065 202 pack 0 0;
#X obj 1066 169 +;
#X obj 1106 177 tabread \$0-storehouse;
#X obj 1063 224 s \$0-allpreset;
#X obj 1027 9 r \$0-save;
#X obj 1020 304 s \$0-allpreset;
#X msg 1018 276 write grannie.txt;
#X obj 1028 64 t b b b f;
#X obj 1051 250 s \$0-load-r;
#X obj 1028 38 f;
#X obj 1057 37 r \$0-load;
#X msg 1063 90 22;
#X obj 1092 90 * 22;
#X obj 326 566 s \$0-allpreset;
#X msg 324 538 read grannie.txt;
#X obj 303 496 loadbang;
#X obj 301 516 t b b;
#X obj 309 615 s \$0-load-r;
#X obj 624 67 table \$0-allpreset 220;
#X connect 0 0 4 0;
#X connect 1 0 0 0;
#X connect 2 0 3 0;
#X connect 2 1 6 0;
#X connect 3 0 12 0;
#X connect 4 0 5 0;
#X connect 4 1 2 0;
#X connect 5 0 17 0;
#X connect 6 0 7 0;
#X connect 7 0 8 0;
#X connect 8 0 12 0;
#X connect 9 0 10 0;
#X connect 10 0 8 1;
#X connect 11 0 1 0;
#X connect 11 1 9 0;
#X connect 11 1 2 1;
#X connect 11 1 3 1;
#X connect 12 0 14 0;
#X connect 13 0 15 0;
#X connect 14 0 13 0;
#X connect 15 0 16 0;
#X connect 16 0 22 0;
#X connect 18 0 19 0;
#X connect 19 0 20 0;
#X connect 20 0 11 0;
#X connect 21 0 1 0;
#X connect 21 1 23 0;
#X connect 22 0 5 1;
#X connect 23 0 25 0;
#X connect 24 0 21 0;
#X connect 25 0 22 1;
#X connect 26 0 28 0;
#X connect 27 0 30 0;
#X connect 28 0 52 0;
#X connect 28 1 53 0;
#X connect 29 0 31 1;
#X connect 30 0 31 0;
#X connect 30 1 42 0;
#X connect 31 0 55 0;
#X connect 42 0 29 0;
#X connect 43 0 44 0;
#X connect 44 0 47 0;
#X connect 44 1 46 0;
#X connect 45 0 54 0;
#X connect 46 0 47 1;
#X connect 47 0 48 0;
#X connect 52 0 27 0;
#X connect 53 0 42 1;
#X connect 54 0 43 0;
#X connect 55 0 32 0;
#X connect 55 1 33 0;
#X connect 55 2 34 0;
#X connect 55 3 35 0;
#X connect 55 4 36 0;
#X connect 55 5 37 0;
#X connect 55 6 38 0;
#X connect 55 7 39 0;
#X connect 55 8 40 0;
#X connect 55 9 41 0;
#X connect 55 10 57 0;
#X connect 55 11 58 0;
#X connect 55 12 59 0;
#X connect 55 13 60 0;
#X connect 55 14 61 0;
#X connect 55 15 62 0;
#X connect 55 16 63 0;
#X connect 55 17 64 0;
#X connect 55 18 65 0;
#X connect 55 19 66 0;
#X connect 55 20 67 0;
#X connect 55 21 68 0;
#X connect 69 0 70 0;
#X connect 70 0 72 0;
#X connect 70 1 73 0;
#X connect 71 0 74 0;
#X connect 72 0 71 0;
#X connect 73 0 71 1;
#X connect 75 0 80 0;
#X connect 77 0 76 0;
#X connect 78 0 77 0;
#X connect 78 1 79 0;
#X connect 78 2 82 0;
#X connect 78 3 83 0;
#X connect 80 0 78 0;
#X connect 81 0 80 1;
#X connect 82 0 69 0;
#X connect 83 0 72 1;
#X connect 85 0 84 0;
#X connect 86 0 87 0;
#X connect 87 0 88 0;
#X connect 87 1 85 0;
#X restore 447 404 pd code;
#X obj 559 268 hsl 60 10 0 1 0 0 \$0-mix \$0-mix-r mix 17 -6 0 12 -16662
-262144 -4160 5900 1;
#X obj 77 462 *~;
#X obj 104 462 *~;
#X obj 237 373 r \$0-mix;
#X obj 190 536 *~;
#X obj 285 534 *~;
#X obj 286 513 catch~ \$0-Right;
#X obj 190 513 catch~ \$0-Left;
#X obj 239 416 line~;
#X msg 237 395 \$1 20;
#X obj 170 419 -~ 1;
#X obj 170 439 *~ -1;
#X obj 170 458 *~ 2;
#X obj 172 479 min~ 1;
#X obj 252 450 *~ 2;
#X obj 251 471 min~ 1;
#X connect 31 0 34 0;
#X connect 31 0 39 0;
#X connect 35 0 36 0;
#X connect 35 0 40 0;
#X connect 39 0 32 0;
#X connect 40 0 33 0;
#X connect 41 0 47 0;
#X connect 42 0 32 0;
#X connect 43 0 33 0;
#X connect 44 0 43 0;
#X connect 45 0 42 0;
#X connect 46 0 48 0;
#X connect 46 0 52 0;
#X connect 47 0 46 0;
#X connect 48 0 49 0;
#X connect 49 0 50 0;
#X connect 50 0 51 0;
#X connect 51 0 40 1;
#X connect 51 0 39 1;
#X connect 52 0 53 0;
#X connect 53 0 42 1;
#X connect 53 0 43 1;
#X restore 8 124 pd grain_engine;
#X obj 7 150 *~;
#X obj 34 150 *~;
#X obj 32 56 pack 0 50;
#X obj 33 79 line~;
#X obj 32 34 r granularVolume;
#X floatatom 72 81 5 0 0 0 - - -;
#X connect 0 0 4 0;
#X connect 1 0 4 1;
#X connect 4 0 5 0;
#X connect 4 1 6 0;
#X connect 5 0 2 0;
#X connect 6 0 3 0;
#X connect 7 0 8 0;
#X connect 7 0 10 0;
#X connect 8 0 6 1;
#X connect 8 0 5 1;
#X connect 9 0 7 0;
#X restore -577 344 pd GRAIN;
#X obj -431 398 pvu~;
#X obj -430 421 vu 15 120 empty empty -1 -8 0 10 -66577 -1 1 0;
#X obj -364 632 dac~;
#X connect 1 0 7 0;
#X connect 1 0 14 0;
#X connect 1 0 21 0;
#X connect 2 0 1 0;
#X connect 3 0 2 0;
#X connect 4 0 1 0;
#X connect 5 0 4 0;
#X connect 7 0 8 0;
#X connect 9 0 10 0;
#X connect 11 0 12 0;
#X connect 13 0 16 0;
#X connect 14 0 19 0;
#X connect 14 0 32 0;
#X connect 14 0 32 1;
#X connect 16 0 14 1;
#X connect 18 0 1 1;
#X connect 19 0 20 0;
#X connect 21 0 9 0;
#X connect 21 0 22 0;
#X connect 21 0 32 0;
#X connect 21 1 11 0;
#X connect 21 1 22 1;
#X connect 21 1 32 1;
#X connect 21 1 35 1;
#X connect 21 1 28 0;
#X connect 22 0 23 0;
#X connect 22 0 30 0;
#X connect 22 1 23 1;
#X connect 22 1 24 0;
#X connect 23 0 15 0;
#X connect 23 0 26 0;
#X connect 24 0 25 0;
#X connect 26 0 27 0;
#X connect 28 0 29 0;
#X connect 30 0 31 0;
#X connect 32 0 22 0;
#X connect 32 1 22 1;
#X connect 32 1 33 0;
#X connect 32 1 35 1;
#X connect 32 1 28 0;
#X connect 33 0 34 0;
