#N canvas 131 23 1094 603 10;
#X declare -lib mrpeach;
#X obj -448 125 import mrpeach;
#X msg -666 98 0;
#X obj -666 78 r start;
#X msg -614 101 1;
#X obj -614 78 r stop;
#N canvas 541 77 738 420 jumpy 1;
#X obj 135 -952 s filejumper;
#X obj 11 -1150 r but1;
#X msg 26 -1085 0;
#X obj 58 -1150 r but2;
#X obj 105 -1150 r but3;
#X obj 149 -1150 r but4;
#X obj 195 -1150 r but5;
#X obj 244 -1150 r but6;
#X obj 293 -1150 r but7;
#X obj 341 -1150 r but8;
#X msg 73 -1085 0.125;
#X msg 120 -1085 0.25;
#X msg 164 -1085 0.375;
#X msg 210 -1085 0.5;
#X msg 259 -1085 0.625;
#X msg 308 -1085 0.75;
#X msg 356 -1085 0.875;
#X floatatom 119 -1026 5 0 0 0 - - -;
#N canvas 87 76 548 407 trueRandom100 0;
#X obj -470 -434 outlet;
#X obj -439 -736 time;
#X obj -441 -693 +;
#X obj -431 -663 +;
#X obj -447 -617 +;
#X obj -439 -798 loadbang;
#X obj -439 -767 t b b;
#X obj -448 -585 pack s f;
#X msg -486 -610 seed;
#X msg -467 -532 \$1 \$2;
#X obj -511 -507 bng 15 250 50 0 empty empty empty 17 7 0 10 -262144
-1 -1;
#X obj -467 -484 random 99;
#X obj -469 -459 + 1;
#X obj -509 -434 print;
#X obj -493 -807 inlet;
#X connect 1 0 2 0;
#X connect 1 1 3 0;
#X connect 1 2 2 1;
#X connect 1 3 3 1;
#X connect 2 0 4 0;
#X connect 3 0 4 1;
#X connect 4 0 7 1;
#X connect 5 0 6 0;
#X connect 6 0 8 0;
#X connect 6 1 1 0;
#X connect 7 0 9 0;
#X connect 8 0 7 0;
#X connect 9 0 10 0;
#X connect 9 0 11 0;
#X connect 10 0 11 0;
#X connect 11 0 12 0;
#X connect 12 0 0 0;
#X connect 12 0 13 0;
#X connect 14 0 6 0;
#X restore 169 -1026 pd trueRandom100;
#X floatatom 198 -973 5 0 0 0 - - -;
#X obj 135 -978 +;
#X obj 166 -997 * 0.001;
#X obj 743 -1125 r but8;
#X msg 743 -1097 0.875;
#X obj 743 -1075 r but8;
#X msg 743 -1047 0.875;
#X obj 743 -1026 r but8;
#X msg 743 -998 0.875;
#X obj 324 -1006 bng 15 250 50 0 empty empty empty 17 7 0 10 -262144
-1 -1;
#X obj 324 -1029 metro 60000;
#X obj 20 -1129 r but1;
#X obj 67 -1129 r but2;
#X obj 114 -1129 r but3;
#X obj 158 -1129 r but4;
#X obj 204 -1129 r but5;
#X obj 253 -1129 r but6;
#X obj 302 -1129 r but7;
#X obj 350 -1129 r but8;
#X obj 30 -1108 r but1;
#X obj 77 -1108 r but2;
#X obj 124 -1108 r but3;
#X obj 168 -1108 r but4;
#X obj 214 -1108 r but5;
#X obj 263 -1108 r but6;
#X obj 312 -1108 r but7;
#X obj 360 -1108 r but8;
#X connect 1 0 2 0;
#X connect 2 0 17 0;
#X connect 3 0 10 0;
#X connect 4 0 11 0;
#X connect 5 0 12 0;
#X connect 6 0 13 0;
#X connect 7 0 14 0;
#X connect 8 0 15 0;
#X connect 9 0 16 0;
#X connect 10 0 17 0;
#X connect 11 0 17 0;
#X connect 12 0 17 0;
#X connect 13 0 17 0;
#X connect 14 0 17 0;
#X connect 15 0 17 0;
#X connect 16 0 17 0;
#X connect 17 0 18 0;
#X connect 17 0 20 0;
#X connect 18 0 21 0;
#X connect 20 0 0 0;
#X connect 20 0 19 0;
#X connect 21 0 20 1;
#X connect 22 0 23 0;
#X connect 24 0 25 0;
#X connect 26 0 27 0;
#X connect 28 0 11 0;
#X connect 29 0 28 0;
#X connect 30 0 2 0;
#X connect 31 0 10 0;
#X connect 32 0 11 0;
#X connect 33 0 12 0;
#X connect 34 0 13 0;
#X connect 35 0 14 0;
#X connect 36 0 15 0;
#X connect 37 0 16 0;
#X connect 38 0 2 0;
#X connect 39 0 10 0;
#X connect 40 0 11 0;
#X connect 41 0 12 0;
#X connect 42 0 13 0;
#X connect 43 0 14 0;
#X connect 44 0 15 0;
#X connect 45 0 16 0;
#X restore -330 129 pd jumpy;
#X obj -723 76 pvu~;
#X obj -722 108 vu 15 120 empty empty -1 -8 0 10 -66577 -1 1 0;
#X obj -403 558 pvu~;
#X obj -402 590 vu 15 120 empty empty -1 -8 0 10 -66577 -1 1 0;
#X obj -332 559 pvu~;
#X obj -331 591 vu 15 120 empty empty -1 -8 0 10 -66577 -1 1 0;
#X obj -737 319 dac~;
#N canvas 582 23 1183 551 CONTROL 1;
#X obj -66 -260 unpackOSC;
#X floatatom -530 167 5 0 0 0 - - -;
#X text -1108 -8 KNOBS;
#X text -162 -229 BUTTONS;
#X obj -103 538 routeOSC /s1 /s2 /s3 /s4 /s5 /s6 /s7 /s8;
#X obj -74 -67 routeOSC /k1 /k2 /k3 /k4 /k5 /k6 /k7 /k8;
#X obj 376 -271 loadbang;
#X obj 436 -154 delay 2000;
#X msg 436 -134 100;
#X obj 454 -114 s opitch;
#X obj 492 -114 s ospeed;
#X obj -453 -148 bng 15 250 50 0 empty empty empty 17 7 0 10 -262144
-1 -1;
#X obj -357 -149 bng 15 250 50 0 empty empty empty 17 7 0 10 -262144
-1 -1;
#X obj -269 -152 bng 15 250 50 0 empty empty empty 17 7 0 10 -262144
-1 -1;
#X obj -198 -152 bng 15 250 50 0 empty empty empty 17 7 0 10 -262144
-1 -1;
#X obj -111 -149 bng 15 250 50 0 empty empty empty 17 7 0 10 -262144
-1 -1;
#X obj -30 -148 bng 15 250 50 0 empty empty empty 17 7 0 10 -262144
-1 -1;
#X obj 46 -149 bng 15 250 50 0 empty empty empty 17 7 0 10 -262144
-1 -1;
#X obj 126 -152 bng 15 250 50 0 empty empty empty 17 7 0 10 -262144
-1 -1;
#X obj 725 187 s vol;
#X obj -785 186 s opitch;
#X obj -1038 177 s ospeed;
#X obj 181 -148 bng 15 250 50 0 empty empty empty 17 7 0 10 -262144
-1 -1;
#X obj 243 -150 bng 15 250 50 0 empty empty empty 17 7 0 10 -262144
-1 -1;
#X obj 291 -147 bng 15 250 50 0 empty empty empty 17 7 0 10 -262144
-1 -1;
#X obj 342 -147 bng 15 250 50 0 empty empty empty 17 7 0 10 -262144
-1 -1;
#X obj -465 -125 s but1;
#X obj -381 -127 s but2;
#X obj -299 -125 s but3;
#X obj -210 -128 s but4;
#X obj -134 -128 s but5;
#X obj -51 -126 s but6;
#X obj 33 -128 s but7;
#X obj 128 -130 s but8;
#X obj 180 -124 s but9;
#X obj 242 -125 s but10;
#X obj 290 -125 s but11;
#X obj 339 -125 s but12;
#X floatatom 747 409 5 0 0 0 - - -;
#X floatatom -858 111 5 0 0 0 - - -;
#X floatatom -1076 106 5 0 0 0 - - -;
#X floatatom 437 121 5 0 0 0 - - -;
#X floatatom 747 248 5 0 0 0 - - -;
#X obj -1026 294 ctlin 0;
#X obj -771 285 ctlin 1;
#X obj -569 283 ctlin 2;
#X obj -346 286 ctlin 3;
#X obj -150 284 ctlin 4;
#X obj 153 294 ctlin 5;
#X obj 489 246 ctlin 6;
#X obj 783 334 ctlin 7;
#X obj -1028 315 maxlib/scale 0 127 0 1;
#X floatatom -1068 314 5 0 0 0 - - -;
#X obj -771 306 maxlib/scale 0 127 0 1;
#X floatatom -806 306 5 0 0 0 - - -;
#X obj -569 305 maxlib/scale 0 127 0 1;
#X floatatom -606 305 5 0 0 0 - - -;
#X obj -347 306 maxlib/scale 0 127 0 1;
#X floatatom -381 304 5 0 0 0 - - -;
#X obj -150 306 maxlib/scale 0 127 0 1;
#X floatatom -186 306 5 0 0 0 - - -;
#X obj 490 266 maxlib/scale 0 127 0 1;
#X obj 784 355 maxlib/scale 0 127 0 1;
#X floatatom 747 357 5 0 0 0 - - -;
#X obj -967 15 ctlin 16;
#X obj -783 22 ctlin 17;
#X obj -560 33 ctlin 18;
#X obj -379 46 ctlin 19;
#X obj -126 52 ctlin 20;
#X obj 173 46 ctlin 21;
#X obj 471 46 ctlin 22;
#X obj 718 49 ctlin 23;
#X obj -1028 43 maxlib/scale 0 127 0 1;
#X floatatom -1064 42 5 0 0 0 - - -;
#X obj -822 44 maxlib/scale 0 127 0 1;
#X floatatom -857 46 5 0 0 0 - - -;
#X floatatom -624 57 5 0 0 0 - - -;
#X obj -371 72 maxlib/scale 0 127 0 1;
#X floatatom -406 74 5 0 0 0 - - -;
#X floatatom -160 76 5 0 0 0 - - -;
#X obj 181 74 maxlib/scale 0 127 0 1;
#X obj 470 68 maxlib/scale 0 127 0 1;
#X floatatom 435 70 5 0 0 0 - - -;
#X obj 729 74 maxlib/scale 0 127 0 1;
#X floatatom 696 98 5 0 0 0 - - -;
#X obj -494 -150 b;
#X obj -402 -150 b;
#X obj -314 -153 b;
#X obj -239 -153 b;
#X obj -72 -149 b;
#X obj 1 -152 b;
#X obj 80 -154 b;
#X obj -493 -207 ctlin 32;
#X obj -402 -207 ctlin 33;
#X obj -314 -210 ctlin 34;
#X obj -239 -210 ctlin 35;
#X obj -154 -206 ctlin 36;
#X obj -72 -206 ctlin 37;
#X obj 1 -209 ctlin 38;
#X obj 80 -211 ctlin 39;
#X obj -470 -148 bng 15 250 50 0 empty empty empty 17 7 0 10 -262144
-1 -1;
#X obj -288 -152 bng 15 250 50 0 empty empty empty 17 7 0 10 -262144
-1 -1;
#X obj -375 -149 bng 15 250 50 0 empty empty empty 17 7 0 10 -262144
-1 -1;
#X obj -215 -153 bng 15 250 50 0 empty empty empty 17 7 0 10 -262144
-1 -1;
#X obj -129 -149 bng 15 250 50 0 empty empty empty 17 7 0 10 -262144
-1 -1;
#X obj -47 -148 bng 15 250 50 0 empty empty empty 17 7 0 10 -262144
-1 -1;
#X obj 108 -153 bng 15 250 50 0 empty empty empty 17 7 0 10 -262144
-1 -1;
#X obj 28 -150 bng 15 250 50 0 empty empty empty 17 7 0 10 -262144
-1 -1;
#X obj -154 -149 b;
#X obj 80 -181 spigot;
#X obj 0 -182 spigot;
#X obj -73 -178 spigot;
#X obj -154 -177 spigot;
#X obj -241 -181 spigot;
#X obj -317 -184 spigot;
#X obj -405 -180 spigot;
#X obj -495 -179 spigot;
#X msg -958 157 0.01;
#X obj -962 128 loadbang;
#X obj -589 55 maxlib/scale 0 127 0 1;
#X obj 160 221 s width;
#X obj -821 65 *;
#X floatatom -857 63 5 0 0 0 - - -;
#X floatatom -1067 352 5 0 0 0 - - -;
#X floatatom 139 172 5 0 0 0 - - -;
#X obj 262 432 s wet;
#X msg 288 374 1;
#X obj 300 431 s dry;
#X floatatom 337 431 5 0 0 0 - - -;
#X floatatom -808 341 5 0 0 0 - - -;
#X floatatom -610 340 5 0 0 0 - - -;
#X floatatom -382 327 5 0 0 0 - - -;
#X floatatom 112 408 5 0 0 0 - - -;
#X floatatom 175 198 5 0 0 0 - - -;
#X obj 147 407 s damping;
#X obj 213 221 s roomsize;
#X floatatom -130 393 5 0 0 0 - - -;
#X obj 496 352 s chorusFade;
#X obj -150 329 maxlib/scale 0 1 0 1;
#X obj 289 407 -;
#X obj 784 383 *;
#X obj 744 103 *;
#X obj 482 95 *;
#X obj -348 327 maxlib/scale 0 1 0 1;
#X obj -385 264 knob 32 32 0 127 0 0 empty empty empty 0 -8 0 8 -262144
-1 -1 0 1;
#X obj -609 265 knob 32 32 0 127 0 0 empty empty empty 0 -8 0 8 -262144
-1 -1 0 1;
#X obj -806 267 knob 32 32 0 127 0 0 empty empty empty 0 -8 0 8 -262144
-1 -1 0 1;
#X obj -1067 276 knob 32 32 0 127 0 0 empty empty empty 0 -8 0 8 -262144
-1 -1 0 1;
#X obj -774 341 maxlib/scale 0 1 0 1;
#X obj -1033 352 maxlib/scale 0 1 0 1;
#X text 512 119 Grain Return;
#X text -884 237 Shoudl random/Jitter be a param?;
#X obj 847 385 *;
#X obj 215 174 *;
#X obj 215 198 maxlib/scale 0 1 0 0.9;
#X obj 785 410 maxlib/scale 0 1 0 5;
#X obj 471 121 maxlib/scale 0 1 0.6 1;
#X obj 734 130 maxlib/scale 0 1 0.6 1;
#X obj 223 101 *;
#X floatatom -18 164 5 0 0 0 - - -;
#X obj -381 161 s feedbackVolume1;
#X floatatom -431 118 5 0 0 0 - - -;
#X obj 506 -147 udpsend;
#X obj 506 -168 packOSC;
#X obj 506 -188 r data;
#X obj -1111 400 s data;
#X obj -852 390 s data;
#X obj -644 388 s data;
#X obj -413 379 s data;
#X obj -100 472 s data;
#X obj 68 363 s data;
#X obj 429 319 s data;
#X obj 698 405 s data;
#X obj -1111 378 prepend /s1;
#X obj -852 368 prepend /s2;
#X obj -644 366 prepend /s3;
#X obj -413 357 prepend /s4;
#X obj -100 450 prepend /s5;
#X obj 68 341 prepend /s6;
#X obj 429 297 prepend /s7;
#X obj 698 383 prepend /s8;
#X obj -1051 220 s data;
#X obj -861 167 s data;
#X obj -624 215 s data;
#X obj -416 208 s data;
#X obj -144 161 s data;
#X obj 128 123 s data;
#X obj 485 218 s data;
#X obj 701 235 s data;
#X obj -1051 198 prepend /k1;
#X obj -861 145 prepend /k2;
#X obj -624 193 prepend /k3;
#X obj -416 186 prepend /k4;
#X obj -144 139 prepend /k5;
#X obj 128 101 prepend /k6;
#X obj 485 196 prepend /k7;
#X obj 701 213 prepend /k8;
#X msg -494 -126 1;
#X msg -411 -127 2;
#X msg -327 -125 3;
#X msg -239 -127 4;
#X msg -163 -127 5;
#X msg -80 -127 6;
#X msg 1 -128 7;
#X msg 76 -128 8;
#X obj -494 -82 s data;
#X obj -412 -84 s data;
#X obj -327 -81 s data;
#X obj -239 -83 s data;
#X obj -163 -80 s data;
#X obj -80 -83 s data;
#X obj 1 -83 s data;
#X obj 76 -81 s data;
#X obj -494 -104 prepend /b1;
#X obj -411 -104 prepend /b2;
#X obj -327 -103 prepend /b3;
#X obj -239 -105 prepend /b4;
#X obj -163 -102 prepend /b5;
#X obj -80 -105 prepend /b6;
#X obj 1 -105 prepend /b7;
#X obj 76 -103 prepend /b8;
#X obj -1010 80 *;
#X obj -1035 105 maxlib/scale 0 1 0.001 1;
#X obj 448 -238 delay 2000;
#X msg 482 -216 connect 10.40.6.122 4001;
#X obj -64 -282 tcpreceive 3001;
#X obj -111 -239 routeOSC /b1 /b2 /b3 /b4 /b5 /b6 /b7 /b8 /b9 /10 /b11
/b12;
#X obj -1034 377 s Speed_LFO_Amount;
#X obj -785 162 line;
#X floatatom -752 163 5 0 0 0 - - -;
#X obj -1035 155 line;
#X obj -1035 129 pack 0 2000;
#X obj -790 66 *;
#X obj -785 136 pack 0 3000;
#X obj -821 113 maxlib/scale 0 0.99 17 1500;
#X obj -614 166 s delayLength;
#X obj -583 98 maxlib/scale 0 1 10 2000;
#X obj -583 77 *;
#X obj -558 77 *;
#X obj -594 389 s delayFade;
#X obj -776 368 s Pitch_LFO_Amount;
#X obj -568 365 s Delay_LFO;
#X obj -394 115 maxlib/scale 0 1 0.01 0.8;
#X obj 381 192 s chorusStrength;
#X obj -129 106 maxlib/scale 0 1 0.01 10000;
#X obj -576 340 maxlib/scale 0 1 0.2 0.8;
#X obj 816 213 s spaceAmount;
#X obj 780 162 maxlib/scale 0 1 0 1;
#X obj 789 444 s spaceLFO;
#X obj -87 192 s flangerFeedback;
#X obj 178 127 maxlib/scale 0 1 0 1;
#X text -1011 -9 PLAYBACK SPEED;
#X text -789 -5 PLAYBACK PITCH;
#X text -544 11 DELAY;
#X text -337 21 FEEDBACK;
#X text -94 -9 CHORUS;
#X text 193 -5 REVERB;
#X text 472 -15 GRAIN;
#X text 721 -9 SPACE;
#X obj -614 143 line;
#X obj -614 117 pack 0 2000;
#X obj 177 174 line;
#X obj 177 149 pack 0 1000;
#X obj 783 245 s distortionAmount;
#X obj 778 214 line;
#X obj 778 188 pack 0 1000;
#X obj -51 163 line;
#X obj -51 137 pack 0 2500;
#X obj -160 423 s flangerEffect;
#X obj -94 391 line;
#X obj -94 365 pack 0 2500;
#X obj -125 74 maxlib/scale 10 127 0 1;
#X obj 152 385 maxlib/scale 0 1 0 1.6;
#X floatatom 117 385 5 0 0 0 - - -;
#X obj 147 362 line;
#X obj 144 341 pack 0 1000;
#X obj 208 364 s reverbMix;
#X obj 221 342 maxlib/scale 0 127 0.15 0.85;
#X obj 154 317 maxlib/scale 0 127 0.5 1;
#X obj 775 542 s lfp;
#X floatatom 733 502 5 0 0 0 - - -;
#X obj 775 500 pack 0 600;
#X obj 774 519 line;
#X floatatom 752 281 5 0 0 0 - - -;
#X obj 788 308 s hpf;
#X obj 777 477 maxlib/scale 0 1 200 8000;
#X floatatom 383 164 5 0 0 0 - - -;
#X obj 421 166 line;
#X obj 421 141 pack 0 1000;
#X obj 389 630 s \$0-feedback-return-r;
#X text 410 648 Grain Time (feedback time);
#X obj 372 665 s \$0-feedback-time-r;
#X obj 467 570 s \$0-envelope-r;
#X text 472 552 Grain Envelope;
#X obj 389 594 s \$0-envelope-exp-r;
#X text 379 610 Grain Filter;
#X floatatom 499 321 5 0 0 0 - - -;
#X obj 537 323 line;
#X obj 537 298 pack 0 1000;
#X obj 791 282 maxlib/scale 0 1 1 20;
#X obj -1137 -148 bng 15 250 50 0 empty empty empty 17 7 0 10 -262144
-1 -1;
#X obj -1041 -149 bng 15 250 50 0 empty empty empty 17 7 0 10 -262144
-1 -1;
#X obj -953 -152 bng 15 250 50 0 empty empty empty 17 7 0 10 -262144
-1 -1;
#X obj -882 -152 bng 15 250 50 0 empty empty empty 17 7 0 10 -262144
-1 -1;
#X obj -795 -149 bng 15 250 50 0 empty empty empty 17 7 0 10 -262144
-1 -1;
#X obj -714 -148 bng 15 250 50 0 empty empty empty 17 7 0 10 -262144
-1 -1;
#X obj -638 -149 bng 15 250 50 0 empty empty empty 17 7 0 10 -262144
-1 -1;
#X obj -558 -152 bng 15 250 50 0 empty empty empty 17 7 0 10 -262144
-1 -1;
#X obj -1149 -125 s but1;
#X obj -1065 -127 s but2;
#X obj -983 -125 s but3;
#X obj -894 -128 s but4;
#X obj -818 -128 s but5;
#X obj -735 -126 s but6;
#X obj -651 -128 s but7;
#X obj -556 -130 s but8;
#X obj -1178 -150 b;
#X obj -1086 -150 b;
#X obj -998 -153 b;
#X obj -923 -153 b;
#X obj -756 -149 b;
#X obj -683 -152 b;
#X obj -604 -154 b;
#X obj -1154 -148 bng 15 250 50 0 empty empty empty 17 7 0 10 -262144
-1 -1;
#X obj -972 -152 bng 15 250 50 0 empty empty empty 17 7 0 10 -262144
-1 -1;
#X obj -1059 -149 bng 15 250 50 0 empty empty empty 17 7 0 10 -262144
-1 -1;
#X obj -899 -153 bng 15 250 50 0 empty empty empty 17 7 0 10 -262144
-1 -1;
#X obj -813 -149 bng 15 250 50 0 empty empty empty 17 7 0 10 -262144
-1 -1;
#X obj -731 -148 bng 15 250 50 0 empty empty empty 17 7 0 10 -262144
-1 -1;
#X obj -576 -153 bng 15 250 50 0 empty empty empty 17 7 0 10 -262144
-1 -1;
#X obj -656 -150 bng 15 250 50 0 empty empty empty 17 7 0 10 -262144
-1 -1;
#X obj -838 -149 b;
#X obj -604 -181 spigot;
#X obj -684 -182 spigot;
#X obj -757 -178 spigot;
#X obj -838 -177 spigot;
#X obj -925 -181 spigot;
#X obj -1001 -184 spigot;
#X obj -1089 -180 spigot;
#X obj -1179 -179 spigot;
#X msg -1178 -126 1;
#X msg -1095 -127 2;
#X msg -1011 -125 3;
#X msg -923 -127 4;
#X msg -847 -127 5;
#X msg -764 -127 6;
#X msg -683 -128 7;
#X msg -608 -128 8;
#X obj -1178 -82 s data;
#X obj -1096 -84 s data;
#X obj -1011 -81 s data;
#X obj -923 -83 s data;
#X obj -847 -80 s data;
#X obj -764 -83 s data;
#X obj -683 -83 s data;
#X obj -608 -81 s data;
#X obj -1178 -104 prepend /b1;
#X obj -1095 -104 prepend /b2;
#X obj -1011 -103 prepend /b3;
#X obj -923 -105 prepend /b4;
#X obj -847 -102 prepend /b5;
#X obj -764 -105 prepend /b6;
#X obj -683 -105 prepend /b7;
#X obj -608 -103 prepend /b8;
#X obj -1124 -307 bng 15 250 50 0 empty empty empty 17 7 0 10 -262144
-1 -1;
#X obj -1028 -308 bng 15 250 50 0 empty empty empty 17 7 0 10 -262144
-1 -1;
#X obj -940 -311 bng 15 250 50 0 empty empty empty 17 7 0 10 -262144
-1 -1;
#X obj -869 -311 bng 15 250 50 0 empty empty empty 17 7 0 10 -262144
-1 -1;
#X obj -782 -308 bng 15 250 50 0 empty empty empty 17 7 0 10 -262144
-1 -1;
#X obj -701 -307 bng 15 250 50 0 empty empty empty 17 7 0 10 -262144
-1 -1;
#X obj -625 -308 bng 15 250 50 0 empty empty empty 17 7 0 10 -262144
-1 -1;
#X obj -545 -311 bng 15 250 50 0 empty empty empty 17 7 0 10 -262144
-1 -1;
#X obj -1136 -284 s but1;
#X obj -1052 -286 s but2;
#X obj -970 -284 s but3;
#X obj -881 -287 s but4;
#X obj -805 -287 s but5;
#X obj -722 -285 s but6;
#X obj -638 -287 s but7;
#X obj -543 -289 s but8;
#X obj -1165 -309 b;
#X obj -1073 -309 b;
#X obj -985 -312 b;
#X obj -910 -312 b;
#X obj -743 -308 b;
#X obj -670 -311 b;
#X obj -591 -313 b;
#X obj -1141 -307 bng 15 250 50 0 empty empty empty 17 7 0 10 -262144
-1 -1;
#X obj -959 -311 bng 15 250 50 0 empty empty empty 17 7 0 10 -262144
-1 -1;
#X obj -1046 -308 bng 15 250 50 0 empty empty empty 17 7 0 10 -262144
-1 -1;
#X obj -886 -312 bng 15 250 50 0 empty empty empty 17 7 0 10 -262144
-1 -1;
#X obj -800 -308 bng 15 250 50 0 empty empty empty 17 7 0 10 -262144
-1 -1;
#X obj -718 -307 bng 15 250 50 0 empty empty empty 17 7 0 10 -262144
-1 -1;
#X obj -563 -312 bng 15 250 50 0 empty empty empty 17 7 0 10 -262144
-1 -1;
#X obj -643 -309 bng 15 250 50 0 empty empty empty 17 7 0 10 -262144
-1 -1;
#X obj -825 -308 b;
#X obj -591 -340 spigot;
#X obj -671 -341 spigot;
#X obj -744 -337 spigot;
#X obj -825 -336 spigot;
#X obj -912 -340 spigot;
#X obj -988 -343 spigot;
#X obj -1076 -339 spigot;
#X obj -1166 -338 spigot;
#X msg -1165 -285 1;
#X msg -1082 -286 2;
#X msg -998 -284 3;
#X msg -910 -286 4;
#X msg -834 -286 5;
#X msg -751 -286 6;
#X msg -670 -287 7;
#X msg -595 -287 8;
#X obj -1165 -241 s data;
#X obj -1083 -243 s data;
#X obj -998 -240 s data;
#X obj -910 -242 s data;
#X obj -834 -239 s data;
#X obj -751 -242 s data;
#X obj -670 -242 s data;
#X obj -595 -240 s data;
#X obj -1165 -263 prepend /b1;
#X obj -1082 -263 prepend /b2;
#X obj -998 -262 prepend /b3;
#X obj -910 -264 prepend /b4;
#X obj -834 -261 prepend /b5;
#X obj -751 -264 prepend /b6;
#X obj -670 -264 prepend /b7;
#X obj -595 -262 prepend /b8;
#X obj -1164 -366 ctlin 48;
#X obj -1073 -366 ctlin 49;
#X obj -985 -369 ctlin 50;
#X obj -910 -369 ctlin 51;
#X obj -825 -365 ctlin 52;
#X obj -743 -365 ctlin 53;
#X obj -670 -368 ctlin 54;
#X obj -591 -370 ctlin 55;
#X obj -1177 -207 ctlin 64;
#X obj -1086 -207 ctlin 65;
#X obj -998 -210 ctlin 66;
#X obj -923 -210 ctlin 67;
#X obj -838 -206 ctlin 68;
#X obj -756 -206 ctlin 69;
#X obj -683 -209 ctlin 70;
#X obj -604 -211 ctlin 71;
#X obj -1176 -225 ctlin 43;
#X obj -1117 -225 ctlin 44;
#X obj -1058 -224 ctlin 42;
#X obj -1001 -224 ctlin 41;
#X obj -856 -225 ctlin 45;
#X obj -772 -227 ctlin 60;
#X obj -693 -228 ctlin 61;
#X obj -626 -229 ctlin 62;
#X obj -914 -46 ctlin 58;
#X obj -833 -35 ctlin 59;
#X obj -761 -33 ctlin 60;
#X connect 0 0 4 0;
#X connect 0 0 5 0;
#X connect 0 0 226 0;
#X connect 4 0 149 0;
#X connect 4 1 148 0;
#X connect 4 2 245 0;
#X connect 4 3 143 0;
#X connect 4 7 140 0;
#X connect 4 7 140 1;
#X connect 5 0 221 0;
#X connect 5 0 221 1;
#X connect 5 1 234 0;
#X connect 5 2 237 1;
#X connect 5 2 237 0;
#X connect 5 3 242 0;
#X connect 5 4 244 0;
#X connect 5 5 158 0;
#X connect 5 5 158 1;
#X connect 5 6 156 0;
#X connect 5 7 157 0;
#X connect 5 7 247 0;
#X connect 6 0 7 0;
#X connect 6 0 223 0;
#X connect 7 0 8 0;
#X connect 8 0 9 0;
#X connect 8 0 10 0;
#X connect 11 0 26 0;
#X connect 12 0 27 0;
#X connect 13 0 28 0;
#X connect 14 0 29 0;
#X connect 15 0 30 0;
#X connect 16 0 31 0;
#X connect 17 0 32 0;
#X connect 18 0 33 0;
#X connect 22 0 34 0;
#X connect 23 0 35 0;
#X connect 24 0 36 0;
#X connect 25 0 37 0;
#X connect 43 0 51 0;
#X connect 44 0 53 0;
#X connect 45 0 55 0;
#X connect 46 0 57 0;
#X connect 47 0 59 0;
#X connect 48 0 277 0;
#X connect 48 0 278 0;
#X connect 49 0 61 0;
#X connect 50 0 62 0;
#X connect 51 0 52 0;
#X connect 51 0 149 0;
#X connect 51 0 173 0;
#X connect 53 0 54 0;
#X connect 53 0 148 0;
#X connect 53 0 174 0;
#X connect 55 0 56 0;
#X connect 55 0 175 0;
#X connect 55 0 245 0;
#X connect 57 0 58 0;
#X connect 57 0 143 0;
#X connect 57 0 176 0;
#X connect 59 0 60 0;
#X connect 59 0 138 0;
#X connect 59 0 177 0;
#X connect 61 0 179 0;
#X connect 61 0 298 0;
#X connect 62 0 63 0;
#X connect 62 0 140 0;
#X connect 62 0 140 1;
#X connect 62 0 180 0;
#X connect 62 0 285 0;
#X connect 64 0 72 0;
#X connect 65 0 74 0;
#X connect 66 0 119 0;
#X connect 67 0 77 0;
#X connect 68 0 271 0;
#X connect 69 0 80 0;
#X connect 70 0 81 0;
#X connect 71 0 83 0;
#X connect 72 0 73 0;
#X connect 72 0 189 0;
#X connect 72 0 221 0;
#X connect 72 0 221 1;
#X connect 74 0 75 0;
#X connect 74 0 121 0;
#X connect 74 0 121 1;
#X connect 74 0 190 0;
#X connect 77 0 78 0;
#X connect 77 0 192 0;
#X connect 77 0 242 0;
#X connect 80 0 158 0;
#X connect 80 0 158 1;
#X connect 80 0 194 0;
#X connect 81 0 82 0;
#X connect 81 0 142 0;
#X connect 81 0 142 1;
#X connect 81 0 195 0;
#X connect 81 0 288 0;
#X connect 83 0 84 0;
#X connect 83 0 141 0;
#X connect 83 0 141 1;
#X connect 83 0 196 0;
#X connect 83 0 247 0;
#X connect 85 0 26 0;
#X connect 85 0 197 0;
#X connect 86 0 27 0;
#X connect 86 0 198 0;
#X connect 87 0 28 0;
#X connect 87 0 199 0;
#X connect 88 0 29 0;
#X connect 88 0 200 0;
#X connect 89 0 31 0;
#X connect 89 0 202 0;
#X connect 90 0 32 0;
#X connect 90 0 203 0;
#X connect 91 0 33 0;
#X connect 91 0 204 0;
#X connect 92 0 116 0;
#X connect 92 0 116 1;
#X connect 93 0 115 0;
#X connect 93 0 115 1;
#X connect 94 0 114 0;
#X connect 94 0 114 1;
#X connect 95 0 113 0;
#X connect 95 0 113 1;
#X connect 96 0 112 0;
#X connect 96 0 112 1;
#X connect 97 0 111 0;
#X connect 97 0 111 1;
#X connect 98 0 110 0;
#X connect 98 0 110 1;
#X connect 99 0 109 1;
#X connect 99 0 109 0;
#X connect 108 0 30 0;
#X connect 108 0 201 0;
#X connect 109 0 106 0;
#X connect 109 0 91 0;
#X connect 110 0 90 0;
#X connect 110 0 107 0;
#X connect 111 0 89 0;
#X connect 111 0 105 0;
#X connect 112 0 108 0;
#X connect 112 0 104 0;
#X connect 113 0 88 0;
#X connect 113 0 103 0;
#X connect 114 0 87 0;
#X connect 114 0 101 0;
#X connect 115 0 86 0;
#X connect 115 0 102 0;
#X connect 116 0 85 0;
#X connect 116 0 100 0;
#X connect 117 0 21 0;
#X connect 118 0 117 0;
#X connect 119 0 76 0;
#X connect 119 0 191 0;
#X connect 119 0 237 0;
#X connect 119 0 237 1;
#X connect 121 0 122 0;
#X connect 121 0 232 0;
#X connect 121 0 232 1;
#X connect 126 0 139 0;
#X connect 138 0 270 0;
#X connect 139 0 127 0;
#X connect 139 0 128 0;
#X connect 140 0 152 0;
#X connect 140 0 152 1;
#X connect 141 0 157 0;
#X connect 142 0 156 0;
#X connect 143 0 131 0;
#X connect 144 0 57 0;
#X connect 145 0 55 0;
#X connect 146 0 53 0;
#X connect 147 0 51 0;
#X connect 148 0 129 0;
#X connect 148 0 240 0;
#X connect 149 0 123 0;
#X connect 149 0 227 0;
#X connect 152 0 155 0;
#X connect 153 0 154 0;
#X connect 154 0 133 0;
#X connect 154 0 135 0;
#X connect 154 0 120 0;
#X connect 155 0 38 0;
#X connect 155 0 248 0;
#X connect 156 0 41 0;
#X connect 157 0 19 0;
#X connect 158 0 250 0;
#X connect 163 0 162 0;
#X connect 164 0 163 0;
#X connect 173 0 165 0;
#X connect 174 0 166 0;
#X connect 175 0 167 0;
#X connect 176 0 168 0;
#X connect 177 0 169 0;
#X connect 178 0 170 0;
#X connect 179 0 171 0;
#X connect 180 0 172 0;
#X connect 189 0 181 0;
#X connect 190 0 182 0;
#X connect 191 0 183 0;
#X connect 192 0 184 0;
#X connect 193 0 185 0;
#X connect 194 0 186 0;
#X connect 195 0 187 0;
#X connect 196 0 188 0;
#X connect 197 0 213 0;
#X connect 198 0 214 0;
#X connect 199 0 215 0;
#X connect 200 0 216 0;
#X connect 201 0 217 0;
#X connect 202 0 218 0;
#X connect 203 0 219 0;
#X connect 204 0 220 0;
#X connect 213 0 205 0;
#X connect 214 0 206 0;
#X connect 215 0 207 0;
#X connect 216 0 208 0;
#X connect 217 0 209 0;
#X connect 218 0 210 0;
#X connect 219 0 211 0;
#X connect 220 0 212 0;
#X connect 221 0 222 0;
#X connect 222 0 40 0;
#X connect 222 0 231 0;
#X connect 224 0 162 0;
#X connect 225 0 0 0;
#X connect 226 0 11 0;
#X connect 226 1 12 0;
#X connect 226 2 13 0;
#X connect 226 3 14 0;
#X connect 226 4 15 0;
#X connect 226 5 16 0;
#X connect 226 6 17 0;
#X connect 226 7 18 0;
#X connect 226 8 22 0;
#X connect 226 9 23 0;
#X connect 226 10 24 0;
#X connect 226 11 25 0;
#X connect 228 0 229 0;
#X connect 228 0 20 0;
#X connect 230 0 21 0;
#X connect 230 0 40 0;
#X connect 231 0 230 0;
#X connect 232 0 234 0;
#X connect 233 0 228 0;
#X connect 234 0 39 0;
#X connect 234 0 233 0;
#X connect 236 0 260 0;
#X connect 237 0 238 0;
#X connect 237 0 238 1;
#X connect 238 0 236 0;
#X connect 242 0 161 0;
#X connect 242 0 160 0;
#X connect 245 0 130 0;
#X connect 245 0 241 0;
#X connect 245 0 239 0;
#X connect 247 0 265 0;
#X connect 250 0 262 0;
#X connect 259 0 235 0;
#X connect 259 0 1 0;
#X connect 260 0 259 0;
#X connect 261 0 124 0;
#X connect 261 0 153 1;
#X connect 261 0 153 0;
#X connect 262 0 261 0;
#X connect 264 0 263 0;
#X connect 264 0 246 0;
#X connect 264 0 42 0;
#X connect 264 0 299 0;
#X connect 265 0 264 0;
#X connect 266 0 249 0;
#X connect 266 0 159 0;
#X connect 267 0 266 0;
#X connect 269 0 268 0;
#X connect 269 0 136 0;
#X connect 270 0 269 0;
#X connect 271 0 79 0;
#X connect 271 0 193 0;
#X connect 271 0 244 0;
#X connect 271 0 267 0;
#X connect 272 0 132 0;
#X connect 272 0 134 0;
#X connect 274 0 273 0;
#X connect 274 0 272 0;
#X connect 274 0 126 0;
#X connect 274 0 125 0;
#X connect 274 0 139 1;
#X connect 275 0 274 0;
#X connect 277 0 276 0;
#X connect 278 0 178 0;
#X connect 278 0 275 0;
#X connect 278 0 272 0;
#X connect 281 0 282 0;
#X connect 282 0 279 0;
#X connect 282 0 280 0;
#X connect 285 0 281 0;
#X connect 287 0 286 0;
#X connect 287 0 243 0;
#X connect 288 0 287 0;
#X connect 297 0 296 0;
#X connect 297 0 137 0;
#X connect 298 0 297 0;
#X connect 299 0 283 0;
#X connect 299 0 284 0;
#X connect 300 0 308 0;
#X connect 301 0 309 0;
#X connect 302 0 310 0;
#X connect 303 0 311 0;
#X connect 304 0 312 0;
#X connect 305 0 313 0;
#X connect 306 0 314 0;
#X connect 307 0 315 0;
#X connect 316 0 308 0;
#X connect 316 0 340 0;
#X connect 317 0 309 0;
#X connect 317 0 341 0;
#X connect 318 0 310 0;
#X connect 318 0 342 0;
#X connect 319 0 311 0;
#X connect 319 0 343 0;
#X connect 320 0 313 0;
#X connect 320 0 345 0;
#X connect 321 0 314 0;
#X connect 321 0 346 0;
#X connect 322 0 315 0;
#X connect 322 0 347 0;
#X connect 331 0 312 0;
#X connect 331 0 344 0;
#X connect 332 0 329 0;
#X connect 332 0 322 0;
#X connect 333 0 321 0;
#X connect 333 0 330 0;
#X connect 334 0 320 0;
#X connect 334 0 328 0;
#X connect 335 0 331 0;
#X connect 335 0 327 0;
#X connect 336 0 319 0;
#X connect 336 0 326 0;
#X connect 337 0 318 0;
#X connect 337 0 324 0;
#X connect 338 0 317 0;
#X connect 338 0 325 0;
#X connect 339 0 316 0;
#X connect 339 0 323 0;
#X connect 340 0 356 0;
#X connect 341 0 357 0;
#X connect 342 0 358 0;
#X connect 343 0 359 0;
#X connect 344 0 360 0;
#X connect 345 0 361 0;
#X connect 346 0 362 0;
#X connect 347 0 363 0;
#X connect 356 0 348 0;
#X connect 357 0 349 0;
#X connect 358 0 350 0;
#X connect 359 0 351 0;
#X connect 360 0 352 0;
#X connect 361 0 353 0;
#X connect 362 0 354 0;
#X connect 363 0 355 0;
#X connect 364 0 372 0;
#X connect 365 0 373 0;
#X connect 366 0 374 0;
#X connect 367 0 375 0;
#X connect 368 0 376 0;
#X connect 369 0 377 0;
#X connect 370 0 378 0;
#X connect 371 0 379 0;
#X connect 380 0 372 0;
#X connect 380 0 404 0;
#X connect 381 0 373 0;
#X connect 381 0 405 0;
#X connect 382 0 374 0;
#X connect 382 0 406 0;
#X connect 383 0 375 0;
#X connect 383 0 407 0;
#X connect 384 0 377 0;
#X connect 384 0 409 0;
#X connect 385 0 378 0;
#X connect 385 0 410 0;
#X connect 386 0 379 0;
#X connect 386 0 411 0;
#X connect 395 0 376 0;
#X connect 395 0 408 0;
#X connect 396 0 393 0;
#X connect 396 0 386 0;
#X connect 397 0 385 0;
#X connect 397 0 394 0;
#X connect 398 0 384 0;
#X connect 398 0 392 0;
#X connect 399 0 395 0;
#X connect 399 0 391 0;
#X connect 400 0 383 0;
#X connect 400 0 390 0;
#X connect 401 0 382 0;
#X connect 401 0 388 0;
#X connect 402 0 381 0;
#X connect 402 0 389 0;
#X connect 403 0 380 0;
#X connect 403 0 387 0;
#X connect 404 0 420 0;
#X connect 405 0 421 0;
#X connect 406 0 422 0;
#X connect 407 0 423 0;
#X connect 408 0 424 0;
#X connect 409 0 425 0;
#X connect 410 0 426 0;
#X connect 411 0 427 0;
#X connect 420 0 412 0;
#X connect 421 0 413 0;
#X connect 422 0 414 0;
#X connect 423 0 415 0;
#X connect 424 0 416 0;
#X connect 425 0 417 0;
#X connect 426 0 418 0;
#X connect 427 0 419 0;
#X connect 428 0 403 0;
#X connect 428 0 403 1;
#X connect 429 0 402 0;
#X connect 429 0 402 1;
#X connect 430 0 401 0;
#X connect 430 0 401 1;
#X connect 431 0 400 0;
#X connect 431 0 400 1;
#X connect 432 0 399 0;
#X connect 432 0 399 1;
#X connect 433 0 398 0;
#X connect 433 0 398 1;
#X connect 434 0 397 0;
#X connect 434 0 397 1;
#X connect 435 0 396 1;
#X connect 435 0 396 0;
#X connect 436 0 339 0;
#X connect 436 0 339 1;
#X connect 437 0 338 0;
#X connect 437 0 338 1;
#X connect 438 0 337 0;
#X connect 438 0 337 1;
#X connect 439 0 336 0;
#X connect 439 0 336 1;
#X connect 440 0 335 0;
#X connect 440 0 335 1;
#X connect 441 0 334 0;
#X connect 441 0 334 1;
#X connect 442 0 333 0;
#X connect 442 0 333 1;
#X connect 443 0 332 1;
#X connect 443 0 332 0;
#X connect 444 0 339 0;
#X connect 444 0 339 1;
#X connect 445 0 338 0;
#X connect 445 0 338 1;
#X connect 446 0 337 0;
#X connect 446 0 337 1;
#X connect 447 0 336 0;
#X connect 447 0 336 1;
#X connect 448 0 335 0;
#X connect 448 0 335 1;
#X connect 449 0 334 0;
#X connect 449 0 334 1;
#X connect 450 0 333 0;
#X connect 450 1 333 1;
#X connect 451 0 332 0;
#X connect 451 0 332 1;
#X connect 452 0 339 0;
#X connect 452 1 339 1;
#X connect 453 0 338 0;
#X connect 453 1 338 1;
#X connect 454 0 336 0;
#X connect 454 1 336 1;
#X restore -442 147 pd CONTROL IN;
#N canvas 72 92 450 300 INIT_SAMPLE_MACHINE 0;
#X obj -275 68 loadbang;
#X msg -275 153 \; pd dsp 1 \;;
#X obj -306 96 s lb;
#X obj -275 125 delay 2000;
#X msg -186 84 symbol dune_03.aif;
#X obj -132 114 s start;
#X obj -163 118 bng 15 250 50 0 empty empty empty 17 7 0 10 -262144
-1 -1;
#X obj -175 217 outlet;
#X connect 0 0 2 0;
#X connect 0 0 3 0;
#X connect 0 0 4 0;
#X connect 3 0 1 0;
#X connect 4 0 5 0;
#X connect 4 0 7 0;
#X connect 6 0 5 0;
#X restore -577 100 pd INIT_SAMPLE_MACHINE;
#N canvas 13 23 492 603 FREEVERB 0;
#X obj -273 65 limiter~;
#X obj -289 104 *~;
#X obj -332 36 freeverb~;
#X msg -445 -47 roomsize \$1;
#X msg -368 -48 wet \$1;
#X msg -306 -47 dry \$1;
#X msg -518 -46 damping \$1;
#X obj -515 -112 r damping;
#X obj -446 -113 r roomsize;
#X obj -373 -112 r wet;
#X obj -306 -112 r dry;
#X msg -591 -49 width \$1;
#X obj -592 -112 r width;
#X obj -218 -26 inlet~ right;
#X obj -296 -26 inlet~ left;
#X obj -395 204 outlet~ left;
#X obj -303 207 outlet~ right;
#X obj -340 66 limiter~;
#X obj -356 105 *~;
#X obj -300 229 pvu~;
#X obj -299 252 vu 15 120 empty empty -1 -8 0 10 -66577 -1 1 0;
#X obj -139 63 pvu~;
#X obj -138 86 vu 15 120 empty empty -1 -8 0 10 -66577 -1 1 0;
#X floatatom -560 -69 5 0 0 0 - - -;
#X obj -591 -92 pack 0 50;
#X obj -591 -70 line;
#X floatatom -486 -68 5 0 0 0 - - -;
#X obj -517 -91 pack 0 50;
#X obj -517 -69 line;
#X floatatom -414 -67 5 0 0 0 - - -;
#X obj -445 -90 pack 0 50;
#X obj -445 -68 line;
#X floatatom -344 -67 5 0 0 0 - - -;
#X obj -375 -90 pack 0 50;
#X obj -375 -68 line;
#X floatatom -275 -69 5 0 0 0 - - -;
#X obj -306 -92 pack 0 50;
#X obj -306 -70 line;
#X obj -388 230 pvu~;
#X obj -387 253 vu 15 120 empty empty -1 -8 0 10 -66577 -1 1 0;
#X obj -319 2 *~ 0.75;
#X obj -268 3 *~ 0.75;
#X obj -293 152 -;
#X msg -293 128 1;
#X obj -367 129 r reverbMix;
#X obj -308 175 *~;
#X obj -346 174 *~;
#X floatatom -263 154 5 0 0 0 - - -;
#X floatatom -388 172 5 0 0 0 - - -;
#X connect 0 0 1 1;
#X connect 1 0 45 0;
#X connect 2 0 18 0;
#X connect 2 0 17 0;
#X connect 2 1 1 0;
#X connect 2 1 0 0;
#X connect 3 0 2 0;
#X connect 4 0 2 0;
#X connect 5 0 2 0;
#X connect 6 0 2 0;
#X connect 7 0 27 0;
#X connect 8 0 30 0;
#X connect 9 0 33 0;
#X connect 10 0 36 0;
#X connect 11 0 2 0;
#X connect 12 0 24 0;
#X connect 13 0 21 0;
#X connect 13 0 41 0;
#X connect 14 0 40 0;
#X connect 17 0 18 1;
#X connect 18 0 46 0;
#X connect 19 0 20 0;
#X connect 21 0 22 0;
#X connect 24 0 25 0;
#X connect 25 0 23 0;
#X connect 25 0 11 0;
#X connect 27 0 28 0;
#X connect 28 0 26 0;
#X connect 28 0 6 0;
#X connect 30 0 31 0;
#X connect 31 0 29 0;
#X connect 31 0 3 0;
#X connect 33 0 34 0;
#X connect 34 0 32 0;
#X connect 34 0 4 0;
#X connect 36 0 37 0;
#X connect 37 0 35 0;
#X connect 37 0 5 0;
#X connect 38 0 39 0;
#X connect 40 0 2 0;
#X connect 41 0 2 1;
#X connect 42 0 45 1;
#X connect 42 0 47 0;
#X connect 43 0 42 0;
#X connect 44 0 42 1;
#X connect 44 0 43 0;
#X connect 44 0 46 1;
#X connect 44 0 48 0;
#X connect 45 0 19 0;
#X connect 45 0 16 0;
#X connect 46 0 38 0;
#X connect 46 0 15 0;
#X restore -555 542 pd FREEVERB;
#N canvas 22 23 555 492 CHORUSFADE 0;
#X obj -389 182 *~;
#X obj -496 -4 r chorusFade;
#X obj -303 180 *~;
#X obj -329 180 *~;
#X obj -359 182 *~;
#X msg -544 64 1;
#X obj -519 86 -;
#X obj -385 36 inlet~;
#X obj -320 33 inlet~;
#X obj -389 343 outlet~;
#X obj -320 341 outlet~;
#X obj -302 246 limiter~;
#X obj -363 246 limiter~;
#X obj -388 279 *~;
#X obj -320 279 *~;
#X obj -377 218 +~;
#X obj -322 203 +~;
#X obj -495 19 pack 0 50;
#X obj -495 41 line;
#X obj -198 25 r chorusStrength;
#X obj -198 54 s $cs;
#X floatatom -148 56 5 0 0 0 - - -;
#X floatatom -472 76 5 0 0 0 - - -;
#X floatatom -474 105 5 0 0 0 - - -;
#X obj -256 358 pvu~;
#X obj -255 381 vu 15 120 empty empty -1 -8 0 10 -66577 -1 1 0;
#X obj -432 367 pvu~;
#X obj -431 390 vu 15 120 empty empty -1 -8 0 10 -66577 -1 1 0;
#N canvas 45 117 1272 551 chorus 0;
#X obj 189 269 cos~;
#X obj 189 292 +~ 1;
#X obj 276 268 cos~;
#X obj 276 291 +~ 1;
#X obj 283 589 outlet~;
#X obj 375 267 cos~;
#X obj 375 290 +~ 1;
#X obj 470 265 cos~;
#X obj 470 288 +~ 1;
#X obj 24 42 inlet~;
#X obj 545 294 line~;
#X obj 545 273 pack 0 50;
#X obj 470 349 *~;
#X obj 375 351 *~;
#X obj 276 352 *~;
#X obj 189 353 *~;
#X obj 190 104 line~;
#X obj 190 83 pack 0 50;
#X obj 189 134 phasor~;
#X text 619 248 modulation;
#X obj 470 386 +~ 0;
#X obj 376 386 +~ 0;
#X obj 276 389 +~ 0;
#X obj 190 386 +~ 0;
#N canvas 314 253 450 300 sampledur 0;
#X obj 70 100 samplerate~;
#X obj 70 144 swap 1000;
#X obj 70 172 /;
#X obj 70 51 loadbang;
#X msg 82 77 bang;
#X obj 70 205 outlet;
#X connect 0 0 1 0;
#X connect 1 0 2 0;
#X connect 1 1 2 1;
#X connect 2 0 5 0;
#X connect 3 0 0 0;
#X connect 4 0 0 0;
#X restore 556 353 pd sampledur;
#X obj 24 73 *~ 0.5;
#X obj 535 208 loadbang;
#X obj 535 230 0.2;
#X obj 276 224 wrap~;
#X obj 374 228 wrap~;
#X obj 469 228 wrap~;
#X obj 190 61 / 8;
#X text 187 17 frequency;
#X obj 276 203 *~ 2;
#X obj 374 207 *~ 4;
#X obj 469 207 *~ 8;
#X obj 189 37 inlet frequency;
#X obj 545 249 inlet modulation;
#X obj 234 453 +~;
#X obj 399 454 +~;
#X obj 308 524 +~;
#X obj 24 101 delwrite~ \$0-d 2000;
#X obj 189 414 vd~ \$0-d;
#X obj 276 414 vd~ \$0-d;
#X obj 375 412 vd~ \$0-d;
#X obj 470 410 vd~ \$0-d;
#X connect 0 0 1 0;
#X connect 1 0 15 0;
#X connect 2 0 3 0;
#X connect 3 0 14 0;
#X connect 5 0 6 0;
#X connect 6 0 13 0;
#X connect 7 0 8 0;
#X connect 8 0 12 0;
#X connect 9 0 25 0;
#X connect 10 0 12 1;
#X connect 10 0 13 1;
#X connect 10 0 14 1;
#X connect 10 0 15 1;
#X connect 11 0 10 0;
#X connect 12 0 20 0;
#X connect 13 0 21 0;
#X connect 14 0 22 0;
#X connect 15 0 23 0;
#X connect 16 0 18 0;
#X connect 17 0 16 0;
#X connect 18 0 0 0;
#X connect 18 0 33 0;
#X connect 18 0 34 0;
#X connect 18 0 35 0;
#X connect 20 0 45 0;
#X connect 21 0 44 0;
#X connect 22 0 43 0;
#X connect 23 0 42 0;
#X connect 24 0 20 1;
#X connect 24 0 21 1;
#X connect 24 0 22 1;
#X connect 24 0 23 1;
#X connect 25 0 41 0;
#X connect 26 0 27 0;
#X connect 27 0 10 0;
#X connect 28 0 2 0;
#X connect 29 0 5 0;
#X connect 30 0 7 0;
#X connect 31 0 17 0;
#X connect 33 0 28 0;
#X connect 34 0 29 0;
#X connect 35 0 30 0;
#X connect 36 0 31 0;
#X connect 37 0 11 0;
#X connect 38 0 40 0;
#X connect 39 0 40 1;
#X connect 40 0 4 0;
#X connect 42 0 38 0;
#X connect 43 0 38 1;
#X connect 44 0 39 0;
#X connect 45 0 39 1;
#X restore -286 107 pd chorus;
#X obj -239 45 * 100;
#N canvas 45 117 1272 551 chorus 0;
#X obj 189 269 cos~;
#X obj 189 292 +~ 1;
#X obj 276 268 cos~;
#X obj 276 291 +~ 1;
#X obj 283 589 outlet~;
#X obj 375 267 cos~;
#X obj 375 290 +~ 1;
#X obj 470 265 cos~;
#X obj 470 288 +~ 1;
#X obj 24 42 inlet~;
#X obj 545 294 line~;
#X obj 545 273 pack 0 50;
#X obj 470 349 *~;
#X obj 375 351 *~;
#X obj 276 352 *~;
#X obj 189 353 *~;
#X obj 190 104 line~;
#X obj 190 83 pack 0 50;
#X obj 189 134 phasor~;
#X text 619 248 modulation;
#X obj 470 386 +~ 0;
#X obj 376 386 +~ 0;
#X obj 276 389 +~ 0;
#X obj 190 386 +~ 0;
#N canvas 314 253 450 300 sampledur 0;
#X obj 70 100 samplerate~;
#X obj 70 144 swap 1000;
#X obj 70 172 /;
#X obj 70 51 loadbang;
#X msg 82 77 bang;
#X obj 70 205 outlet;
#X connect 0 0 1 0;
#X connect 1 0 2 0;
#X connect 1 1 2 1;
#X connect 2 0 5 0;
#X connect 3 0 0 0;
#X connect 4 0 0 0;
#X restore 556 353 pd sampledur;
#X obj 24 73 *~ 0.5;
#X obj 535 208 loadbang;
#X obj 535 230 0.2;
#X obj 276 224 wrap~;
#X obj 374 228 wrap~;
#X obj 469 228 wrap~;
#X obj 190 61 / 8;
#X text 187 17 frequency;
#X obj 276 203 *~ 2;
#X obj 374 207 *~ 4;
#X obj 469 207 *~ 8;
#X obj 189 37 inlet frequency;
#X obj 545 249 inlet modulation;
#X obj 234 453 +~;
#X obj 399 454 +~;
#X obj 308 524 +~;
#X obj 24 101 delwrite~ \$0-d 2000;
#X obj 189 414 vd~ \$0-d;
#X obj 276 414 vd~ \$0-d;
#X obj 375 412 vd~ \$0-d;
#X obj 470 410 vd~ \$0-d;
#X connect 0 0 1 0;
#X connect 1 0 15 0;
#X connect 2 0 3 0;
#X connect 3 0 14 0;
#X connect 5 0 6 0;
#X connect 6 0 13 0;
#X connect 7 0 8 0;
#X connect 8 0 12 0;
#X connect 9 0 25 0;
#X connect 10 0 12 1;
#X connect 10 0 13 1;
#X connect 10 0 14 1;
#X connect 10 0 15 1;
#X connect 11 0 10 0;
#X connect 12 0 20 0;
#X connect 13 0 21 0;
#X connect 14 0 22 0;
#X connect 15 0 23 0;
#X connect 16 0 18 0;
#X connect 17 0 16 0;
#X connect 18 0 0 0;
#X connect 18 0 33 0;
#X connect 18 0 34 0;
#X connect 18 0 35 0;
#X connect 20 0 45 0;
#X connect 21 0 44 0;
#X connect 22 0 43 0;
#X connect 23 0 42 0;
#X connect 24 0 20 1;
#X connect 24 0 21 1;
#X connect 24 0 22 1;
#X connect 24 0 23 1;
#X connect 25 0 41 0;
#X connect 26 0 27 0;
#X connect 27 0 10 0;
#X connect 28 0 2 0;
#X connect 29 0 5 0;
#X connect 30 0 7 0;
#X connect 31 0 17 0;
#X connect 33 0 28 0;
#X connect 34 0 29 0;
#X connect 35 0 30 0;
#X connect 36 0 31 0;
#X connect 37 0 11 0;
#X connect 38 0 40 0;
#X connect 39 0 40 1;
#X connect 40 0 4 0;
#X connect 42 0 38 0;
#X connect 43 0 38 1;
#X connect 44 0 39 0;
#X connect 45 0 39 1;
#X restore -376 101 pd chorus;
#X obj -348 65 * 50;
#X obj -306 66 * 3;
#X obj -320 301 *~;
#X obj -387 307 *~;
#X obj -227 184 line;
#X obj -209 158 pack 50;
#X floatatom -213 205 5 0 0 0 - - -;
#X obj -242 223 -;
#X msg -241 204 1;
#X floatatom -214 224 5 0 0 0 - - -;
#X connect 0 0 15 0;
#X connect 1 0 17 0;
#X connect 2 0 16 1;
#X connect 3 0 16 0;
#X connect 4 0 15 1;
#X connect 5 0 6 0;
#X connect 6 0 2 1;
#X connect 6 0 4 1;
#X connect 6 0 23 0;
#X connect 7 0 30 0;
#X connect 8 0 28 0;
#X connect 11 0 14 1;
#X connect 12 0 13 1;
#X connect 13 0 34 0;
#X connect 14 0 33 0;
#X connect 15 0 12 0;
#X connect 15 0 13 0;
#X connect 16 0 11 0;
#X connect 16 0 14 0;
#X connect 17 0 18 0;
#X connect 18 0 5 0;
#X connect 18 0 6 1;
#X connect 18 0 3 1;
#X connect 18 0 0 1;
#X connect 18 0 22 0;
#X connect 19 0 20 0;
#X connect 19 0 21 0;
#X connect 19 0 28 2;
#X connect 19 0 29 0;
#X connect 19 0 31 0;
#X connect 19 0 32 0;
#X connect 19 0 36 0;
#X connect 24 0 25 0;
#X connect 26 0 27 0;
#X connect 28 0 2 0;
#X connect 28 0 4 0;
#X connect 29 0 28 1;
#X connect 30 0 0 0;
#X connect 30 0 3 0;
#X connect 31 0 30 1;
#X connect 32 0 30 2;
#X connect 33 0 10 0;
#X connect 33 0 24 0;
#X connect 34 0 9 0;
#X connect 34 0 26 0;
#X connect 35 0 34 1;
#X connect 35 0 37 0;
#X connect 35 0 38 1;
#X connect 35 0 39 0;
#X connect 36 0 35 0;
#X connect 38 0 33 1;
#X connect 38 0 40 0;
#X connect 39 0 38 0;
#X restore -759 287 pd CHORUSFADE;
#X obj -493 572 pvu~;
#X obj -492 595 vu 15 120 empty empty -1 -8 0 10 -66577 -1 1 0;
#X obj -773 322 pvu~;
#X obj -772 345 vu 15 120 empty empty -1 -8 0 10 -66577 -1 1 0;
#X obj -555 569 pvu~;
#X obj -554 592 vu 15 120 empty empty -1 -8 0 10 -66577 -1 1 0;
#N canvas 617 154 450 300 GRAIN 1;
#X obj 15 101 inlet~;
#X obj 76 102 inlet~;
#X obj -13 177 outlet~;
#X obj 50 176 outlet~;
#N canvas 565 22 693 551 grain_engine 1;
#X obj 111 128 cnv 15 510 150 empty empty value 100 13 2 17 -249659
-83269 0;
#X obj 181 153 hsl 100 12 0 1 0 0 \$0-pitch \$0-pitch-r pitch -45 7
0 13 -13330 -262144 -4160 3100 1;
#X obj 290 153 hsl 100 12 0 1 0 0 \$0-pitch-rnd \$0-pitch-rnd-r random/jitter
-4 -12 2 17 -13330 -262144 -86853 3200 1;
#X obj 181 168 hsl 100 12 0 1 0 0 \$0-duration \$0-duration-r duration
-70 7 0 13 -13330 -262144 -4160 5000 1;
#X obj 290 168 hsl 100 12 0 1 0 0 \$0-duration-rnd \$0-duration-rnd-r
empty -2 -6 0 10 -13330 -262144 -1 5200 1;
#X obj 181 183 hsl 100 12 0 1 0 0 \$0-delay \$0-delay-r delay -45 7
0 13 -13330 -262144 -4160 3500 1;
#X obj 290 183 hsl 100 12 0 1 0 0 \$0-delay-rnd \$0-delay-rnd-r empty
-2 -6 0 10 -13330 -262144 -1 4400 1;
#X obj 181 199 hsl 100 12 0 1 0 0 \$0-metro \$0-metro-r metro -45 7
0 13 -13330 -262144 -4160 4300 1;
#X obj 290 199 hsl 100 12 0 1 0 0 \$0-metro-rnd \$0-metro-rnd-r empty
-2 -6 0 10 -13330 -262144 -1 6300 1;
#X obj 510 153 hsl 100 12 0 1 0 0 \$0-envelope \$0-envelope-r empty
-2 -6 0 10 -13330 -262144 -1 0 1;
#X text 539 178 envelope;
#X obj 510 169 hsl 100 12 0 1 0 0 \$0-envelope-exp \$0-envelope-exp-r
empty -2 -6 0 10 -13330 -262144 -1 0 1;
#X obj 456 212 hradio 15 1 0 10 \$0-load \$0-load-r preset -45 7 0
12 -175484 -262144 -1 0;
#X obj 516 193 bng 15 250 50 0 \$0-store rwiuytiuwytriu store 18 8
0 10 -262144 -1 -1;
#X obj 567 193 bng 15 250 50 0 \$0-save troiuyiurtyiutwr save 18 8
0 10 -262144 -1 -1;
#X obj 478 131 cnv 15 140 17 empty empty grannie_basher 0 8 0 16 -258108
-262144 0;
#X obj 181 214 hsl 100 12 0 1 0 0 \$0-vcf \$0-vcf-r filter -52 7 0
13 -13330 -262144 -4160 5400 1;
#X obj 181 244 hsl 100 12 0 1 0 0 \$0-feedback \$0-feedback-r feedback
-68 7 0 13 -13330 -262144 -4160 4400 1;
#X obj 398 244 hsl 100 12 0 1 0 0 \$0-feedback-time \$0-feedback-time-r
empty -2 -6 0 10 -13330 -262144 -1 4400 1;
#X obj 290 244 hsl 100 12 0 1 0 0 \$0-feedback-rnd \$0-feedback-rnd-r
empty -2 -6 0 10 -13330 -262144 -1 1000 1;
#X text 395 228 feedback time;
#X obj 290 213 hsl 100 12 0 1 0 0 \$0-vcf-rnd \$0-vcf-rnd-r empty -2
-6 0 10 -13330 -262144 -1 4700 1;
#X obj 506 244 hsl 100 12 0 1 0 0 \$0-feedback-return \$0-feedback-return-r
empty -2 -6 0 10 -13330 -262144 -1 3100 1;
#X text 503 228 feedback return;
#X obj 180 229 hsl 100 12 0 1 0 0 \$0-autopan \$0-autopan-r autopan
-60 7 0 13 -13330 -262144 -4160 2700 1;
#X obj 290 229 hsl 100 12 0 1 0 0 \$0-autopan-rnd \$0-autopan-rnd-r
empty -2 -6 0 10 -13330 -262144 -1 1700 1;
#X obj 181 259 hsl 100 12 0 1 0 0 \$0-feedback-lfo \$0-feedback-lfo-r
fb-lfo -52 7 0 13 -13330 -262144 -4160 3100 1;
#X obj 290 259 hsl 100 12 0 1 0 0 \$0-feedback-lfo-rnd \$0-feedback-lfo-rnd-r
empty -2 -6 0 10 -13330 -262144 -1 6000 1;
#X obj 398 259 hsl 100 12 0 1 0 0 \$0-feedback-lfo-depth \$0-feedback-lfo-depth-r
empty -2 -6 0 10 -13330 -262144 -1 3800 1;
#N canvas 0 22 450 300 (subpatch) 0;
#X array \$0-env 100 float 0;
#X coords 0 1 99 0 100 40 1;
#X restore 403 153 graph;
#X text 500 258 <--depth;
#X obj 72 297 inlet~;
#X obj 83 597 outlet~;
#X obj 136 596 outlet~;
#X obj 114 395 inlet~;
#N canvas 74 22 734 551 code 0;
#N canvas 0 22 454 304 untils 0;
#X obj 261 160 f;
#X obj 288 162 + 1;
#X obj 261 138 until;
#X msg 299 132 0;
#X obj 261 107 t f b;
#X obj 261 78 inlet;
#X obj 261 190 outlet;
#X connect 0 0 1 0;
#X connect 0 0 6 0;
#X connect 1 0 0 1;
#X connect 2 0 0 0;
#X connect 3 0 0 1;
#X connect 4 0 2 0;
#X connect 4 1 3 0;
#X connect 5 0 4 0;
#X restore 29 137 pd untils;
#X msg 31 112 100;
#X obj 57 195 moses 50;
#X obj 60 222 / 50;
#X obj 29 166 t f f;
#X obj 60 445 pack 0 0;
#X obj 102 217 - 100;
#X obj 103 238 abs;
#X obj 103 259 / 50;
#X obj 139 217 - 100;
#X obj 140 238 abs;
#X obj 63 108 t b f;
#X obj 104 291 expr (0.5 * $f1) + 0.5;
#X obj 103 335 cos;
#X obj 103 316 * 6.28318;
#X obj 103 356 * 0.5;
#X obj 103 376 + 0.5;
#X obj 59 468 s \$0-env;
#X obj 64 42 r \$0-envelope;
#X obj 64 64 * 90;
#X obj 61 86 + 5;
#X obj 157 371 t b f;
#X obj 102 404 pow 1;
#X obj 183 393 + 1;
#X obj 157 348 r \$0-envelope-exp;
#X obj 183 414 pow 4;
#X obj 631 111 r \$0-load;
#N canvas 0 22 454 304 untils 0;
#X obj 261 160 f;
#X obj 288 162 + 1;
#X obj 261 138 until;
#X msg 299 132 0;
#X obj 261 107 t f b;
#X obj 261 78 inlet;
#X obj 261 190 outlet;
#X connect 0 0 1 0;
#X connect 0 0 6 0;
#X connect 1 0 0 1;
#X connect 2 0 0 0;
#X connect 3 0 0 1;
#X connect 4 0 2 0;
#X connect 4 1 3 0;
#X connect 5 0 4 0;
#X restore 631 185 pd untils;
#X obj 631 134 t b f;
#X obj 670 251 tabread \$0-allpreset;
#X obj 631 210 t f f;
#X obj 632 276 pack 0 0;
#X obj 540 571 s \$0-pitch-r;
#X obj 541 593 s \$0-pitch-rnd-r;
#X obj 554 614 s \$0-duration-r;
#X obj 555 635 s \$0-duration-rnd-r;
#X obj 664 569 s \$0-delay-r;
#X obj 664 591 s \$0-delay-rnd-r;
#X obj 678 612 s \$0-metro-r;
#X obj 679 633 s \$0-metro-rnd-r;
#X obj 769 568 s \$0-envelope-r;
#X obj 770 591 s \$0-envelope-exp-r;
#X obj 658 230 +;
#N canvas 0 22 454 304 untils 0;
#X obj 261 160 f;
#X obj 288 162 + 1;
#X obj 261 138 until;
#X msg 299 132 0;
#X obj 261 107 t f b;
#X obj 261 78 inlet;
#X obj 261 190 outlet;
#X connect 0 0 1 0;
#X connect 0 0 6 0;
#X connect 1 0 0 1;
#X connect 2 0 0 0;
#X connect 3 0 0 1;
#X connect 4 0 2 0;
#X connect 4 1 3 0;
#X connect 5 0 4 0;
#X restore 804 156 pd untils;
#X obj 804 181 t f f;
#X obj 803 115 r \$0-store;
#X obj 850 205 tabread \$0-preset;
#X obj 805 229 pack 0 0;
#X obj 804 249 s \$0-storehouse;
#X text 791 9 LOAD/SavE PreseTS;
#X obj 627 45 table \$0-preset 22;
#X obj 777 69 table \$0-storehouse 22;
#X msg 630 163 22;
#X obj 659 164 * 22;
#X msg 803 135 22;
#X obj 632 296 route 0 1 2 3 4 5 6 7 8 9 10 11 12 13 14 15 16 17 18
19 20 21;
#N canvas 0 22 808 670 get-sliders 0;
#X obj 28 119 r \$0-pitch;
#X msg 28 140 0 \$1;
#X obj 28 162 s \$0-preset;
#X obj 97 119 r \$0-pitch-rnd;
#X obj 102 161 s \$0-preset;
#X msg 102 139 1 \$1;
#X obj 29 226 s \$0-preset;
#X obj 121 227 s \$0-preset;
#X obj 29 183 r \$0-duration;
#X obj 116 185 r \$0-duration-rnd;
#X msg 28 203 2 \$1;
#X msg 121 205 3 \$1;
#X obj 28 291 s \$0-preset;
#X obj 102 290 s \$0-preset;
#X obj 29 355 s \$0-preset;
#X obj 121 356 s \$0-preset;
#X obj 28 248 r \$0-delay;
#X obj 96 248 r \$0-delay-rnd;
#X msg 27 269 4 \$1;
#X msg 101 267 5 \$1;
#X obj 29 312 r \$0-metro;
#X obj 116 314 r \$0-metro-rnd;
#X msg 27 331 6 \$1;
#X msg 122 334 7 \$1;
#X obj 27 421 s \$0-preset;
#X obj 119 422 s \$0-preset;
#X obj 27 378 r \$0-envelope;
#X msg 28 399 8 \$1;
#X obj 114 379 r \$0-envelope-exp;
#X msg 120 399 9 \$1;
#X obj 302 128 r \$0-vcf;
#X obj 305 154 r \$0-vcf-rnd;
#X obj 304 181 r \$0-autopan;
#X obj 306 210 r \$0-autopan-rnd;
#X obj 323 240 r \$0-feedback-lfo;
#X obj 332 264 r \$0-feedback-lfo-rnd;
#X obj 343 287 r \$0-feedback-lfo-depth;
#X obj 414 132 r \$0-feedback;
#X obj 422 155 r \$0-feedback-rnd;
#X obj 434 180 r \$0-feedback-time;
#X obj 445 205 r \$0-feedback-return;
#X msg 284 335 10 \$1;
#X msg 328 332 11 \$1;
#X msg 371 333 12 \$1;
#X msg 411 336 13 \$1;
#X msg 456 338 14 \$1;
#X msg 500 340 15 \$1;
#X msg 283 366 16 \$1;
#X msg 327 361 17 \$1;
#X msg 370 367 18 \$1;
#X msg 416 368 19 \$1;
#X msg 462 369 20 \$1;
#X msg 503 369 21 \$1;
#X obj 531 272 r \$0-mix;
#X obj 367 454 s \$0-preset;
#X connect 0 0 1 0;
#X connect 1 0 2 0;
#X connect 3 0 5 0;
#X connect 5 0 4 0;
#X connect 8 0 10 0;
#X connect 9 0 11 0;
#X connect 10 0 6 0;
#X connect 11 0 7 0;
#X connect 16 0 18 0;
#X connect 17 0 19 0;
#X connect 18 0 12 0;
#X connect 19 0 13 0;
#X connect 20 0 22 0;
#X connect 21 0 23 0;
#X connect 22 0 14 0;
#X connect 23 0 15 0;
#X connect 26 0 27 0;
#X connect 27 0 24 0;
#X connect 28 0 29 0;
#X connect 29 0 25 0;
#X connect 30 0 41 0;
#X connect 31 0 42 0;
#X connect 32 0 43 0;
#X connect 33 0 44 0;
#X connect 34 0 49 0;
#X connect 35 0 50 0;
#X connect 36 0 51 0;
#X connect 37 0 45 0;
#X connect 38 0 46 0;
#X connect 39 0 47 0;
#X connect 40 0 48 0;
#X connect 41 0 54 0;
#X connect 42 0 54 0;
#X connect 43 0 54 0;
#X connect 44 0 54 0;
#X connect 45 0 54 0;
#X connect 46 0 54 0;
#X connect 47 0 54 0;
#X connect 48 0 54 0;
#X connect 49 0 54 0;
#X connect 50 0 54 0;
#X connect 51 0 54 0;
#X connect 52 0 54 0;
#X connect 53 0 52 0;
#X restore 1020 329 pd get-sliders;
#X obj 636 454 s \$0-vcf-r;
#X obj 639 479 s \$0-vcf-rnd-r;
#X obj 638 506 s \$0-autopan-r;
#X obj 641 531 s \$0-autopan-rnd-r;
#X obj 748 457 s \$0-feedback-r;
#X obj 756 480 s \$0-feedback-rnd-r;
#X obj 768 505 s \$0-feedback-time-r;
#X obj 779 530 s \$0-feedback-return-r;
#X obj 902 458 s \$0-feedback-lfo-r;
#X obj 911 482 s \$0-feedback-lfo-rnd-r;
#X obj 922 505 s \$0-feedback-lfo-depth-r;
#X obj 1047 559 s \$0-mix-r;
#N canvas 0 22 454 304 untils 0;
#X obj 261 160 f;
#X obj 288 162 + 1;
#X obj 261 138 until;
#X msg 299 132 0;
#X obj 261 107 t f b;
#X obj 261 78 inlet;
#X obj 261 190 outlet;
#X connect 0 0 1 0;
#X connect 0 0 6 0;
#X connect 1 0 0 1;
#X connect 2 0 0 0;
#X connect 3 0 0 1;
#X connect 4 0 2 0;
#X connect 4 1 3 0;
#X connect 5 0 4 0;
#X restore 1064 111 pd untils;
#X obj 1064 136 t f f;
#X obj 1065 202 pack 0 0;
#X obj 1066 169 +;
#X obj 1106 177 tabread \$0-storehouse;
#X obj 1063 224 s \$0-allpreset;
#X obj 1027 9 r \$0-save;
#X obj 1020 304 s \$0-allpreset;
#X msg 1018 276 write grannie.txt;
#X obj 1028 64 t b b b f;
#X obj 1051 250 s \$0-load-r;
#X obj 1028 38 f;
#X obj 1057 37 r \$0-load;
#X msg 1063 90 22;
#X obj 1092 90 * 22;
#X obj 326 566 s \$0-allpreset;
#X msg 324 538 read grannie.txt;
#X obj 303 496 loadbang;
#X obj 301 516 t b b;
#X obj 309 615 s \$0-load-r;
#X obj 624 67 table \$0-allpreset 220;
#X obj 303 323 pvu~;
#X obj 304 346 vu 15 120 empty empty -1 -8 0 10 -66577 -1 1 0;
#X floatatom 124 467 5 0 0 0 - - -;
#X connect 0 0 4 0;
#X connect 1 0 0 0;
#X connect 2 0 3 0;
#X connect 2 1 6 0;
#X connect 3 0 12 0;
#X connect 4 0 5 0;
#X connect 4 1 2 0;
#X connect 5 0 17 0;
#X connect 5 0 92 0;
#X connect 6 0 7 0;
#X connect 7 0 8 0;
#X connect 8 0 12 0;
#X connect 9 0 10 0;
#X connect 10 0 8 1;
#X connect 11 0 1 0;
#X connect 11 1 9 0;
#X connect 11 1 2 1;
#X connect 11 1 3 1;
#X connect 12 0 14 0;
#X connect 13 0 15 0;
#X connect 14 0 13 0;
#X connect 15 0 16 0;
#X connect 16 0 22 0;
#X connect 18 0 19 0;
#X connect 19 0 20 0;
#X connect 20 0 11 0;
#X connect 21 0 1 0;
#X connect 21 1 23 0;
#X connect 22 0 5 1;
#X connect 23 0 25 0;
#X connect 24 0 21 0;
#X connect 25 0 22 1;
#X connect 26 0 28 0;
#X connect 27 0 30 0;
#X connect 28 0 52 0;
#X connect 28 1 53 0;
#X connect 29 0 31 1;
#X connect 30 0 31 0;
#X connect 30 1 42 0;
#X connect 31 0 55 0;
#X connect 42 0 29 0;
#X connect 43 0 44 0;
#X connect 44 0 47 0;
#X connect 44 1 46 0;
#X connect 45 0 54 0;
#X connect 46 0 47 1;
#X connect 47 0 48 0;
#X connect 52 0 27 0;
#X connect 53 0 42 1;
#X connect 54 0 43 0;
#X connect 55 0 32 0;
#X connect 55 1 33 0;
#X connect 55 2 34 0;
#X connect 55 3 35 0;
#X connect 55 4 36 0;
#X connect 55 5 37 0;
#X connect 55 6 38 0;
#X connect 55 7 39 0;
#X connect 55 8 40 0;
#X connect 55 9 41 0;
#X connect 55 10 57 0;
#X connect 55 11 58 0;
#X connect 55 12 59 0;
#X connect 55 13 60 0;
#X connect 55 14 61 0;
#X connect 55 15 62 0;
#X connect 55 16 63 0;
#X connect 55 17 64 0;
#X connect 55 18 65 0;
#X connect 55 19 66 0;
#X connect 55 20 67 0;
#X connect 55 21 68 0;
#X connect 69 0 70 0;
#X connect 70 0 72 0;
#X connect 70 1 73 0;
#X connect 71 0 74 0;
#X connect 72 0 71 0;
#X connect 73 0 71 1;
#X connect 75 0 80 0;
#X connect 77 0 76 0;
#X connect 78 0 77 0;
#X connect 78 1 79 0;
#X connect 78 2 82 0;
#X connect 78 3 83 0;
#X connect 80 0 78 0;
#X connect 81 0 80 1;
#X connect 82 0 69 0;
#X connect 83 0 72 1;
#X connect 85 0 84 0;
#X connect 86 0 87 0;
#X connect 87 0 88 0;
#X connect 87 1 85 0;
#X connect 90 0 91 0;
#X restore 365 409 pd code;
#X obj 557 268 hsl 60 10 0 1 0 0 \$0-mix \$0-mix-r mix 17 -6 0 12 -16662
-262144 -4160 5900 1;
#X obj 139 540 catch~ \$0-Right;
#X obj 35 540 catch~ \$0-Left;
#X obj 35 563 *~ 1;
#X obj 138 561 *~ 1;
#X obj 134 344 delwrite~ \$0-L-delayline 1000;
#X obj 126 420 delwrite~ \$0-R-delayline 1000;
#X obj 260 465 pvu~;
#X obj 261 488 vu 15 120 empty empty -1 -8 0 10 -66577 -1 1 0;
#X obj 112 462 *~ 1;
#X obj 77 462 *~ 1;
#X obj 190 596 pvu~;
#X obj 191 619 vu 15 120 empty empty -1 -8 0 10 -66577 -1 1 0;
#X connect 31 0 41 0;
#X connect 31 0 46 0;
#X connect 34 0 42 0;
#X connect 34 0 43 0;
#X connect 34 0 45 0;
#X connect 37 0 40 0;
#X connect 38 0 39 0;
#X connect 39 0 32 0;
#X connect 40 0 33 0;
#X connect 40 0 47 0;
#X connect 43 0 44 0;
#X connect 45 0 33 0;
#X connect 46 0 32 0;
#X connect 47 0 48 0;
#X restore 8 124 pd grain_engine;
#X obj 50 150 *~ 0.8;
#X obj 7 150 *~ 0.8;
#X connect 0 0 4 0;
#X connect 1 0 4 1;
#X connect 4 0 6 0;
#X connect 4 1 5 0;
#X connect 5 0 3 0;
#X connect 6 0 2 0;
#X restore -578 301 pd GRAIN;
#X obj -530 324 pvu~;
#X obj -529 347 vu 15 120 empty empty -1 -8 0 10 -66577 -1 1 0;
#X obj -367 561 dac~;
#X text -450 175 look inside for comments;
#X obj -665 124 smp-pvoc1;
#X obj -704 321 pvu~;
#X obj -703 344 vu 15 120 empty empty -1 -8 0 10 -66577 -1 1 0;
#X obj -604 328 pvu~;
#X obj -603 351 vu 15 120 empty empty -1 -8 0 10 -66577 -1 1 0;
#X obj -524 570 dac~;
#X obj -568 329 dac~;
#N canvas 23 130 450 300 flanger 0;
#X obj 31 24 inlet~;
#X obj 81 24 inlet~;
#X obj 40 136 outlet~;
#X obj 100 137 outlet~;
#X obj 39 94 tof/crossfade~ 2;
#X obj 509 2 inlet params;
#X obj 509 48 print PARAM_NOTFOUND;
#X obj 169 4 tof/param /wet 0 /g slider 0 1;
#X obj 177 68 line~;
#X msg 169 26 \$1 5;
#X obj 509 24 tof/param route;
#X obj 502 79 b;
#X obj 503 108 tof/param gui;
#N canvas 0 22 403 603 flanger 0;
#X obj 546 106 inlet~;
#X obj 592 104 inlet~;
#X obj 660 250 *~;
#X obj 783 250 *~;
#X obj 852 55 * 10;
#X obj 691 146 phasor~;
#X obj 660 196 cos~;
#X obj 782 201 cos~;
#X obj 660 228 +~ 1;
#X obj 783 225 +~ 1;
#N canvas 518 513 473 213 feedback 0;
#X obj 92 18 inlet~;
#X obj 278 26 inlet~;
#X obj 19 142 outlet~;
#X obj 191 154 outlet~;
#X obj 58 88 *~;
#X obj 232 94 *~;
#X obj 58 112 delwrite~ \$0-flanger-l 1000;
#X obj 233 115 delwrite~ \$0-flanger-r 1000;
#X obj 18 49 vd~ \$0-flanger-l;
#X obj 193 55 vd~ \$0-flanger-r;
#X obj 18 22 inlet~;
#X obj 192 25 inlet~;
#X obj 300 147 block~ 4 1 1;
#X obj 374 28 inlet~;
#X connect 0 0 6 0;
#X connect 1 0 7 0;
#X connect 4 0 6 0;
#X connect 5 0 7 0;
#X connect 8 0 4 0;
#X connect 8 0 2 0;
#X connect 9 0 5 0;
#X connect 9 0 3 0;
#X connect 10 0 8 0;
#X connect 11 0 9 0;
#X connect 13 0 5 1;
#X connect 13 0 4 1;
#X restore 678 318 pd feedback;
#X obj 781 178 +~ 0.06;
#X obj 661 274 +~ 0.12;
#X obj 784 273 +~ 0.12;
#X obj 634 367 outlet~;
#X obj 726 383 outlet~;
#X msg 949 209 \$1 20;
#X obj 951 232 line~;
#X obj 949 167 * 0.9;
#X obj 950 187 + 0.05;
#X obj 687 89 expr pow($f1 \, 2);
#X obj 689 117 + 0.1;
#X obj 945 134 tof/param /feedback 0 /g slider 0 50;
#X obj 863 27 tof/param /width 0 /g slider 0 100;
#X obj 748 -12 tof/param /frequence 20 /g slider 0 100;
#X obj 848 115 line~;
#X msg 846 86 \$1 5;
#X connect 0 0 10 1;
#X connect 1 0 10 3;
#X connect 2 0 12 0;
#X connect 3 0 13 0;
#X connect 4 0 26 0;
#X connect 5 0 6 0;
#X connect 5 0 11 0;
#X connect 6 0 8 0;
#X connect 7 0 9 0;
#X connect 8 0 2 0;
#X connect 9 0 3 0;
#X connect 10 0 14 0;
#X connect 10 1 15 0;
#X connect 11 0 7 0;
#X connect 12 0 10 0;
#X connect 13 0 10 2;
#X connect 16 0 17 0;
#X connect 17 0 10 4;
#X connect 18 0 19 0;
#X connect 19 0 16 0;
#X connect 20 0 21 0;
#X connect 21 0 5 0;
#X connect 22 0 18 0;
#X connect 23 0 4 0;
#X connect 24 0 20 0;
#X connect 25 0 3 1;
#X connect 25 0 2 1;
#X connect 26 0 25 0;
#X restore 86 60 pd flanger;
#X obj 113 117 *~ 0.6;
#X obj 48 114 *~ 0.6;
#X connect 0 0 4 0;
#X connect 0 0 13 0;
#X connect 1 0 4 1;
#X connect 1 0 13 1;
#X connect 4 0 15 0;
#X connect 4 1 14 0;
#X connect 5 0 10 0;
#X connect 7 0 9 0;
#X connect 8 0 4 4;
#X connect 9 0 8 0;
#X connect 10 0 6 0;
#X connect 11 0 12 0;
#X connect 13 0 4 2;
#X connect 13 1 4 3;
#X connect 14 0 3 0;
#X connect 15 0 2 0;
#X restore -751 528 pd flanger;
#X obj -700 561 pvu~;
#X obj -699 584 vu 15 120 empty empty -1 -8 0 10 -66577 -1 1 0;
#X obj -767 560 pvu~;
#X obj -766 583 vu 15 120 empty empty -1 -8 0 10 -66577 -1 1 0;
#X obj -731 561 dac~;
#X text -874 137 LEFT CHANNELS ARE FOR HEADPHONES RIGHT CHNNELS ARE
FOR TV's;
#X text -867 134 comment;
#X obj -96 507 pvu~;
#X obj -95 530 vu 15 120 empty empty -1 -8 0 10 -66577 -1 1 0;
#X obj -170 511 pvu~;
#X obj -169 534 vu 15 120 empty empty -1 -8 0 10 -66577 -1 1 0;
#X obj -130 530 dac~;
#X text -478 183 comment;
#N canvas 354 133 450 300 flangerControl 0;
#X obj -225 84 r flangerFeedback;
#X obj -129 227 print $ffb;
#X msg -224 203 /wet \$1;
#X obj -40 110 * 100;
#X msg -50 187 /width \$1;
#X floatatom -48 158 5 0 0 0 - - -;
#X floatatom -228 140 5 0 0 0 - - -;
#X obj -129 134 -;
#X msg -138 108 1;
#X floatatom -99 137 5 0 0 0 - - -;
#X obj -27 132 + 1;
#X msg -173 158 /frequence \$1;
#X floatatom -176 131 5 0 0 0 - - -;
#X msg -223 179 1;
#X obj -251 160 loadbang;
#X obj -175 110 * 6;
#X msg 27 186 /feedback \$1;
#X floatatom 31 151 5 0 0 0 - - -;
#X obj 14 67 r flangerEffect;
#X obj -136 261 outlet;
#X obj 5 124 * 0.99;
#X connect 0 0 6 0;
#X connect 0 0 7 1;
#X connect 0 0 8 0;
#X connect 0 0 15 0;
#X connect 2 0 1 0;
#X connect 2 0 19 0;
#X connect 3 0 5 0;
#X connect 3 0 10 0;
#X connect 4 0 1 0;
#X connect 4 0 19 0;
#X connect 7 0 9 0;
#X connect 8 0 7 0;
#X connect 10 0 5 0;
#X connect 10 0 4 0;
#X connect 11 0 1 0;
#X connect 11 0 19 0;
#X connect 12 0 11 0;
#X connect 13 0 2 0;
#X connect 14 0 13 0;
#X connect 15 0 12 0;
#X connect 16 0 19 0;
#X connect 16 0 1 0;
#X connect 18 0 3 0;
#X connect 18 0 20 0;
#X connect 20 0 17 0;
#X connect 20 0 16 0;
#X restore -703 493 pd flangerControl;
#N canvas 2 23 523 551 Delay 0;
#X obj 152 207 inlet~ sourceAudio;
#X floatatom 224 126 5 0 0 0 - - -;
#X obj 225 39 r delayLength;
#X obj 76 359 outlet~ channel1;
#X obj 176 279 limiter~;
#X obj 159 301 *~;
#X obj 53 401 pvu~;
#X obj 54 433 vu 15 120 empty empty -1 -8 0 10 -66577 -1 1 0;
#X obj 224 60 pack 0 50;
#X obj 224 82 line;
#X obj 122 94 random 1000;
#X floatatom 285 60 5 0 0 0 - - -;
#X floatatom 172 187 5 0 0 0 - - -;
#X floatatom 133 184 5 0 0 0 - - -;
#X obj 122 71 metro 1000;
#X obj 122 49 tgl 15 0 empty empty empty 17 7 0 10 -262144 -1 -1 1
1;
#X obj 121 29 loadbang;
#X obj 187 163 +;
#X obj 193 116 bng 15 250 50 0 empty empty empty 17 7 0 10 -262144
-1 -1;
#X obj 122 114 - 500;
#X obj 122 135 * 0.001;
#X obj 58 294 r delayFade;
#X obj 101 257 -;
#X floatatom 20 326 5 0 0 0 - - -;
#X msg 104 236 1;
#X obj 32 140 r Delay_LFO;
#X obj 63 190 *;
#X obj 122 156 * 1;
#X obj 63 324 *~ 0.35;
#X obj 153 229 *~ 0.5;
#X obj 167 251 +~;
#X obj 259 281 delwrite~ del 100;
#X obj 224 174 delread~ del 100;
#X obj 284 219 *~ 0.65;
#X connect 0 0 29 0;
#X connect 1 0 17 1;
#X connect 1 0 27 1;
#X connect 2 0 8 0;
#X connect 2 0 11 0;
#X connect 2 0 10 0;
#X connect 4 0 5 1;
#X connect 5 0 28 0;
#X connect 6 0 7 0;
#X connect 8 0 9 0;
#X connect 9 0 1 0;
#X connect 10 0 19 0;
#X connect 12 0 14 1;
#X connect 12 0 32 0;
#X connect 13 0 17 0;
#X connect 14 0 10 0;
#X connect 15 0 14 0;
#X connect 16 0 15 0;
#X connect 17 0 12 0;
#X connect 18 0 1 0;
#X connect 19 0 20 0;
#X connect 20 0 27 0;
#X connect 21 0 22 1;
#X connect 21 0 23 0;
#X connect 21 0 24 0;
#X connect 21 0 28 1;
#X connect 23 0 28 1;
#X connect 24 0 22 0;
#X connect 25 0 26 1;
#X connect 26 0 13 0;
#X connect 27 0 18 0;
#X connect 27 0 26 0;
#X connect 28 0 3 0;
#X connect 28 0 6 0;
#X connect 29 0 30 0;
#X connect 30 0 31 0;
#X connect 32 0 33 0;
#X connect 33 0 4 0;
#X connect 33 0 5 0;
#X connect 33 0 30 1;
#X restore -412 529 pd Delay and Feedback;
#X obj -60 325 r lfp;
#X obj -113 324 r hpf;
#X obj -95 420 bp~;
#X obj -167 419 bp~;
#X floatatom -14 328 5 0 0 0 - - -;
#X floatatom -154 324 5 0 0 0 - - -;
#X obj -72 385 -;
#X obj -109 456 *~;
#X obj -143 458 *~;
#X text -172 519 Space;
#X floatatom -42 388 5 0 0 0 - - -;
#X floatatom -158 373 5 0 0 0 - - -;
#X obj -128 347 / 12;
#X msg -72 365 1;
#X obj -120 377 / 20;
#X obj -553 518 +~;
#X obj -493 519 +~;
#N canvas 2 23 523 551 Delay 0;
#X obj 152 207 inlet~ sourceAudio;
#X floatatom 224 126 5 0 0 0 - - -;
#X obj 225 39 r delayLength;
#X obj 76 359 outlet~ channel1;
#X obj 176 279 limiter~;
#X obj 159 301 *~;
#X obj 53 401 pvu~;
#X obj 54 433 vu 15 120 empty empty -1 -8 0 10 -66577 -1 1 0;
#X obj 224 60 pack 0 50;
#X obj 224 82 line;
#X obj 122 94 random 1000;
#X floatatom 285 60 5 0 0 0 - - -;
#X floatatom 172 187 5 0 0 0 - - -;
#X floatatom 133 184 5 0 0 0 - - -;
#X obj 122 71 metro 1000;
#X obj 122 49 tgl 15 0 empty empty empty 17 7 0 10 -262144 -1 -1 1
1;
#X obj 121 29 loadbang;
#X obj 187 163 +;
#X obj 193 116 bng 15 250 50 0 empty empty empty 17 7 0 10 -262144
-1 -1;
#X obj 122 114 - 500;
#X obj 122 135 * 0.001;
#X obj 58 294 r delayFade;
#X obj 101 257 -;
#X floatatom 20 326 5 0 0 0 - - -;
#X msg 104 236 1;
#X obj 32 140 r Delay_LFO;
#X obj 63 190 *;
#X obj 122 156 * 1;
#X obj 63 324 *~ 0.35;
#X obj 153 229 *~ 0.5;
#X obj 167 251 +~;
#X obj 259 281 delwrite~ del 100;
#X obj 224 174 delread~ del 100;
#X obj 284 219 *~ 0.65;
#X connect 0 0 29 0;
#X connect 1 0 17 1;
#X connect 1 0 27 1;
#X connect 2 0 8 0;
#X connect 2 0 11 0;
#X connect 2 0 10 0;
#X connect 4 0 5 1;
#X connect 5 0 28 0;
#X connect 6 0 7 0;
#X connect 8 0 9 0;
#X connect 9 0 1 0;
#X connect 10 0 19 0;
#X connect 12 0 14 1;
#X connect 12 0 32 0;
#X connect 13 0 17 0;
#X connect 14 0 10 0;
#X connect 15 0 14 0;
#X connect 16 0 15 0;
#X connect 17 0 12 0;
#X connect 18 0 1 0;
#X connect 19 0 20 0;
#X connect 20 0 27 0;
#X connect 21 0 22 1;
#X connect 21 0 23 0;
#X connect 21 0 24 0;
#X connect 21 0 28 1;
#X connect 23 0 28 1;
#X connect 24 0 22 0;
#X connect 25 0 26 1;
#X connect 26 0 13 0;
#X connect 27 0 18 0;
#X connect 27 0 26 0;
#X connect 28 0 3 0;
#X connect 28 0 6 0;
#X connect 29 0 30 0;
#X connect 30 0 31 0;
#X connect 32 0 33 0;
#X connect 33 0 4 0;
#X connect 33 0 5 0;
#X connect 33 0 30 1;
#X restore -391 501 pd Delay and Feedback;
#X obj 93 504 pvu~;
#X obj 94 527 vu 15 120 empty empty -1 -8 0 10 -66577 -1 1 0;
#X obj 35 505 pvu~;
#X obj 36 528 vu 15 120 empty empty -1 -8 0 10 -66577 -1 1 0;
#X connect 1 0 28 0;
#X connect 2 0 1 0;
#X connect 3 0 28 0;
#X connect 4 0 3 0;
#X connect 6 0 7 0;
#X connect 8 0 9 0;
#X connect 10 0 11 0;
#X connect 14 0 28 1;
#X connect 15 0 21 0;
#X connect 15 0 33 0;
#X connect 15 0 71 0;
#X connect 15 1 17 0;
#X connect 15 1 33 1;
#X connect 15 1 69 0;
#X connect 16 0 12 0;
#X connect 16 0 19 0;
#X connect 16 0 35 0;
#X connect 16 0 71 0;
#X connect 16 1 12 1;
#X connect 16 1 29 0;
#X connect 16 1 35 1;
#X connect 16 1 69 0;
#X connect 17 0 18 0;
#X connect 19 0 20 0;
#X connect 21 0 22 0;
#X connect 23 0 31 0;
#X connect 23 0 34 0;
#X connect 23 0 66 0;
#X connect 23 0 50 0;
#X connect 23 0 71 0;
#X connect 23 1 24 0;
#X connect 23 1 34 1;
#X connect 23 1 67 0;
#X connect 23 1 68 0;
#X connect 23 1 69 0;
#X connect 24 0 25 0;
#X connect 28 0 6 0;
#X connect 28 0 23 0;
#X connect 28 0 23 1;
#X connect 28 0 16 0;
#X connect 28 0 16 1;
#X connect 28 0 54 0;
#X connect 28 0 53 0;
#X connect 28 0 66 1;
#X connect 28 0 67 1;
#X connect 29 0 30 0;
#X connect 31 0 32 0;
#X connect 35 0 38 0;
#X connect 35 0 40 0;
#X connect 35 1 36 0;
#X connect 35 1 40 1;
#X connect 35 1 69 0;
#X connect 36 0 37 0;
#X connect 38 0 39 0;
#X connect 43 0 44 0;
#X connect 45 0 46 0;
#X connect 49 0 35 2;
#X connect 50 0 8 0;
#X connect 50 0 26 0;
#X connect 50 0 71 0;
#X connect 51 0 53 1;
#X connect 51 0 55 0;
#X connect 51 0 54 1;
#X connect 52 0 56 0;
#X connect 52 0 63 1;
#X connect 52 0 65 0;
#X connect 53 0 58 0;
#X connect 54 0 59 0;
#X connect 57 0 58 1;
#X connect 57 0 61 0;
#X connect 58 0 47 1;
#X connect 58 0 43 0;
#X connect 58 0 69 0;
#X connect 59 0 47 0;
#X connect 59 0 45 0;
#X connect 59 0 71 0;
#X connect 63 0 54 2;
#X connect 63 0 53 2;
#X connect 64 0 57 0;
#X connect 65 0 64 0;
#X connect 65 0 57 1;
#X connect 65 0 59 1;
#X connect 65 0 62 0;
#X connect 66 0 15 0;
#X connect 67 0 15 1;
#X connect 68 0 26 1;
#X connect 68 0 10 0;
#X connect 68 0 69 0;
#X connect 69 0 70 0;
#X connect 71 0 72 0;
