#N canvas 211 22 934 551 10;
#X declare -lib mrpeach;
#X obj 9 58 udpsend;
#X obj 215 70 / 127;
#X obj 10 34 packOSC;
#X obj 14 -14 import mrpeach;
#X obj 215 90 prepend /s1;
#X obj 288 70 / 127;
#X obj 288 90 prepend /s2;
#X obj 215 112 s data;
#X obj 12 13 r data;
#X obj 288 112 s data;
#X obj 361 70 / 127;
#X obj 434 70 / 127;
#X obj 361 112 s data;
#X obj 434 112 s data;
#X obj 361 90 prepend /s3;
#X obj 434 90 prepend /s4;
#X obj 508 70 / 127;
#X obj 581 70 / 127;
#X obj 508 112 s data;
#X obj 581 112 s data;
#X obj 654 70 / 127;
#X obj 727 70 / 127;
#X obj 654 112 s data;
#X obj 727 112 s data;
#X obj 508 90 prepend /s5;
#X obj 581 90 prepend /s6;
#X obj 654 90 prepend /s7;
#X obj 727 90 prepend /s8;
#X text 253 -15 <-- Change the IP Address to your Pi;
#X text 157 49 SLIDERS;
#X obj 214 176 / 127;
#X obj 287 176 / 127;
#X obj 214 218 s data;
#X obj 287 218 s data;
#X obj 360 176 / 127;
#X obj 433 176 / 127;
#X obj 360 218 s data;
#X obj 433 218 s data;
#X obj 507 176 / 127;
#X obj 580 176 / 127;
#X obj 507 218 s data;
#X obj 580 218 s data;
#X obj 653 176 / 127;
#X obj 726 176 / 127;
#X obj 653 218 s data;
#X obj 726 218 s data;
#X obj 214 196 prepend /k1;
#X obj 287 196 prepend /k2;
#X obj 360 196 prepend /k3;
#X obj 433 196 prepend /k4;
#X obj 507 196 prepend /k5;
#X obj 580 196 prepend /k6;
#X obj 653 196 prepend /k7;
#X obj 726 196 prepend /k8;
#X text 156 155 KNOBS;
#X obj 214 318 s data;
#X obj 287 318 s data;
#X obj 360 318 s data;
#X obj 433 318 s data;
#X obj 507 318 s data;
#X obj 580 318 s data;
#X obj 653 318 s data;
#X obj 726 318 s data;
#X text 156 255 BUTTONS;
#X obj 214 296 prepend /b1;
#X obj 287 296 prepend /b2;
#X obj 360 296 prepend /b3;
#X obj 433 296 prepend /b4;
#X obj 507 296 prepend /b5;
#X obj 580 296 prepend /b6;
#X obj 653 296 prepend /b7;
#X obj 726 296 prepend /b8;
#X obj 213 276 b;
#X obj 287 276 b;
#X obj 360 276 b;
#X obj 433 276 b;
#X obj 507 276 b;
#X obj 580 276 b;
#X obj 653 276 b;
#X obj 726 276 b;
#X floatatom 172 72 5 0 0 0 - - -;
#X floatatom 169 179 5 0 0 0 - - -;
#X floatatom 172 279 5 0 0 0 - - -;
#X obj 215 49 ctlin 0;
#X obj 288 49 ctlin 1;
#X obj 361 49 ctlin 2;
#X obj 434 49 ctlin 3;
#X obj 508 49 ctlin 4;
#X obj 581 49 ctlin 5;
#X obj 654 49 ctlin 6;
#X obj 727 49 ctlin 7;
#X obj 214 155 ctlin 16;
#X obj 287 155 ctlin 17;
#X obj 360 155 ctlin 18;
#X obj 433 155 ctlin 19;
#X obj 507 155 ctlin 20;
#X obj 580 155 ctlin 21;
#X obj 653 155 ctlin 22;
#X obj 726 155 ctlin 23;
#X obj 214 255 ctlin 32;
#X obj 287 255 ctlin 33;
#X obj 360 255 ctlin 34;
#X obj 433 255 ctlin 35;
#X obj 507 255 ctlin 36;
#X obj 580 255 ctlin 37;
#X obj 653 255 ctlin 38;
#X obj 726 255 ctlin 39;
#X obj 214 407 s data;
#X obj 287 407 s data;
#X obj 360 407 s data;
#X obj 433 407 s data;
#X obj 507 407 s data;
#X obj 580 407 s data;
#X obj 653 407 s data;
#X obj 726 407 s data;
#X text 156 344 BUTTONS;
#X obj 213 365 b;
#X obj 287 365 b;
#X obj 360 365 b;
#X obj 433 365 b;
#X obj 507 365 b;
#X obj 580 365 b;
#X obj 653 365 b;
#X obj 726 365 b;
#X floatatom 172 368 5 0 0 0 - - -;
#X obj 214 344 ctlin 48;
#X obj 287 344 ctlin 49;
#X obj 360 344 ctlin 50;
#X obj 433 344 ctlin 51;
#X obj 507 344 ctlin 52;
#X obj 580 344 ctlin 53;
#X obj 653 344 ctlin 54;
#X obj 726 344 ctlin 55;
#X obj 214 385 prepend /b10;
#X obj 287 385 prepend /b11;
#X obj 360 385 prepend /b12;
#X obj 433 385 prepend /b13;
#X obj 507 385 prepend /b14;
#X obj 580 385 prepend /b15;
#X obj 653 385 prepend /b16;
#X obj 726 385 prepend /b17;
#X msg 109 -14 connect 10.0.1.7 3001;
#X obj 213 497 s data;
#X obj 286 497 s data;
#X obj 359 497 s data;
#X obj 432 497 s data;
#X obj 506 497 s data;
#X obj 579 497 s data;
#X obj 652 497 s data;
#X obj 725 497 s data;
#X text 155 434 BUTTONS;
#X obj 212 455 b;
#X obj 286 455 b;
#X obj 359 455 b;
#X obj 432 455 b;
#X obj 506 455 b;
#X obj 579 455 b;
#X obj 652 455 b;
#X obj 725 455 b;
#X floatatom 171 458 5 0 0 0 - - -;
#X obj 213 434 ctlin 64;
#X obj 286 434 ctlin 65;
#X obj 359 434 ctlin 66;
#X obj 432 434 ctlin 67;
#X obj 506 434 ctlin 68;
#X obj 579 434 ctlin 69;
#X obj 652 434 ctlin 70;
#X obj 725 434 ctlin 71;
#X obj 213 475 prepend /b20;
#X obj 286 475 prepend /b21;
#X obj 359 475 prepend /b22;
#X obj 432 475 prepend /b23;
#X obj 506 475 prepend /b24;
#X obj 579 475 prepend /b25;
#X obj 652 475 prepend /b26;
#X obj 725 475 prepend /b27;
#X obj 211 584 s data;
#X obj 314 584 s data;
#X obj 440 584 s data;
#X obj 563 584 s data;
#X obj 677 584 s data;
#X obj 210 542 b;
#X obj 314 542 b;
#X obj 440 542 b;
#X obj 563 542 b;
#X obj 677 542 b;
#X floatatom 169 545 5 0 0 0 - - -;
#X text 153 521 Transport;
#X obj 210 563 prepend /rewind;
#X obj 314 562 prepend /fastforward;
#X obj 440 562 prepend /stop;
#X obj 563 562 prepend /play;
#X obj 677 562 prepend /record;
#X obj 211 521 ctlin 43;
#X obj 314 521 ctlin 44;
#X obj 440 521 ctlin 42;
#X obj 563 521 ctlin 41;
#X obj 677 521 ctlin 45;
#X obj 210 670 s data;
#X obj 313 670 s data;
#X obj 439 670 s data;
#X obj 209 628 b;
#X obj 313 628 b;
#X obj 439 628 b;
#X floatatom 168 631 5 0 0 0 - - -;
#X text 152 607 Marker;
#X obj 209 649 prepend /mset;
#X obj 313 648 prepend /mback;
#X obj 439 648 prepend /mforward;
#X obj 210 607 ctlin 60;
#X obj 313 607 ctlin 61;
#X obj 439 607 ctlin 62;
#X obj 210 756 s data;
#X obj 313 756 s data;
#X obj 439 756 s data;
#X obj 209 714 b;
#X obj 313 714 b;
#X obj 439 714 b;
#X floatatom 168 717 5 0 0 0 - - -;
#X text 152 693 Track;
#X obj 210 693 ctlin 58;
#X obj 313 693 ctlin 59;
#X obj 439 693 ctlin 46;
#X obj 209 735 prepend /tback;
#X obj 313 734 prepend /tforward;
#X obj 439 734 prepend /cycle;
#X msg 107 25 connect 10.40.18.0 3001;
#X msg 109 5 connect 127.0.0.1 12001;
#X connect 1 0 4 0;
#X connect 2 0 0 0;
#X connect 4 0 7 0;
#X connect 5 0 6 0;
#X connect 6 0 9 0;
#X connect 8 0 2 0;
#X connect 10 0 14 0;
#X connect 11 0 15 0;
#X connect 14 0 12 0;
#X connect 15 0 13 0;
#X connect 16 0 24 0;
#X connect 17 0 25 0;
#X connect 20 0 26 0;
#X connect 21 0 27 0;
#X connect 24 0 18 0;
#X connect 25 0 19 0;
#X connect 26 0 22 0;
#X connect 27 0 23 0;
#X connect 30 0 46 0;
#X connect 31 0 47 0;
#X connect 34 0 48 0;
#X connect 35 0 49 0;
#X connect 38 0 50 0;
#X connect 39 0 51 0;
#X connect 42 0 52 0;
#X connect 43 0 53 0;
#X connect 46 0 32 0;
#X connect 47 0 33 0;
#X connect 48 0 36 0;
#X connect 49 0 37 0;
#X connect 50 0 40 0;
#X connect 51 0 41 0;
#X connect 52 0 44 0;
#X connect 53 0 45 0;
#X connect 64 0 55 0;
#X connect 65 0 56 0;
#X connect 66 0 57 0;
#X connect 67 0 58 0;
#X connect 68 0 59 0;
#X connect 69 0 60 0;
#X connect 70 0 61 0;
#X connect 71 0 62 0;
#X connect 72 0 64 0;
#X connect 73 0 65 0;
#X connect 74 0 66 0;
#X connect 75 0 67 0;
#X connect 76 0 68 0;
#X connect 77 0 69 0;
#X connect 78 0 70 0;
#X connect 79 0 71 0;
#X connect 83 0 1 0;
#X connect 83 0 80 0;
#X connect 84 0 5 0;
#X connect 85 0 10 0;
#X connect 86 0 11 0;
#X connect 87 0 16 0;
#X connect 88 0 17 0;
#X connect 89 0 20 0;
#X connect 90 0 21 0;
#X connect 91 0 30 0;
#X connect 91 0 81 0;
#X connect 92 0 31 0;
#X connect 93 0 34 0;
#X connect 94 0 35 0;
#X connect 95 0 38 0;
#X connect 96 0 39 0;
#X connect 97 0 42 0;
#X connect 98 0 43 0;
#X connect 99 0 72 0;
#X connect 99 0 82 0;
#X connect 100 0 73 0;
#X connect 101 0 74 0;
#X connect 102 0 75 0;
#X connect 103 0 76 0;
#X connect 104 0 77 0;
#X connect 105 0 78 0;
#X connect 106 0 79 0;
#X connect 116 0 133 0;
#X connect 117 0 134 0;
#X connect 118 0 135 0;
#X connect 119 0 136 0;
#X connect 120 0 137 0;
#X connect 121 0 138 0;
#X connect 122 0 139 0;
#X connect 123 0 140 0;
#X connect 125 0 116 0;
#X connect 125 0 124 0;
#X connect 126 0 117 0;
#X connect 127 0 118 0;
#X connect 128 0 119 0;
#X connect 129 0 120 0;
#X connect 130 0 121 0;
#X connect 131 0 122 0;
#X connect 132 0 123 0;
#X connect 133 0 107 0;
#X connect 134 0 108 0;
#X connect 135 0 109 0;
#X connect 136 0 110 0;
#X connect 137 0 111 0;
#X connect 138 0 112 0;
#X connect 139 0 113 0;
#X connect 140 0 114 0;
#X connect 141 0 0 0;
#X connect 151 0 168 0;
#X connect 152 0 169 0;
#X connect 153 0 170 0;
#X connect 154 0 171 0;
#X connect 155 0 172 0;
#X connect 156 0 173 0;
#X connect 157 0 174 0;
#X connect 158 0 175 0;
#X connect 160 0 151 0;
#X connect 160 0 159 0;
#X connect 161 0 152 0;
#X connect 162 0 153 0;
#X connect 163 0 154 0;
#X connect 164 0 155 0;
#X connect 165 0 156 0;
#X connect 166 0 157 0;
#X connect 167 0 158 0;
#X connect 168 0 142 0;
#X connect 169 0 143 0;
#X connect 170 0 144 0;
#X connect 171 0 145 0;
#X connect 172 0 146 0;
#X connect 173 0 147 0;
#X connect 174 0 148 0;
#X connect 175 0 149 0;
#X connect 181 0 188 0;
#X connect 182 0 189 0;
#X connect 183 0 190 0;
#X connect 184 0 191 0;
#X connect 185 0 192 0;
#X connect 188 0 176 0;
#X connect 189 0 177 0;
#X connect 190 0 178 0;
#X connect 191 0 179 0;
#X connect 192 0 180 0;
#X connect 193 0 181 0;
#X connect 193 0 186 0;
#X connect 194 0 182 0;
#X connect 195 0 183 0;
#X connect 196 0 184 0;
#X connect 197 0 185 0;
#X connect 201 0 206 0;
#X connect 202 0 207 0;
#X connect 203 0 208 0;
#X connect 206 0 198 0;
#X connect 207 0 199 0;
#X connect 208 0 200 0;
#X connect 209 0 201 0;
#X connect 209 0 204 0;
#X connect 210 0 202 0;
#X connect 211 0 203 0;
#X connect 215 0 223 0;
#X connect 216 0 224 0;
#X connect 217 0 225 0;
#X connect 220 0 215 0;
#X connect 220 0 218 0;
#X connect 221 0 216 0;
#X connect 222 0 217 0;
#X connect 223 0 212 0;
#X connect 224 0 213 0;
#X connect 225 0 214 0;
#X connect 226 0 0 0;
#X connect 227 0 0 0;
